<svg xmlns="http://www.w3.org/2000/svg" xmlns:xlink="http://www.w3.org/1999/xlink" contentStyleType="text/css" data-diagram-type="CLASS" height="561px" preserveAspectRatio="none" style="width:2815px;height:561px;background:#FFFFFF;" version="1.1" viewBox="0 0 2815 561" width="2815px" zoomAndPan="magnify"><defs/><g><!--class UEg--><g class="entity" data-entity="UEg" data-source-line="5" data-uid="ent0002" id="entity_UEg"><rect fill="#F1F1F1" height="194.6719" rx="2.5" ry="2.5" style="stroke:#181818;stroke-width:0.5;" width="326.501" x="457.61" y="194.55"/><ellipse cx="602.6207" cy="210.55" fill="#ADD1B2" rx="11" ry="11" style="stroke:#181818;stroke-width:1;"/><path d="M605.5895,216.1906 Q605.0114,216.4875 604.3707,216.6281 Q603.7301,216.7844 603.027,216.7844 Q600.527,216.7844 599.1989,215.1438 Q597.8864,213.4875 597.8864,210.3625 Q597.8864,207.2375 599.1989,205.5813 Q600.527,203.925 603.027,203.925 Q603.7301,203.925 604.3707,204.0813 Q605.027,204.2375 605.5895,204.5344 L605.5895,207.2531 Q604.9645,206.675 604.3707,206.4094 Q603.777,206.1281 603.152,206.1281 Q601.8082,206.1281 601.1207,207.2063 Q600.4332,208.2688 600.4332,210.3625 Q600.4332,212.4563 601.1207,213.5344 Q601.8082,214.5969 603.152,214.5969 Q603.777,214.5969 604.3707,214.3313 Q604.9645,214.05 605.5895,213.4719 L605.5895,216.1906 Z " fill="#000000"/><text fill="#000000" font-family="sans-serif" font-size="14" lengthAdjust="spacing" textLength="27.9795" x="623.1207" y="215.3967">UEg</text><line style="stroke:#181818;stroke-width:0.5;" x1="458.61" x2="783.111" y1="226.55" y2="226.55"/><text fill="#000000" font-family="sans-serif" font-size="14" lengthAdjust="spacing" textLength="107.8848" x="463.61" y="243.5451">+idUEg : String</text><text fill="#000000" font-family="sans-serif" font-size="14" lengthAdjust="spacing" textLength="106.8184" x="463.61" y="259.842">+nome : String</text><text fill="#000000" font-family="sans-serif" font-size="14" lengthAdjust="spacing" textLength="144.4092" x="463.61" y="276.1389">+localizacao : String</text><text fill="#000000" font-family="sans-serif" font-size="14" lengthAdjust="spacing" textLength="188.2344" x="463.61" y="292.4357">+maxUEvs : Integer = 100</text><text fill="#000000" font-family="sans-serif" font-size="14" lengthAdjust="spacing" textLength="304.0078" x="463.61" y="308.7326">+ultimaObjetoSincronizacaoEm : DateTime</text><line style="stroke:#181818;stroke-width:0.5;" x1="458.61" x2="783.111" y1="316.0344" y2="316.0344"/><text fill="#000000" font-family="sans-serif" font-size="14" lengthAdjust="spacing" textLength="163.6865" x="463.61" y="333.0295">+registrarUEv(infoUEv)</text><text fill="#000000" font-family="sans-serif" font-size="14" lengthAdjust="spacing" textLength="138.0518" x="463.61" y="349.3264">+validarUEv(idUEv)</text><text fill="#000000" font-family="sans-serif" font-size="14" lengthAdjust="spacing" textLength="314.501" x="463.61" y="365.6232">+distribuirDados(objetosincronizacao, alvos)</text><text fill="#000000" font-family="sans-serif" font-size="14" lengthAdjust="spacing" textLength="266.2393" x="463.61" y="381.9201">+contabilizarTodasEleicoes(idEleicao)</text></g><!--class UEv--><g class="entity" data-entity="UEv" data-source-line="17" data-uid="ent0003" id="entity_UEv"><rect fill="#F1F1F1" height="129.4844" rx="2.5" ry="2.5" style="stroke:#181818;stroke-width:0.5;" width="207.2139" x="1276.99" y="102.15"/><ellipse cx="1362.658" cy="118.15" fill="#ADD1B2" rx="11" ry="11" style="stroke:#181818;stroke-width:1;"/><path d="M1365.6267,123.7906 Q1365.0486,124.0875 1364.408,124.2281 Q1363.7673,124.3844 1363.0642,124.3844 Q1360.5642,124.3844 1359.2361,122.7437 Q1357.9236,121.0875 1357.9236,117.9625 Q1357.9236,114.8375 1359.2361,113.1812 Q1360.5642,111.525 1363.0642,111.525 Q1363.7673,111.525 1364.408,111.6812 Q1365.0642,111.8375 1365.6267,112.1344 L1365.6267,114.8531 Q1365.0017,114.275 1364.408,114.0094 Q1363.8142,113.7281 1363.1892,113.7281 Q1361.8455,113.7281 1361.158,114.8062 Q1360.4705,115.8687 1360.4705,117.9625 Q1360.4705,120.0562 1361.158,121.1344 Q1361.8455,122.1969 1363.1892,122.1969 Q1363.8142,122.1969 1364.408,121.9312 Q1365.0017,121.65 1365.6267,121.0719 L1365.6267,123.7906 Z " fill="#000000"/><text fill="#000000" font-family="sans-serif" font-size="14" lengthAdjust="spacing" textLength="27.3779" x="1383.158" y="122.9967">UEv</text><line style="stroke:#181818;stroke-width:0.5;" x1="1277.99" x2="1483.2039" y1="134.15" y2="134.15"/><text fill="#000000" font-family="sans-serif" font-size="14" lengthAdjust="spacing" textLength="107.2832" x="1282.99" y="151.1451">+idUEv : String</text><line style="stroke:#181818;stroke-width:0.5;" x1="1277.99" x2="1483.2039" y1="158.4469" y2="158.4469"/><text fill="#000000" font-family="sans-serif" font-size="14" lengthAdjust="spacing" textLength="195.2139" x="1282.99" y="175.442">+carregarEleicao(idEleicao)</text><text fill="#000000" font-family="sans-serif" font-size="14" lengthAdjust="spacing" textLength="191.4746" x="1282.99" y="191.7389">+iniciarSessaoVoto(eleitor)</text><text fill="#000000" font-family="sans-serif" font-size="14" lengthAdjust="spacing" textLength="177.8301" x="1282.99" y="208.0357">+registrarCedula(cedula)</text><text fill="#000000" font-family="sans-serif" font-size="14" lengthAdjust="spacing" textLength="168.5195" x="1282.99" y="224.3326">+transmitirResultados()</text></g><!--class Eleicao--><g class="entity" data-entity="Eleicao" data-source-line="34" data-uid="ent0004" id="entity_Eleicao"><rect fill="#F1F1F1" height="162.0781" rx="2.5" ry="2.5" style="stroke:#181818;stroke-width:0.5;" width="196.6045" x="915.99" y="361.85"/><ellipse cx="985.0022" cy="377.85" fill="#ADD1B2" rx="11" ry="11" style="stroke:#181818;stroke-width:1;"/><path d="M987.971,383.4906 Q987.3928,383.7875 986.7522,383.9281 Q986.1116,384.0844 985.4085,384.0844 Q982.9085,384.0844 981.5803,382.4438 Q980.2678,380.7875 980.2678,377.6625 Q980.2678,374.5375 981.5803,372.8813 Q982.9085,371.225 985.4085,371.225 Q986.1116,371.225 986.7522,371.3813 Q987.4085,371.5375 987.971,371.8344 L987.971,374.5531 Q987.346,373.975 986.7522,373.7094 Q986.1585,373.4281 985.5335,373.4281 Q984.1897,373.4281 983.5022,374.5063 Q982.8147,375.5688 982.8147,377.6625 Q982.8147,379.7563 983.5022,380.8344 Q984.1897,381.8969 985.5335,381.8969 Q986.1585,381.8969 986.7522,381.6313 Q987.346,381.35 987.971,380.7719 L987.971,383.4906 Z " fill="#000000"/><text fill="#000000" font-family="sans-serif" font-size="14" lengthAdjust="spacing" textLength="50.0801" x="1005.5022" y="382.6967">Eleicao</text><line style="stroke:#181818;stroke-width:0.5;" x1="916.99" x2="1111.5945" y1="393.85" y2="393.85"/><text fill="#000000" font-family="sans-serif" font-size="14" lengthAdjust="spacing" textLength="129.9854" x="921.99" y="410.8451">+idEleicao : String</text><text fill="#000000" font-family="sans-serif" font-size="14" lengthAdjust="spacing" textLength="106.8184" x="921.99" y="427.142">+nome : String</text><text fill="#000000" font-family="sans-serif" font-size="14" lengthAdjust="spacing" textLength="184.6045" x="921.99" y="443.4389">+maxCargos : Integer = 8</text><line style="stroke:#181818;stroke-width:0.5;" x1="916.99" x2="1111.5945" y1="450.7406" y2="450.7406"/><text fill="#000000" font-family="sans-serif" font-size="14" lengthAdjust="spacing" textLength="168.417" x="921.99" y="467.7357">+adicionarCargo(cargo)</text><text fill="#000000" font-family="sans-serif" font-size="14" lengthAdjust="spacing" textLength="163.4883" x="921.99" y="484.0326">+validarConfiguracao()</text><text fill="#000000" font-family="sans-serif" font-size="14" lengthAdjust="spacing" textLength="55.5215" x="921.99" y="500.3295">+abrir()</text><text fill="#000000" font-family="sans-serif" font-size="14" lengthAdjust="spacing" textLength="67.1016" x="921.99" y="516.6264">+fechar()</text></g><!--class Cargo--><g class="entity" data-entity="Cargo" data-source-line="47" data-uid="ent0005" id="entity_Cargo"><rect fill="#F1F1F1" height="129.4844" rx="2.5" ry="2.5" style="stroke:#181818;stroke-width:0.5;" width="240.3408" x="1533.71" y="425.15"/><ellipse cx="1628.8492" cy="441.15" fill="#ADD1B2" rx="11" ry="11" style="stroke:#181818;stroke-width:1;"/><path d="M1631.8179,446.7906 Q1631.2398,447.0875 1630.5992,447.2281 Q1629.9585,447.3844 1629.2554,447.3844 Q1626.7554,447.3844 1625.4273,445.7438 Q1624.1148,444.0875 1624.1148,440.9625 Q1624.1148,437.8375 1625.4273,436.1813 Q1626.7554,434.525 1629.2554,434.525 Q1629.9585,434.525 1630.5992,434.6813 Q1631.2554,434.8375 1631.8179,435.1344 L1631.8179,437.8531 Q1631.1929,437.275 1630.5992,437.0094 Q1630.0054,436.7281 1629.3804,436.7281 Q1628.0367,436.7281 1627.3492,437.8063 Q1626.6617,438.8688 1626.6617,440.9625 Q1626.6617,443.0563 1627.3492,444.1344 Q1628.0367,445.1969 1629.3804,445.1969 Q1630.0054,445.1969 1630.5992,444.9313 Q1631.1929,444.65 1631.8179,444.0719 L1631.8179,446.7906 Z " fill="#000000"/><text fill="#000000" font-family="sans-serif" font-size="14" lengthAdjust="spacing" textLength="41.5625" x="1649.3492" y="445.9967">Cargo</text><line style="stroke:#181818;stroke-width:0.5;" x1="1534.71" x2="1773.0508" y1="457.15" y2="457.15"/><text fill="#000000" font-family="sans-serif" font-size="14" lengthAdjust="spacing" textLength="121.4678" x="1539.71" y="474.1451">+idCargo : String</text><text fill="#000000" font-family="sans-serif" font-size="14" lengthAdjust="spacing" textLength="106.8184" x="1539.71" y="490.442">+nome : String</text><text fill="#000000" font-family="sans-serif" font-size="14" lengthAdjust="spacing" textLength="117.332" x="1539.71" y="506.7389">+vagas : Integer</text><text fill="#000000" font-family="sans-serif" font-size="14" lengthAdjust="spacing" textLength="121.167" x="1539.71" y="523.0357">+ordem : Integer</text><line style="stroke:#181818;stroke-width:0.5;" x1="1534.71" x2="1773.0508" y1="530.3375" y2="530.3375"/><text fill="#000000" font-family="sans-serif" font-size="14" lengthAdjust="spacing" textLength="228.3408" x="1539.71" y="547.3326">+adicionarCandidato(candidato)</text></g><!--class Candidato--><g class="entity" data-entity="Candidato" data-source-line="55" data-uid="ent0006" id="entity_Candidato"><rect fill="#F1F1F1" height="129.4844" rx="2.5" ry="2.5" style="stroke:#181818;stroke-width:0.5;" width="163.4297" x="2645.57" y="250.15"/><ellipse cx="2687.5274" cy="266.15" fill="#ADD1B2" rx="11" ry="11" style="stroke:#181818;stroke-width:1;"/><path d="M2690.4961,271.7906 Q2689.918,272.0875 2689.2774,272.2281 Q2688.6367,272.3844 2687.9336,272.3844 Q2685.4336,272.3844 2684.1055,270.7438 Q2682.793,269.0875 2682.793,265.9625 Q2682.793,262.8375 2684.1055,261.1813 Q2685.4336,259.525 2687.9336,259.525 Q2688.6367,259.525 2689.2774,259.6813 Q2689.9336,259.8375 2690.4961,260.1344 L2690.4961,262.8531 Q2689.8711,262.275 2689.2774,262.0094 Q2688.6836,261.7281 2688.0586,261.7281 Q2686.7149,261.7281 2686.0274,262.8063 Q2685.3399,263.8688 2685.3399,265.9625 Q2685.3399,268.0563 2686.0274,269.1344 Q2686.7149,270.1969 2688.0586,270.1969 Q2688.6836,270.1969 2689.2774,269.9313 Q2689.8711,269.65 2690.4961,269.0719 L2690.4961,271.7906 Z " fill="#000000"/><text fill="#000000" font-family="sans-serif" font-size="14" lengthAdjust="spacing" textLength="71.5244" x="2707.5179" y="270.9967">Candidato</text><line style="stroke:#181818;stroke-width:0.5;" x1="2646.57" x2="2807.9997" y1="282.15" y2="282.15"/><text fill="#000000" font-family="sans-serif" font-size="14" lengthAdjust="spacing" textLength="151.4297" x="2651.57" y="299.1451">+idCandidato : String</text><text fill="#000000" font-family="sans-serif" font-size="14" lengthAdjust="spacing" textLength="106.8184" x="2651.57" y="315.442">+nome : String</text><text fill="#000000" font-family="sans-serif" font-size="14" lengthAdjust="spacing" textLength="130.0264" x="2651.57" y="331.7389">+numero : Integer</text><text fill="#000000" font-family="sans-serif" font-size="14" lengthAdjust="spacing" textLength="116.3203" x="2651.57" y="348.0357">+urlFoto : String</text><text fill="#000000" font-family="sans-serif" font-size="14" lengthAdjust="spacing" textLength="106.6133" x="2651.57" y="364.3326">+cargo : String</text><line style="stroke:#181818;stroke-width:0.5;" x1="2646.57" x2="2807.9997" y1="371.6344" y2="371.6344"/></g><!--class Eleitor--><g class="entity" data-entity="Eleitor" data-source-line="65" data-uid="ent0007" id="entity_Eleitor"><rect fill="#F1F1F1" height="178.375" rx="2.5" ry="2.5" style="stroke:#181818;stroke-width:0.5;" width="246.2334" x="1257.48" y="266.7"/><ellipse cx="1353.8223" cy="282.7" fill="#ADD1B2" rx="11" ry="11" style="stroke:#181818;stroke-width:1;"/><path d="M1356.791,288.3406 Q1356.2129,288.6375 1355.5723,288.7781 Q1354.9317,288.9344 1354.2285,288.9344 Q1351.7285,288.9344 1350.4004,287.2938 Q1349.0879,285.6375 1349.0879,282.5125 Q1349.0879,279.3875 1350.4004,277.7313 Q1351.7285,276.075 1354.2285,276.075 Q1354.9317,276.075 1355.5723,276.2313 Q1356.2285,276.3875 1356.791,276.6844 L1356.791,279.4031 Q1356.166,278.825 1355.5723,278.5594 Q1354.9785,278.2781 1354.3535,278.2781 Q1353.0098,278.2781 1352.3223,279.3563 Q1351.6348,280.4188 1351.6348,282.5125 Q1351.6348,284.6063 1352.3223,285.6844 Q1353.0098,286.7469 1354.3535,286.7469 Q1354.9785,286.7469 1355.5723,286.4813 Q1356.166,286.2 1356.791,285.6219 L1356.791,288.3406 Z " fill="#000000"/><text fill="#000000" font-family="sans-serif" font-size="14" lengthAdjust="spacing" textLength="45.0488" x="1374.3223" y="287.5467">Eleitor</text><line style="stroke:#181818;stroke-width:0.5;" x1="1258.48" x2="1502.7134" y1="298.7" y2="298.7"/><text fill="#000000" font-family="sans-serif" font-size="14" lengthAdjust="spacing" textLength="124.9541" x="1263.48" y="315.6951">+idEleitor : String</text><text fill="#000000" font-family="sans-serif" font-size="14" lengthAdjust="spacing" textLength="202.542" x="1263.48" y="331.992">+numeroDocumento : String</text><text fill="#000000" font-family="sans-serif" font-size="14" lengthAdjust="spacing" textLength="106.8184" x="1263.48" y="348.2889">+nome : String</text><text fill="#000000" font-family="sans-serif" font-size="14" lengthAdjust="spacing" textLength="171.1104" x="1263.48" y="364.5857">+idUEvAtribuida : String</text><text fill="#000000" font-family="sans-serif" font-size="14" lengthAdjust="spacing" textLength="111.8701" x="1263.48" y="380.8826">+urlFoto: String</text><text fill="#000000" font-family="sans-serif" font-size="14" lengthAdjust="spacing" textLength="203.9707" x="1263.48" y="397.1795">+jaVotouPorEleicao: Boolean</text><line style="stroke:#181818;stroke-width:0.5;" x1="1258.48" x2="1502.7134" y1="404.4813" y2="404.4813"/><text fill="#000000" font-family="sans-serif" font-size="14" lengthAdjust="spacing" textLength="114.208" x="1263.48" y="421.4764">+registrar(data)</text><text fill="#000000" font-family="sans-serif" font-size="14" lengthAdjust="spacing" textLength="234.2334" x="1263.48" y="437.7732">+marcarVotado(idEleicao, idUEv)</text></g><!--class Cedula--><g class="entity" data-entity="Cedula" data-source-line="77" data-uid="ent0008" id="entity_Cedula"><rect fill="#F1F1F1" height="145.7813" rx="2.5" ry="2.5" style="stroke:#181818;stroke-width:0.5;" width="320.6494" x="1804.05" y="283"/><ellipse cx="1935.8161" cy="299" fill="#ADD1B2" rx="11" ry="11" style="stroke:#181818;stroke-width:1;"/><path d="M1938.7849,304.6406 Q1938.2067,304.9375 1937.5661,305.0781 Q1936.9255,305.2344 1936.2224,305.2344 Q1933.7224,305.2344 1932.3942,303.5938 Q1931.0817,301.9375 1931.0817,298.8125 Q1931.0817,295.6875 1932.3942,294.0313 Q1933.7224,292.375 1936.2224,292.375 Q1936.9255,292.375 1937.5661,292.5313 Q1938.2224,292.6875 1938.7849,292.9844 L1938.7849,295.7031 Q1938.1599,295.125 1937.5661,294.8594 Q1936.9724,294.5781 1936.3474,294.5781 Q1935.0036,294.5781 1934.3161,295.6563 Q1933.6286,296.7188 1933.6286,298.8125 Q1933.6286,300.9063 1934.3161,301.9844 Q1935.0036,303.0469 1936.3474,303.0469 Q1936.9724,303.0469 1937.5661,302.7813 Q1938.1599,302.5 1938.7849,301.9219 L1938.7849,304.6406 Z " fill="#000000"/><text fill="#000000" font-family="sans-serif" font-size="14" lengthAdjust="spacing" textLength="48.6172" x="1956.3161" y="303.8467">Cedula</text><line style="stroke:#181818;stroke-width:0.5;" x1="1805.05" x2="2123.6994" y1="315" y2="315"/><text fill="#000000" font-family="sans-serif" font-size="14" lengthAdjust="spacing" textLength="128.5225" x="1810.05" y="331.9951">+idCedula : String</text><text fill="#000000" font-family="sans-serif" font-size="14" lengthAdjust="spacing" textLength="124.9541" x="1810.05" y="348.292">+idEleitor : String</text><text fill="#000000" font-family="sans-serif" font-size="14" lengthAdjust="spacing" textLength="129.9854" x="1810.05" y="364.5889">+idEleicao : String</text><text fill="#000000" font-family="sans-serif" font-size="14" lengthAdjust="spacing" textLength="161.417" x="1810.05" y="380.8857">+confirmado : Boolean</text><line style="stroke:#181818;stroke-width:0.5;" x1="1805.05" x2="2123.6994" y1="388.1875" y2="388.1875"/><text fill="#000000" font-family="sans-serif" font-size="14" lengthAdjust="spacing" textLength="308.6494" x="1810.05" y="405.1826">+adicionarVoto(idCargo, numeroCandidato)</text><text fill="#000000" font-family="sans-serif" font-size="14" lengthAdjust="spacing" textLength="90.3369" x="1810.05" y="421.4795">+confirmar()</text></g><!--class Voto--><g class="entity" data-entity="Voto" data-source-line="87" data-uid="ent0009" id="entity_Voto"><rect fill="#F1F1F1" height="162.0781" rx="2.5" ry="2.5" style="stroke:#181818;stroke-width:0.5;" width="219.8672" x="2291.7" y="233.85"/><ellipse cx="2381.285" cy="249.85" fill="#ADD1B2" rx="11" ry="11" style="stroke:#181818;stroke-width:1;"/><path d="M2384.2537,255.4906 Q2383.6756,255.7875 2383.035,255.9281 Q2382.3943,256.0844 2381.6912,256.0844 Q2379.1912,256.0844 2377.8631,254.4438 Q2376.5506,252.7875 2376.5506,249.6625 Q2376.5506,246.5375 2377.8631,244.8813 Q2379.1912,243.225 2381.6912,243.225 Q2382.3943,243.225 2383.035,243.3813 Q2383.6912,243.5375 2384.2537,243.8344 L2384.2537,246.5531 Q2383.6287,245.975 2383.035,245.7094 Q2382.4412,245.4281 2381.8162,245.4281 Q2380.4725,245.4281 2379.785,246.5063 Q2379.0975,247.5688 2379.0975,249.6625 Q2379.0975,251.7563 2379.785,252.8344 Q2380.4725,253.8969 2381.8162,253.8969 Q2382.4412,253.8969 2383.035,253.6313 Q2383.6287,253.35 2384.2537,252.7719 L2384.2537,255.4906 Z " fill="#000000"/><text fill="#000000" font-family="sans-serif" font-size="14" lengthAdjust="spacing" textLength="32.1973" x="2401.785" y="254.6967">Voto</text><line style="stroke:#181818;stroke-width:0.5;" x1="2292.7" x2="2510.5672" y1="265.85" y2="265.85"/><text fill="#000000" font-family="sans-serif" font-size="14" lengthAdjust="spacing" textLength="112.1025" x="2297.7" y="282.8451">+idVoto : String</text><text fill="#000000" font-family="sans-serif" font-size="14" lengthAdjust="spacing" textLength="128.5225" x="2297.7" y="299.142">+idCedula : String</text><text fill="#000000" font-family="sans-serif" font-size="14" lengthAdjust="spacing" textLength="121.4678" x="2297.7" y="315.4389">+idCargo : String</text><text fill="#000000" font-family="sans-serif" font-size="14" lengthAdjust="spacing" textLength="146.9795" x="2297.7" y="331.7357">+idCandidato: String</text><text fill="#000000" font-family="sans-serif" font-size="14" lengthAdjust="spacing" textLength="207.8672" x="2297.7" y="348.0326">+numeroDoCandidato: String</text><text fill="#000000" font-family="sans-serif" font-size="14" lengthAdjust="spacing" textLength="187.7012" x="2297.7" y="364.3295">+registradoEm : DateTime</text><text fill="#000000" font-family="sans-serif" font-size="14" lengthAdjust="spacing" textLength="107.2832" x="2297.7" y="380.6264">+idUEv : String</text><line style="stroke:#181818;stroke-width:0.5;" x1="2292.7" x2="2510.5672" y1="387.9281" y2="387.9281"/></g><!--class Resultado--><g class="entity" data-entity="Resultado" data-source-line="99" data-uid="ent0010" id="entity_Resultado"><rect fill="#F1F1F1" height="194.6719" rx="2.5" ry="2.5" style="stroke:#181818;stroke-width:0.5;" width="222.6768" x="37.46" y="315.55"/><ellipse cx="109.5894" cy="331.55" fill="#ADD1B2" rx="11" ry="11" style="stroke:#181818;stroke-width:1;"/><path d="M112.5581,337.1906 Q111.98,337.4875 111.3394,337.6281 Q110.6988,337.7844 109.9956,337.7844 Q107.4956,337.7844 106.1675,336.1437 Q104.855,334.4875 104.855,331.3625 Q104.855,328.2375 106.1675,326.5812 Q107.4956,324.925 109.9956,324.925 Q110.6988,324.925 111.3394,325.0812 Q111.9956,325.2375 112.5581,325.5344 L112.5581,328.2531 Q111.9331,327.675 111.3394,327.4094 Q110.7456,327.1281 110.1206,327.1281 Q108.7769,327.1281 108.0894,328.2062 Q107.4019,329.2687 107.4019,331.3625 Q107.4019,333.4562 108.0894,334.5344 Q108.7769,335.5969 110.1206,335.5969 Q110.7456,335.5969 111.3394,335.3312 Q111.9331,335.05 112.5581,334.4719 L112.5581,337.1906 Z " fill="#000000"/><text fill="#000000" font-family="sans-serif" font-size="14" lengthAdjust="spacing" textLength="69.918" x="130.0894" y="336.3967">Resultado</text><line style="stroke:#181818;stroke-width:0.5;" x1="38.46" x2="259.1368" y1="347.55" y2="347.55"/><text fill="#000000" font-family="sans-serif" font-size="14" lengthAdjust="spacing" textLength="149.8232" x="43.46" y="364.5451">+idResultado : String</text><text fill="#000000" font-family="sans-serif" font-size="14" lengthAdjust="spacing" textLength="129.9854" x="43.46" y="380.842">+idEleicao : String</text><text fill="#000000" font-family="sans-serif" font-size="14" lengthAdjust="spacing" textLength="102.833" x="43.46" y="397.1389">+idUEv: String</text><text fill="#000000" font-family="sans-serif" font-size="14" lengthAdjust="spacing" textLength="204.8525" x="43.46" y="413.4357">+totaisPorCandidato: Integer</text><text fill="#000000" font-family="sans-serif" font-size="14" lengthAdjust="spacing" textLength="195.125" x="43.46" y="429.7326">+contagemBranco : Integer</text><text fill="#000000" font-family="sans-serif" font-size="14" lengthAdjust="spacing" textLength="177.8506" x="43.46" y="446.0295">+contagemNulo : Integer</text><text fill="#000000" font-family="sans-serif" font-size="14" lengthAdjust="spacing" textLength="210.6768" x="43.46" y="462.3264">+contagemAusentes : Integer</text><line style="stroke:#181818;stroke-width:0.5;" x1="38.46" x2="259.1368" y1="469.6281" y2="469.6281"/><text fill="#000000" font-family="sans-serif" font-size="14" lengthAdjust="spacing" textLength="135.2559" x="43.46" y="486.6232">+calcularDe(votes)</text><text fill="#000000" font-family="sans-serif" font-size="14" lengthAdjust="spacing" textLength="115.418" x="43.46" y="502.9201">+mesclar(other)</text></g><!--class Relatorio--><g class="entity" data-entity="Relatorio" data-source-line="123" data-uid="ent0011" id="entity_Relatorio"><rect fill="#F1F1F1" height="129.4844" rx="2.5" ry="2.5" style="stroke:#181818;stroke-width:0.5;" width="283.6055" x="7" y="151.15"/><ellipse cx="113.0151" cy="167.15" fill="#ADD1B2" rx="11" ry="11" style="stroke:#181818;stroke-width:1;"/><path d="M115.9839,172.7906 Q115.4058,173.0875 114.7651,173.2281 Q114.1245,173.3844 113.4214,173.3844 Q110.9214,173.3844 109.5933,171.7437 Q108.2808,170.0875 108.2808,166.9625 Q108.2808,163.8375 109.5933,162.1812 Q110.9214,160.525 113.4214,160.525 Q114.1245,160.525 114.7651,160.6812 Q115.4214,160.8375 115.9839,161.1344 L115.9839,163.8531 Q115.3589,163.275 114.7651,163.0094 Q114.1714,162.7281 113.5464,162.7281 Q112.2026,162.7281 111.5151,163.8062 Q110.8276,164.8687 110.8276,166.9625 Q110.8276,169.0562 111.5151,170.1344 Q112.2026,171.1969 113.5464,171.1969 Q114.1714,171.1969 114.7651,170.9312 Q115.3589,170.65 115.9839,170.0719 L115.9839,172.7906 Z " fill="#000000"/><text fill="#000000" font-family="sans-serif" font-size="14" lengthAdjust="spacing" textLength="63.0752" x="133.5151" y="171.9967">Relatorio</text><line style="stroke:#181818;stroke-width:0.5;" x1="8" x2="289.6055" y1="183.15" y2="183.15"/><text fill="#000000" font-family="sans-serif" font-size="14" lengthAdjust="spacing" textLength="142.9805" x="13" y="200.1451">+idRelatorio : String</text><text fill="#000000" font-family="sans-serif" font-size="14" lengthAdjust="spacing" textLength="93.96" x="13" y="216.442">+tipo : String</text><text fill="#000000" font-family="sans-serif" font-size="14" lengthAdjust="spacing" textLength="271.6055" x="13" y="232.7389">+formato : String 'ex: tabela, gr&#225;fico...</text><line style="stroke:#181818;stroke-width:0.5;" x1="8" x2="289.6055" y1="240.0406" y2="240.0406"/><text fill="#000000" font-family="sans-serif" font-size="14" lengthAdjust="spacing" textLength="112.9775" x="13" y="257.0357">+gerar(params)</text><text fill="#000000" font-family="sans-serif" font-size="14" lengthAdjust="spacing" textLength="66.6299" x="13" y="273.3326">+baixar()</text></g><!--class ObjetoSincronizacao--><g class="entity" data-entity="ObjetoSincronizacao" data-source-line="133" data-uid="ent0012" id="entity_ObjetoSincronizacao"><rect fill="#F1F1F1" height="145.7813" rx="2.5" ry="2.5" style="stroke:#181818;stroke-width:0.5;" width="224.3721" x="902.11" y="7"/><ellipse cx="939.0286" cy="23" fill="#ADD1B2" rx="11" ry="11" style="stroke:#181818;stroke-width:1;"/><path d="M941.9974,28.6406 Q941.4192,28.9375 940.7786,29.0781 Q940.138,29.2344 939.4349,29.2344 Q936.9349,29.2344 935.6067,27.5938 Q934.2942,25.9375 934.2942,22.8125 Q934.2942,19.6875 935.6067,18.0313 Q936.9349,16.375 939.4349,16.375 Q940.138,16.375 940.7786,16.5313 Q941.4349,16.6875 941.9974,16.9844 L941.9974,19.7031 Q941.3724,19.125 940.7786,18.8594 Q940.1849,18.5781 939.5599,18.5781 Q938.2161,18.5781 937.5286,19.6563 Q936.8411,20.7188 936.8411,22.8125 Q936.8411,24.9063 937.5286,25.9844 Q938.2161,27.0469 939.5599,27.0469 Q940.1849,27.0469 940.7786,26.7813 Q941.3724,26.5 941.9974,25.9219 L941.9974,28.6406 Z " fill="#000000"/><text fill="#000000" font-family="sans-serif" font-size="14" lengthAdjust="spacing" textLength="143.6641" x="957.8994" y="27.8467">ObjetoSincronizacao</text><line style="stroke:#181818;stroke-width:0.5;" x1="903.11" x2="1125.4821" y1="39" y2="39"/><text fill="#000000" font-family="sans-serif" font-size="14" lengthAdjust="spacing" textLength="127.292" x="908.11" y="55.9951">+idPacote : String</text><text fill="#000000" font-family="sans-serif" font-size="14" lengthAdjust="spacing" textLength="129.9854" x="908.11" y="72.292">+idEleicao : String</text><text fill="#000000" font-family="sans-serif" font-size="14" lengthAdjust="spacing" textLength="212.3721" x="908.11" y="88.5889">+baseListaCandidatos : String</text><text fill="#000000" font-family="sans-serif" font-size="14" lengthAdjust="spacing" textLength="194.5098" x="908.11" y="104.8857">+baseListaEleitores : String</text><text fill="#000000" font-family="sans-serif" font-size="14" lengthAdjust="spacing" textLength="159.3594" x="908.11" y="121.1826">+criadoEm : DateTime</text><line style="stroke:#181818;stroke-width:0.5;" x1="903.11" x2="1125.4821" y1="128.4844" y2="128.4844"/><text fill="#000000" font-family="sans-serif" font-size="14" lengthAdjust="spacing" textLength="134.2646" x="908.11" y="145.4795">+aplicarAUEv(UEv)</text></g><!--link UEg to UEv--><g class="link" data-entity-1="UEg" data-entity-2="UEv" data-source-line="145" data-uid="lnk13" id="link_UEg_UEv"><path codeLine="145" d="M784.56,294.31 C884.1,293.05 1013.6,286.49 1126.48,264.89 C1173,255.99 1183.18,247.64 1227.48,230.89 C1243.42,224.86 1260.18,218.17 1276.5,211.47" fill="none" id="UEg-UEv" style="stroke:#181818;stroke-width:1;"/><text fill="#000000" font-family="sans-serif" font-size="13" lengthAdjust="spacing" textLength="56.5576" x="986.29" y="260.9569">gerencia</text><text fill="#000000" font-family="sans-serif" font-size="13" lengthAdjust="spacing" textLength="8.271" x="792.165" y="306.8296">1</text><text fill="#000000" font-family="sans-serif" font-size="13" lengthAdjust="spacing" textLength="41.3486" x="1227.5292" y="226.8774">0..100</text></g><!--link UEv to UEg--><g class="link" data-entity-1="UEv" data-entity-2="UEg" data-source-line="159" data-uid="lnk24" id="link_UEv_UEg"><path codeLine="159" d="M1276.62,183.2 C1179.89,198.59 1031.12,222.44 902.11,243.89 C864,250.22 823.01,257.17 784.45,263.76" fill="none" id="UEv-UEg" style="stroke:#181818;stroke-width:1;"/><text fill="#000000" font-family="sans-serif" font-size="13" lengthAdjust="spacing" textLength="72.541" x="978.29" y="203.9569">pertence_a</text><text fill="#000000" font-family="sans-serif" font-size="13" lengthAdjust="spacing" textLength="23.0356" x="1245.8626" y="196.8709">0..*</text><text fill="#000000" font-family="sans-serif" font-size="13" lengthAdjust="spacing" textLength="8.271" x="792.05" y="274.8953">1</text></g><!--link UEg to Eleicao--><g class="link" data-entity-1="UEg" data-entity-2="Eleicao" data-source-line="146" data-uid="lnk14" id="link_UEg_Eleicao"><path codeLine="146" d="M784.46,354.61 C828.99,371.79 875.88,389.88 915.53,405.18" fill="none" id="UEg-Eleicao" style="stroke:#181818;stroke-width:1;"/><text fill="#000000" font-family="sans-serif" font-size="13" lengthAdjust="spacing" textLength="56.5576" x="815.11" y="362.9569">gerencia</text><text fill="#000000" font-family="sans-serif" font-size="13" lengthAdjust="spacing" textLength="8.271" x="792.0605" y="369.8619">1</text><text fill="#000000" font-family="sans-serif" font-size="13" lengthAdjust="spacing" textLength="23.0356" x="885.123" y="415.2217">0..*</text></g><!--reverse link UEg to ObjetoSincronizacao--><g class="link" data-entity-1="UEg" data-entity-2="ObjetoSincronizacao" data-source-line="147" data-uid="lnk15" id="link_UEg_ObjetoSincronizacao"><path codeLine="147" d="M794.9651,189.3578 C804.9451,183.7578 804.4,184.14 814.11,178.89 C842.21,163.67 872.95,147.95 901.7,133.63" fill="none" id="UEg-backto-ObjetoSincronizacao" style="stroke:#181818;stroke-width:1;"/><polygon fill="none" points="784.5,195.23,791.6899,195.7823,794.9651,189.3578,787.7751,188.8056,784.5,195.23" style="stroke:#181818;stroke-width:1;"/><text fill="#000000" font-family="sans-serif" font-size="13" lengthAdjust="spacing" textLength="24.0703" x="831.11" y="146.9569">cria</text><text fill="#000000" font-family="sans-serif" font-size="13" lengthAdjust="spacing" textLength="8.271" x="792.1023" y="203.26">1</text><text fill="#000000" font-family="sans-serif" font-size="13" lengthAdjust="spacing" textLength="23.0356" x="871.139" y="149.4327">0..*</text></g><!--link Eleicao to Cargo--><g class="link" data-entity-1="Eleicao" data-entity-2="Cargo" data-source-line="149" data-uid="lnk16" id="link_Eleicao_Cargo"><path codeLine="149" d="M1113.07,451.28 C1157.18,454.99 1209.94,459.3 1257.48,462.89 C1350.1,469.87 1455,477 1533.46,482.18" fill="none" id="Eleicao-Cargo" style="stroke:#181818;stroke-width:1;"/><text fill="#000000" font-family="sans-serif" font-size="13" lengthAdjust="spacing" textLength="49.0991" x="1167.48" y="450.9569">cont&#233;m</text><text fill="#000000" font-family="sans-serif" font-size="13" lengthAdjust="spacing" textLength="8.271" x="1120.6277" y="464.5188">1</text><text fill="#000000" font-family="sans-serif" font-size="13" lengthAdjust="spacing" textLength="24.8066" x="1501.0027" y="494.2376">1..8</text></g><!--link Cargo to Candidato--><g class="link" data-entity-1="Cargo" data-entity-2="Candidato" data-source-line="150" data-uid="lnk17" id="link_Cargo_Candidato"><path codeLine="150" d="M1774.54,492.07 C1942.21,492.26 2255.28,482.14 2511.57,413.89 C2557.58,401.63 2605.98,380.16 2645.16,360.33" fill="none" id="Cargo-Candidato" style="stroke:#181818;stroke-width:1;"/><text fill="#000000" font-family="sans-serif" font-size="13" lengthAdjust="spacing" textLength="25.7588" x="2195.7" y="457.9569">tem</text><text fill="#000000" font-family="sans-serif" font-size="13" lengthAdjust="spacing" textLength="8.271" x="1782.1447" y="504.7307">1</text><text fill="#000000" font-family="sans-serif" font-size="13" lengthAdjust="spacing" textLength="23.0356" x="2614.4082" y="376.7863">0..*</text></g><!--reverse link Candidato to UEv--><g class="link" data-entity-1="Candidato" data-entity-2="UEv" data-source-line="151" data-uid="lnk18" id="link_Candidato_UEv"><path codeLine="151" d="M2639.7247,265.9347 C2600.6347,246.0047 2557.67,227.39 2511.57,215.89 C2142.67,123.87 1685.39,143.01 1484.45,157.81" fill="none" id="Candidato-backto-UEv" style="stroke:#181818;stroke-width:1;"/><polygon fill="#181818" points="2645.07,268.66,2638.8689,261.0085,2640.6156,266.3889,2635.2351,268.1356,2645.07,268.66" style="stroke:#181818;stroke-width:1;"/><text fill="#000000" font-family="sans-serif" font-size="13" lengthAdjust="spacing" textLength="105.0283" x="2155.7" y="155.9569">distribuido_para</text><text fill="#000000" font-family="sans-serif" font-size="13" lengthAdjust="spacing" textLength="8.271" x="2629.4036" y="277.2832">1</text><text fill="#000000" font-family="sans-serif" font-size="13" lengthAdjust="spacing" textLength="23.0356" x="1492.2015" y="169.7751">0..*</text></g><!--link UEv to Cedula--><g class="link" data-entity-1="UEv" data-entity-2="Cedula" data-source-line="153" data-uid="lnk19" id="link_UEv_Cedula"><path codeLine="153" d="M1483.4,232.02 C1499.82,240.88 1516.94,249.21 1533.71,255.89 C1620.16,290.32 1721.34,314.59 1803.78,330.6" fill="none" id="UEv-Cedula" style="stroke:#181818;stroke-width:1;"/><text fill="#000000" font-family="sans-serif" font-size="13" lengthAdjust="spacing" textLength="50.3877" x="1628.88" y="251.9569">registra</text><text fill="#000000" font-family="sans-serif" font-size="13" lengthAdjust="spacing" textLength="8.271" x="1485.603" y="251.5835">1</text><text fill="#000000" font-family="sans-serif" font-size="13" lengthAdjust="spacing" textLength="23.0356" x="1772.9828" y="341.8638">0..*</text></g><!--link Eleitor to Cedula--><g class="link" data-entity-1="Eleitor" data-entity-2="Cedula" data-source-line="154" data-uid="lnk20" id="link_Eleitor_Cedula"><path codeLine="154" d="M1503.91,355.89 C1591.07,355.89 1709.05,355.89 1803.63,355.89" fill="none" id="Eleitor-Cedula" style="stroke:#181818;stroke-width:1;"/><text fill="#000000" font-family="sans-serif" font-size="13" lengthAdjust="spacing" textLength="24.0703" x="1641.88" y="351.9569">cria</text><text fill="#000000" font-family="sans-serif" font-size="13" lengthAdjust="spacing" textLength="8.271" x="1511.6764" y="368.4181">1</text><text fill="#000000" font-family="sans-serif" font-size="13" lengthAdjust="spacing" textLength="23.0356" x="1772.826" y="368.2997">0..*</text></g><!--link Cedula to Voto--><g class="link" data-entity-1="Cedula" data-entity-2="Voto" data-source-line="155" data-uid="lnk21" id="link_Cedula_Voto"><path codeLine="155" d="M2124.98,340.85 C2180.3,335.64 2241.01,329.92 2291.35,325.18" fill="none" id="Cedula-Voto" style="stroke:#181818;stroke-width:1;"/><text fill="#000000" font-family="sans-serif" font-size="13" lengthAdjust="spacing" textLength="49.0991" x="2183.7" y="323.9569">cont&#233;m</text><text fill="#000000" font-family="sans-serif" font-size="13" lengthAdjust="spacing" textLength="8.271" x="2132.4448" y="352.5782">1</text><text fill="#000000" font-family="sans-serif" font-size="13" lengthAdjust="spacing" textLength="23.0356" x="2260.5494" y="338.3909">1..*</text></g><!--link Voto to Candidato--><g class="link" data-entity-1="Voto" data-entity-2="Candidato" data-source-line="156" data-uid="lnk22" id="link_Voto_Candidato"><path codeLine="156" d="M2511.76,314.89 C2555.43,314.89 2604.86,314.89 2645.25,314.89" fill="none" id="Voto-Candidato" style="stroke:#181818;stroke-width:1;"/><text fill="#000000" font-family="sans-serif" font-size="13" lengthAdjust="spacing" textLength="72.4331" x="2542.57" y="310.9569">conta_para</text><text fill="#000000" font-family="sans-serif" font-size="13" lengthAdjust="spacing" textLength="8.271" x="2519.437" y="327.4653">1</text><text fill="#000000" font-family="sans-serif" font-size="13" lengthAdjust="spacing" textLength="24.8066" x="2612.6183" y="327.6542">0..1</text></g><!--link Voto to UEv--><g class="link" data-entity-1="Voto" data-entity-2="UEv" data-source-line="157" data-uid="lnk23" id="link_Voto_UEv"><path codeLine="157" d="M2291.38,294.36 C2240.76,285.14 2179.75,274.44 2124.7,265.89 C1896.74,230.48 1628.21,196.64 1484.58,179.18" fill="none" id="Voto-UEv" style="stroke:#181818;stroke-width:1;"/><text fill="#000000" font-family="sans-serif" font-size="13" lengthAdjust="spacing" textLength="93.7549" x="1917.88" y="215.9569">registrado_em</text><text fill="#000000" font-family="sans-serif" font-size="13" lengthAdjust="spacing" textLength="23.0356" x="2260.5813" y="305.5965">0..*</text><text fill="#000000" font-family="sans-serif" font-size="13" lengthAdjust="spacing" textLength="8.271" x="1492.1821" y="192.6429">1</text></g><!--link Resultado to Eleicao--><g class="link" data-entity-1="Resultado" data-entity-2="Eleicao" data-source-line="160" data-uid="lnk25" id="link_Resultado_Eleicao"><path codeLine="160" d="M260.57,416.89 C319.15,418.99 392.28,421.6 457.61,423.89 C618.11,429.5 804.7,435.84 915.67,439.6" fill="none" id="Resultado-Eleicao" style="stroke:#181818;stroke-width:1;"/><text fill="#000000" font-family="sans-serif" font-size="13" lengthAdjust="spacing" textLength="29.5293" x="606.36" y="419.9569">para</text><text fill="#000000" font-family="sans-serif" font-size="13" lengthAdjust="spacing" textLength="23.0356" x="268.083" y="429.662">0..*</text><text fill="#000000" font-family="sans-serif" font-size="13" lengthAdjust="spacing" textLength="8.271" x="899.8234" y="451.9944">1</text></g><!--link Resultado to UEg--><g class="link" data-entity-1="Resultado" data-entity-2="UEg" data-source-line="161" data-uid="lnk26" id="link_Resultado_UEg"><path codeLine="161" d="M260.6,384.37 C319.23,369.27 392.33,350.46 457.26,333.74" fill="none" id="Resultado-UEg" style="stroke:#181818;stroke-width:1;"/><text fill="#000000" font-family="sans-serif" font-size="13" lengthAdjust="spacing" textLength="105.7646" x="321.61" y="336.9569">consolidado_por</text><text fill="#000000" font-family="sans-serif" font-size="13" lengthAdjust="spacing" textLength="23.0356" x="268.1148" y="395.1603">0..*</text><text fill="#000000" font-family="sans-serif" font-size="13" lengthAdjust="spacing" textLength="8.271" x="441.1484" y="348.2007">1</text></g><!--link ObjetoSincronizacao to UEv--><g class="link" data-entity-1="ObjetoSincronizacao" data-entity-2="UEv" data-source-line="165" data-uid="lnk27" id="link_ObjetoSincronizacao_UEv"><path codeLine="165" d="M1126.57,106.46 C1174.39,117.88 1229.92,131.14 1276.76,142.33" fill="none" id="ObjetoSincronizacao-UEv" style="stroke:#181818;stroke-width:1;"/><text fill="#000000" font-family="sans-serif" font-size="13" lengthAdjust="spacing" textLength="69.2275" x="1157.48" y="111.9569">aplicado_a</text><text fill="#000000" font-family="sans-serif" font-size="13" lengthAdjust="spacing" textLength="8.271" x="1134.3913" y="120.8204">1</text><text fill="#000000" font-family="sans-serif" font-size="13" lengthAdjust="spacing" textLength="23.0356" x="1246.012" y="153.255">0..*</text></g><!--SRC=[ZLVDRjj64BxpAHQ-Y6fjmJwqJOsqW28xG0fRDgmuLsD4ZkHDIAwwknJS57sOeeSYXvoANdhLYtLcboik9Se9OCZax71-llbcE1o82mbB3IM87CMa06FGYFjBSI9k2wZi_VMLMAA6N0aGAz1MQa7NrwXBa7bIuC8AguIMoqShSganir9LYVaWAzA6KcHiScojblFQufjCLJFv4SLfahWJShKKloT2V2jplZmNCrAjbYofL8aTGQ4oAEH7o41rv2KytL-k3SdUL1OfNF6JE3izvQEwiBA4c_bxj6ecgqohoXkuB4dz0Yo-bIMofiQbD5Q39bEfh1QA_W_vO4q-yqQS1s7EkfIIr1U4ZKcLys1Y3yS2YhKoJftIjZ2N7Bn-gt8mbmNAJA4Xa-uIr33veyLatMAoZbCT42frYLhDK4ieTeuEu3Dm_XToMNCTTnEdqrBbwcQnA6J5UBzIga2e_D4slB6jz_nzDRYa2qIOZrX1YPLLLnoemmKquGwwSHAZuPyYpbIM14x3Aftwz9ixXwsiP2P1pz0OKE-KLIb6fzkoJZ2l2qWpzyyTaRGofIHAtw6XN5mX6yT4P9oZxicjhzHHxPhuG_t2xNEy7ZGvzC6saEKUKudk4z1BrINy2_-0iM1hq_47EHkl209-AituDsRs9923itC7CDTI-yi5Pe_0rziCdPMGdxzvjclNi8GeL1OfdMFP5KL1LZb5PJdGvghZl96r0GJ15o1caUT0LzFngHjBhOlNQiTYjfieivDxWblw5lL25Yc50JjK81h6LE3RVUyNAgjTNpmFf9i6OpzsycuMJSInw3rmBzItAZHNtDbjMpH1ktmQFf3-KlAmoY77RaiIzpGXGPQfMTgZOz5CnhPE7kbGf7tS-_7eRHYUNpJjzaUN7siqM7BLcLijcTmuQ5XwB3pQavPMaOaEnVcn4FkxNIOSI6U_4o9ozjMyxv1IjNBLDHDArPD_t_kXAMASpdQyXPnQmHV1zpvYWQNYIqEyYXA8ciUzwfPOlgBfckqqLZYRriM1at5jg16mEo-O051aX7aV1_o9li1qhUX9JrCqbBfEbNr4xP0OY825GrEDwvpP9vcZ0-7ol5BH_k5aN8lBTRSp6-LnXxfEc9DJtSMliKBXM2XNSUJD4nQAHvVjBxERgHUshOdiUkYb192hcKvfqbXEQY2Y0XV0oKG53e9EvNQeHRZwtQxdnKCJPQn_hUMwQsAXg5SYECG0dyu5xJRay5WizURF1Uqrez68bTcuJjqUwCio1_dKfMRF2pRaS0iPrVCh63e7WrS46Mm9QVhFcuc3tUF-sU8XuAQ6tGQZrMl1Ayda4RCFfYwRT-QgOE6OzyGm2mTYR8oYxMJpz-PVD0blk4TdH-BaH1oTZaQqenu9ty445LQakAlopP5eKzvJKgrM7v3dWdDBac0Xs3qRZLuSYJ2mkFKsdyh4ttTznszNYwmJxbdlPQleizXknRbwuB8d2SjtJ8RX6NYUX1V10JsNGtCNPK0gpMWE2RZR6Dvk_6x4-B2yflVZp8K4sbdxGDdww7VKU4QiKDDUck439EqexIgsLNCU3wbvUzpSohrl2JUbcJZxSofwy3HEN-CYy2BfOq4NLf-d9ojv0_OrfOdEThXunDI_bA3rWY8x5-7BwgN_e0gghmbAP2Ng1LuIN8wYu1up_1sPjOs80aFN7NIrNL3QpVObBxH1VUnRIznDlpkcd-_vvuS3rfI8NalDrmAl9yxkK6p-eqrRHOaGX8gstINOpJ-CSdet_N5uq7P3rNEnkxXvk_pqsTbm-_IRSeNqKIpMx2QlL_JM8ssDhWheYizFHFuocP4IGRZc5O_-9fjFp7pokFcyneAFw0lTS3mdFuje0Q8xTcEOd8OgGJqO8UwFBg_5gxlnT793pgVtLpSpWK-hOlCvatoQsjzMEFIrDB8aqDsOem__y7R-7m00]--></g></svg>