<svg xmlns="http://www.w3.org/2000/svg" xmlns:xlink="http://www.w3.org/1999/xlink" contentStyleType="text/css" data-diagram-type="SEQUENCE" height="1155px" preserveAspectRatio="none" style="width:1536px;height:1155px;background:#FFFFFF;" version="1.1" viewBox="0 0 1536 1155" width="1536px" zoomAndPan="magnify"><title>UC1 - Realizar Votacao</title><defs/><g><text fill="#000000" font-family="sans-serif" font-size="14" font-weight="bold" lengthAdjust="spacing" textLength="179.5938" x="680.0798" y="27.9951">UC1 - Realizar Votacao</text><rect fill="none" height="75.3984" style="stroke:#000000;stroke-width:1.5;" width="731.4238" x="10" y="252.125"/><rect fill="none" height="337.5938" style="stroke:#000000;stroke-width:1.5;" width="1520.7534" x="10" y="370.6563"/><g><title>Eleitor</title><rect fill="#000000" fill-opacity="0.00000" height="956.25" width="8" x="41.5244" y="118.5938"/><line style="stroke:#181818;stroke-width:0.5;stroke-dasharray:5,5;" x1="45" x2="45" y1="118.5938" y2="1074.8438"/></g><g><title>UEv</title><rect fill="#000000" fill-opacity="0.00000" height="956.25" width="8" x="465.7886" y="118.5938"/><line style="stroke:#181818;stroke-width:0.5;stroke-dasharray:5,5;" x1="469.0996" x2="469.0996" y1="118.5938" y2="1074.8438"/></g><g><title>UEg</title><rect fill="#000000" fill-opacity="0.00000" height="956.25" width="8" x="706.4341" y="118.5938"/><line style="stroke:#181818;stroke-width:0.5;stroke-dasharray:5,5;" x1="709.4443" x2="709.4443" y1="118.5938" y2="1074.8438"/></g><g><title>Eleitor</title><rect fill="#000000" fill-opacity="0.00000" height="956.25" width="8" x="994.0078" y="118.5938"/><line style="stroke:#181818;stroke-width:0.5;stroke-dasharray:5,5;" x1="997.4834" x2="997.4834" y1="118.5938" y2="1074.8438"/></g><g><title>Candidato</title><rect fill="#000000" fill-opacity="0.00000" height="956.25" width="8" x="1076.2944" y="118.5938"/><line style="stroke:#181818;stroke-width:0.5;stroke-dasharray:5,5;" x1="1079.5322" x2="1079.5322" y1="118.5938" y2="1074.8438"/></g><g><title>Cedula</title><rect fill="#000000" fill-opacity="0.00000" height="956.25" width="8" x="1160.3652" y="118.5938"/><line style="stroke:#181818;stroke-width:0.5;stroke-dasharray:5,5;" x1="1164.0566" x2="1164.0566" y1="118.5938" y2="1074.8438"/></g><g><title>Voto</title><rect fill="#000000" fill-opacity="0.00000" height="956.25" width="8" x="1493.6548" y="118.5938"/><line style="stroke:#181818;stroke-width:0.5;stroke-dasharray:5,5;" x1="1497.5562" x2="1497.5562" y1="118.5938" y2="1074.8438"/></g><g class="participant participant-head" data-participant="Eleitor"><text fill="#000000" font-family="sans-serif" font-size="14" lengthAdjust="spacing" textLength="45.0488" x="20" y="115.292">Eleitor</text><ellipse cx="45.5244" cy="50.7969" fill="#E2E2F0" rx="8" ry="8" style="stroke:#181818;stroke-width:0.5;"/><path d="M45.5244,58.7969 L45.5244,85.7969 M32.5244,66.7969 L58.5244,66.7969 M45.5244,85.7969 L32.5244,100.7969 M45.5244,85.7969 L58.5244,100.7969" fill="none" style="stroke:#181818;stroke-width:0.5;"/></g><g class="participant participant-tail" data-participant="Eleitor"><text fill="#000000" font-family="sans-serif" font-size="14" lengthAdjust="spacing" textLength="45.0488" x="20" y="1086.8389">Eleitor</text><ellipse cx="45.5244" cy="1098.6406" fill="#E2E2F0" rx="8" ry="8" style="stroke:#181818;stroke-width:0.5;"/><path d="M45.5244,1106.6406 L45.5244,1133.6406 M32.5244,1114.6406 L58.5244,1114.6406 M45.5244,1133.6406 L32.5244,1148.6406 M45.5244,1133.6406 L58.5244,1148.6406" fill="none" style="stroke:#181818;stroke-width:0.5;"/></g><g class="participant participant-head" data-participant="UEv"><rect fill="#E2E2F0" height="30.2969" rx="2.5" ry="2.5" style="stroke:#181818;stroke-width:0.5;" width="41.3779" x="449.0996" y="87.2969"/><text fill="#000000" font-family="sans-serif" font-size="14" lengthAdjust="spacing" textLength="27.3779" x="456.0996" y="107.292">UEv</text></g><g class="participant participant-tail" data-participant="UEv"><rect fill="#E2E2F0" height="30.2969" rx="2.5" ry="2.5" style="stroke:#181818;stroke-width:0.5;" width="41.3779" x="449.0996" y="1073.8438"/><text fill="#000000" font-family="sans-serif" font-size="14" lengthAdjust="spacing" textLength="27.3779" x="456.0996" y="1093.8389">UEv</text></g><g class="participant participant-head" data-participant="UEg"><rect fill="#E2E2F0" height="30.2969" rx="2.5" ry="2.5" style="stroke:#181818;stroke-width:0.5;" width="41.9795" x="689.4443" y="87.2969"/><text fill="#000000" font-family="sans-serif" font-size="14" lengthAdjust="spacing" textLength="27.9795" x="696.4443" y="107.292">UEg</text></g><g class="participant participant-tail" data-participant="UEg"><rect fill="#E2E2F0" height="30.2969" rx="2.5" ry="2.5" style="stroke:#181818;stroke-width:0.5;" width="41.9795" x="689.4443" y="1073.8438"/><text fill="#000000" font-family="sans-serif" font-size="14" lengthAdjust="spacing" textLength="27.9795" x="696.4443" y="1093.8389">UEg</text></g><g class="participant participant-head" data-participant="EleitorClass"><rect fill="#E2E2F0" height="30.2969" rx="2.5" ry="2.5" style="stroke:#181818;stroke-width:0.5;" width="59.0488" x="968.4834" y="87.2969"/><text fill="#000000" font-family="sans-serif" font-size="14" lengthAdjust="spacing" textLength="45.0488" x="975.4834" y="107.292">Eleitor</text></g><g class="participant participant-tail" data-participant="EleitorClass"><rect fill="#E2E2F0" height="30.2969" rx="2.5" ry="2.5" style="stroke:#181818;stroke-width:0.5;" width="59.0488" x="968.4834" y="1073.8438"/><text fill="#000000" font-family="sans-serif" font-size="14" lengthAdjust="spacing" textLength="45.0488" x="975.4834" y="1093.8389">Eleitor</text></g><g class="participant participant-head" data-participant="Candidato"><rect fill="#E2E2F0" height="30.2969" rx="2.5" ry="2.5" style="stroke:#181818;stroke-width:0.5;" width="85.5244" x="1037.5322" y="87.2969"/><text fill="#000000" font-family="sans-serif" font-size="14" lengthAdjust="spacing" textLength="71.5244" x="1044.5322" y="107.292">Candidato</text></g><g class="participant participant-tail" data-participant="Candidato"><rect fill="#E2E2F0" height="30.2969" rx="2.5" ry="2.5" style="stroke:#181818;stroke-width:0.5;" width="85.5244" x="1037.5322" y="1073.8438"/><text fill="#000000" font-family="sans-serif" font-size="14" lengthAdjust="spacing" textLength="71.5244" x="1044.5322" y="1093.8389">Candidato</text></g><g class="participant participant-head" data-participant="Cedula"><rect fill="#E2E2F0" height="30.2969" rx="2.5" ry="2.5" style="stroke:#181818;stroke-width:0.5;" width="62.6172" x="1133.0566" y="87.2969"/><text fill="#000000" font-family="sans-serif" font-size="14" lengthAdjust="spacing" textLength="48.6172" x="1140.0566" y="107.292">Cedula</text></g><g class="participant participant-tail" data-participant="Cedula"><rect fill="#E2E2F0" height="30.2969" rx="2.5" ry="2.5" style="stroke:#181818;stroke-width:0.5;" width="62.6172" x="1133.0566" y="1073.8438"/><text fill="#000000" font-family="sans-serif" font-size="14" lengthAdjust="spacing" textLength="48.6172" x="1140.0566" y="1093.8389">Cedula</text></g><g class="participant participant-head" data-participant="Voto"><rect fill="#E2E2F0" height="30.2969" rx="2.5" ry="2.5" style="stroke:#181818;stroke-width:0.5;" width="46.1973" x="1474.5562" y="87.2969"/><text fill="#000000" font-family="sans-serif" font-size="14" lengthAdjust="spacing" textLength="32.1973" x="1481.5562" y="107.292">Voto</text></g><g class="participant participant-tail" data-participant="Voto"><rect fill="#E2E2F0" height="30.2969" rx="2.5" ry="2.5" style="stroke:#181818;stroke-width:0.5;" width="46.1973" x="1474.5562" y="1073.8438"/><text fill="#000000" font-family="sans-serif" font-size="14" lengthAdjust="spacing" textLength="32.1973" x="1481.5562" y="1093.8389">Voto</text></g><g class="message" data-participant-1="Eleitor" data-participant-2="UEv"><polygon fill="#181818" points="457.7886,145.7266,467.7886,149.7266,457.7886,153.7266,461.7886,149.7266" style="stroke:#181818;stroke-width:1;"/><line style="stroke:#181818;stroke-width:1;" x1="45.5244" x2="463.7886" y1="149.7266" y2="149.7266"/><text fill="#000000" font-family="sans-serif" font-size="13" lengthAdjust="spacing" textLength="125.29" x="52.5244" y="144.6606">iniciarSessaoVoto()</text></g><g class="message" data-participant-1="UEv" data-participant-2="UEg"><polygon fill="#181818" points="698.4341,174.8594,708.4341,178.8594,698.4341,182.8594,702.4341,178.8594" style="stroke:#181818;stroke-width:1;"/><line style="stroke:#181818;stroke-width:1;" x1="469.7886" x2="704.4341" y1="178.8594" y2="178.8594"/><text fill="#000000" font-family="sans-serif" font-size="13" lengthAdjust="spacing" textLength="144.6631" x="476.7886" y="173.7935">solicitarIdentificacao()</text></g><g class="message" data-participant-1="UEg" data-participant-2="EleitorClass"><polygon fill="#181818" points="986.0078,203.9922,996.0078,207.9922,986.0078,211.9922,990.0078,207.9922" style="stroke:#181818;stroke-width:1;"/><line style="stroke:#181818;stroke-width:1;" x1="710.4341" x2="992.0078" y1="207.9922" y2="207.9922"/><text fill="#000000" font-family="sans-serif" font-size="13" lengthAdjust="spacing" textLength="263.5737" x="717.4341" y="202.9263">validarElegibilidade(numeroDocumento)</text></g><g class="message" data-participant-1="EleitorClass" data-participant-2="UEg"><polygon fill="#181818" points="721.4341,233.125,711.4341,237.125,721.4341,241.125,717.4341,237.125" style="stroke:#181818;stroke-width:1;"/><line style="stroke:#181818;stroke-width:1;stroke-dasharray:2,2;" x1="715.4341" x2="997.0078" y1="237.125" y2="237.125"/><text fill="#000000" font-family="sans-serif" font-size="13" lengthAdjust="spacing" textLength="138.5693" x="727.4341" y="232.0591">elegivel / naoElegivel</text></g><path d="M10,252.125 L74.4429,252.125 L74.4429,259.2578 L64.4429,269.2578 L10,269.2578 L10,252.125" fill="#EEEEEE" style="stroke:#000000;stroke-width:1.5;"/><rect fill="none" height="75.3984" style="stroke:#000000;stroke-width:1.5;" width="731.4238" x="10" y="252.125"/><text fill="#000000" font-family="sans-serif" font-size="13" font-weight="bold" lengthAdjust="spacing" textLength="19.4429" x="25" y="265.1919">alt</text><text fill="#000000" font-family="sans-serif" font-size="11" font-weight="bold" lengthAdjust="spacing" textLength="130.0181" x="89.4429" y="264.3354">[Eleitor nao elegivel]</text><g class="message" data-participant-1="UEg" data-participant-2="UEv"><polygon fill="#181818" points="480.7886,286.3906,470.7886,290.3906,480.7886,294.3906,476.7886,290.3906" style="stroke:#181818;stroke-width:1;"/><line style="stroke:#181818;stroke-width:1;" x1="474.7886" x2="709.4341" y1="290.3906" y2="290.3906"/><text fill="#000000" font-family="sans-serif" font-size="13" lengthAdjust="spacing" textLength="157.5869" x="486.7886" y="285.3247">informarNaoHabilitado()</text></g><g class="message" data-participant-1="UEv" data-participant-2="Eleitor"><polygon fill="#181818" points="56.5244,315.5234,46.5244,319.5234,56.5244,323.5234,52.5244,319.5234" style="stroke:#181818;stroke-width:1;"/><line style="stroke:#181818;stroke-width:1;" x1="50.5244" x2="468.7886" y1="319.5234" y2="319.5234"/><text fill="#000000" font-family="sans-serif" font-size="13" lengthAdjust="spacing" textLength="283.1689" x="62.5244" y="314.4575">mostrarMensagem("Eleitor n&#227;o habilitado")</text></g><g class="message" data-participant-1="UEv" data-participant-2="Eleitor"><polygon fill="#181818" points="56.5244,351.6563,46.5244,355.6563,56.5244,359.6563,52.5244,355.6563" style="stroke:#181818;stroke-width:1;"/><line style="stroke:#181818;stroke-width:1;" x1="50.5244" x2="468.7886" y1="355.6563" y2="355.6563"/><text fill="#000000" font-family="sans-serif" font-size="13" lengthAdjust="spacing" textLength="250.6689" x="62.5244" y="350.5903">apresentarInterfaceVotacao(idEleicao)</text></g><path d="M10,370.6563 L86.624,370.6563 L86.624,377.7891 L76.624,387.7891 L10,387.7891 L10,370.6563" fill="#EEEEEE" style="stroke:#000000;stroke-width:1.5;"/><rect fill="none" height="337.5938" style="stroke:#000000;stroke-width:1.5;" width="1520.7534" x="10" y="370.6563"/><text fill="#000000" font-family="sans-serif" font-size="13" font-weight="bold" lengthAdjust="spacing" textLength="31.624" x="25" y="383.7231">loop</text><text fill="#000000" font-family="sans-serif" font-size="11" font-weight="bold" lengthAdjust="spacing" textLength="111.4502" x="101.624" y="382.8667">[para cada Cargo]</text><g class="message" data-participant-1="UEv" data-participant-2="UEg"><polygon fill="#181818" points="698.4341,404.9219,708.4341,408.9219,698.4341,412.9219,702.4341,408.9219" style="stroke:#181818;stroke-width:1;"/><line style="stroke:#181818;stroke-width:1;" x1="469.7886" x2="704.4341" y1="408.9219" y2="408.9219"/><text fill="#000000" font-family="sans-serif" font-size="13" lengthAdjust="spacing" textLength="166.1943" x="476.7886" y="403.856">listarCandidatos(idCargo)</text></g><g class="message" data-participant-1="UEg" data-participant-2="Candidato"><polygon fill="#181818" points="1068.2944,434.0547,1078.2944,438.0547,1068.2944,442.0547,1072.2944,438.0547" style="stroke:#181818;stroke-width:1;"/><line style="stroke:#181818;stroke-width:1;" x1="710.4341" x2="1074.2944" y1="438.0547" y2="438.0547"/><text fill="#000000" font-family="sans-serif" font-size="13" lengthAdjust="spacing" textLength="125.9375" x="717.4341" y="432.9888">obterLista(idCargo)</text></g><g class="message" data-participant-1="Candidato" data-participant-2="UEg"><polygon fill="#181818" points="721.4341,463.1875,711.4341,467.1875,721.4341,471.1875,717.4341,467.1875" style="stroke:#181818;stroke-width:1;"/><line style="stroke:#181818;stroke-width:1;stroke-dasharray:2,2;" x1="715.4341" x2="1079.2944" y1="467.1875" y2="467.1875"/><text fill="#000000" font-family="sans-serif" font-size="13" lengthAdjust="spacing" textLength="100.2485" x="727.4341" y="462.1216">listaCandidatos</text></g><g class="message" data-participant-1="UEg" data-participant-2="UEv"><polygon fill="#181818" points="480.7886,492.3203,470.7886,496.3203,480.7886,500.3203,476.7886,496.3203" style="stroke:#181818;stroke-width:1;"/><line style="stroke:#181818;stroke-width:1;stroke-dasharray:2,2;" x1="474.7886" x2="709.4341" y1="496.3203" y2="496.3203"/><text fill="#000000" font-family="sans-serif" font-size="13" lengthAdjust="spacing" textLength="138.9692" x="486.7886" y="491.2544">candidatosParaCargo</text></g><g class="message" data-participant-1="UEv" data-participant-2="Eleitor"><polygon fill="#181818" points="56.5244,521.4531,46.5244,525.4531,56.5244,529.4531,52.5244,525.4531" style="stroke:#181818;stroke-width:1;"/><line style="stroke:#181818;stroke-width:1;" x1="50.5244" x2="468.7886" y1="525.4531" y2="525.4531"/><text fill="#000000" font-family="sans-serif" font-size="13" lengthAdjust="spacing" textLength="205.7339" x="62.5244" y="520.3872">mostrarCandidatos(candidatos)</text></g><g class="message" data-participant-1="Eleitor" data-participant-2="UEv"><polygon fill="#181818" points="457.7886,550.5859,467.7886,554.5859,457.7886,558.5859,461.7886,554.5859" style="stroke:#181818;stroke-width:1;"/><line style="stroke:#181818;stroke-width:1;" x1="45.5244" x2="463.7886" y1="554.5859" y2="554.5859"/><text fill="#000000" font-family="sans-serif" font-size="13" lengthAdjust="spacing" textLength="400.2642" x="52.5244" y="549.52">selecionarCandidato(numero) or votarBranco() or votarNulo()</text></g><g class="message" data-participant-1="UEv" data-participant-2="Cedula"><polygon fill="#181818" points="1152.3652,579.7188,1162.3652,583.7188,1152.3652,587.7188,1156.3652,583.7188" style="stroke:#181818;stroke-width:1;"/><line style="stroke:#181818;stroke-width:1;" x1="469.7886" x2="1158.3652" y1="583.7188" y2="583.7188"/><text fill="#000000" font-family="sans-serif" font-size="13" lengthAdjust="spacing" textLength="275.7104" x="476.7886" y="578.6528">adicionarVoto(idCargo, numeroCandidato)</text></g><g class="message" data-participant-1="Cedula" data-participant-2="Voto"><polygon fill="#181818" points="1485.6548,608.8516,1495.6548,612.8516,1485.6548,616.8516,1489.6548,612.8516" style="stroke:#181818;stroke-width:1;"/><line style="stroke:#181818;stroke-width:1;" x1="1164.3652" x2="1491.6548" y1="612.8516" y2="612.8516"/><text fill="#000000" font-family="sans-serif" font-size="13" lengthAdjust="spacing" textLength="309.2896" x="1171.3652" y="607.7856">criarVoto(idCedula, idCargo, idCandidato | tipo)</text></g><g class="message" data-participant-1="Voto" data-participant-2="Cedula"><polygon fill="#181818" points="1175.3652,637.9844,1165.3652,641.9844,1175.3652,645.9844,1171.3652,641.9844" style="stroke:#181818;stroke-width:1;"/><line style="stroke:#181818;stroke-width:1;stroke-dasharray:2,2;" x1="1169.3652" x2="1496.6548" y1="641.9844" y2="641.9844"/><text fill="#000000" font-family="sans-serif" font-size="13" lengthAdjust="spacing" textLength="100.5786" x="1181.3652" y="636.9185">votoAdicionado</text></g><g class="message" data-participant-1="UEv" data-participant-2="Eleitor"><polygon fill="#181818" points="56.5244,667.1172,46.5244,671.1172,56.5244,675.1172,52.5244,671.1172" style="stroke:#181818;stroke-width:1;"/><line style="stroke:#181818;stroke-width:1;" x1="50.5244" x2="468.7886" y1="671.1172" y2="671.1172"/><text fill="#000000" font-family="sans-serif" font-size="13" lengthAdjust="spacing" textLength="123.9189" x="62.5244" y="666.0513">confirmarSelecao()</text></g><g class="message" data-participant-1="Eleitor" data-participant-2="UEv"><polygon fill="#181818" points="457.7886,696.25,467.7886,700.25,457.7886,704.25,461.7886,700.25" style="stroke:#181818;stroke-width:1;"/><line style="stroke:#181818;stroke-width:1;" x1="45.5244" x2="463.7886" y1="700.25" y2="700.25"/><text fill="#000000" font-family="sans-serif" font-size="13" lengthAdjust="spacing" textLength="72.9917" x="52.5244" y="695.1841">confirmar()</text></g><g class="message" data-participant-1="UEv" data-participant-2="UEg"><polygon fill="#181818" points="698.4341,732.3828,708.4341,736.3828,698.4341,740.3828,702.4341,736.3828" style="stroke:#181818;stroke-width:1;"/><line style="stroke:#181818;stroke-width:1;" x1="469.7886" x2="704.4341" y1="736.3828" y2="736.3828"/><text fill="#000000" font-family="sans-serif" font-size="13" lengthAdjust="spacing" textLength="216.6455" x="476.7886" y="731.3169">solicitarResumoCedula(idSessao)</text></g><g class="message" data-participant-1="UEg" data-participant-2="Cedula"><polygon fill="#181818" points="1152.3652,761.5156,1162.3652,765.5156,1152.3652,769.5156,1156.3652,765.5156" style="stroke:#181818;stroke-width:1;"/><line style="stroke:#181818;stroke-width:1;" x1="710.4341" x2="1158.3652" y1="765.5156" y2="765.5156"/><text fill="#000000" font-family="sans-serif" font-size="13" lengthAdjust="spacing" textLength="155.0288" x="717.4341" y="760.4497">obterResumo(idSessao)</text></g><g class="message" data-participant-1="Cedula" data-participant-2="UEg"><polygon fill="#181818" points="721.4341,790.6484,711.4341,794.6484,721.4341,798.6484,717.4341,794.6484" style="stroke:#181818;stroke-width:1;"/><line style="stroke:#181818;stroke-width:1;stroke-dasharray:2,2;" x1="715.4341" x2="1163.3652" y1="794.6484" y2="794.6484"/><text fill="#000000" font-family="sans-serif" font-size="13" lengthAdjust="spacing" textLength="48.9722" x="727.4341" y="789.5825">resumo</text></g><g class="message" data-participant-1="UEg" data-participant-2="UEv"><polygon fill="#181818" points="480.7886,819.7813,470.7886,823.7813,480.7886,827.7813,476.7886,823.7813" style="stroke:#181818;stroke-width:1;"/><line style="stroke:#181818;stroke-width:1;stroke-dasharray:2,2;" x1="474.7886" x2="709.4341" y1="823.7813" y2="823.7813"/><text fill="#000000" font-family="sans-serif" font-size="13" lengthAdjust="spacing" textLength="97.7095" x="486.7886" y="818.7153">gerarResumo()</text></g><g class="message" data-participant-1="UEv" data-participant-2="Eleitor"><polygon fill="#181818" points="56.5244,848.9141,46.5244,852.9141,56.5244,856.9141,52.5244,852.9141" style="stroke:#181818;stroke-width:1;"/><line style="stroke:#181818;stroke-width:1;stroke-dasharray:2,2;" x1="50.5244" x2="468.7886" y1="852.9141" y2="852.9141"/><text fill="#000000" font-family="sans-serif" font-size="13" lengthAdjust="spacing" textLength="182.7554" x="62.5244" y="847.8481">apresentarResumo(resumo)</text></g><g class="message" data-participant-1="Eleitor" data-participant-2="UEv"><polygon fill="#181818" points="457.7886,878.0469,467.7886,882.0469,457.7886,886.0469,461.7886,882.0469" style="stroke:#181818;stroke-width:1;"/><line style="stroke:#181818;stroke-width:1;" x1="45.5244" x2="463.7886" y1="882.0469" y2="882.0469"/><text fill="#000000" font-family="sans-serif" font-size="13" lengthAdjust="spacing" textLength="156.876" x="52.5244" y="876.981">confirmarVotacaoFinal()</text></g><g class="message" data-participant-1="UEv" data-participant-2="Cedula"><polygon fill="#181818" points="1152.3652,907.1797,1162.3652,911.1797,1152.3652,915.1797,1156.3652,911.1797" style="stroke:#181818;stroke-width:1;"/><line style="stroke:#181818;stroke-width:1;" x1="469.7886" x2="1158.3652" y1="911.1797" y2="911.1797"/><text fill="#000000" font-family="sans-serif" font-size="13" lengthAdjust="spacing" textLength="72.9917" x="476.7886" y="906.1138">confirmar()</text></g><g class="message" data-participant-1="Cedula" data-participant-2="UEg"><polygon fill="#181818" points="721.4341,936.3125,711.4341,940.3125,721.4341,944.3125,717.4341,940.3125" style="stroke:#181818;stroke-width:1;"/><line style="stroke:#181818;stroke-width:1;" x1="715.4341" x2="1163.3652" y1="940.3125" y2="940.3125"/><text fill="#000000" font-family="sans-serif" font-size="13" lengthAdjust="spacing" textLength="151.3091" x="727.4341" y="935.2466">persistirCedula(cedula)</text></g><g class="message" data-participant-1="UEg" data-participant-2="Voto"><polygon fill="#181818" points="1485.6548,965.4453,1495.6548,969.4453,1485.6548,973.4453,1489.6548,969.4453" style="stroke:#181818;stroke-width:1;"/><line style="stroke:#181818;stroke-width:1;" x1="710.4341" x2="1491.6548" y1="969.4453" y2="969.4453"/><text fill="#000000" font-family="sans-serif" font-size="13" lengthAdjust="spacing" textLength="135.0908" x="717.4341" y="964.3794">persistirVotos(votos)</text></g><g class="message" data-participant-1="UEg" data-participant-2="EleitorClass"><polygon fill="#181818" points="986.0078,994.5781,996.0078,998.5781,986.0078,1002.5781,990.0078,998.5781" style="stroke:#181818;stroke-width:1;"/><line style="stroke:#181818;stroke-width:1;" x1="710.4341" x2="992.0078" y1="998.5781" y2="998.5781"/><text fill="#000000" font-family="sans-serif" font-size="13" lengthAdjust="spacing" textLength="161.0591" x="717.4341" y="993.5122">marcarVotado(idEleicao)</text></g><g class="message" data-participant-1="UEg" data-participant-2="UEv"><polygon fill="#181818" points="480.7886,1023.7109,470.7886,1027.7109,480.7886,1031.7109,476.7886,1027.7109" style="stroke:#181818;stroke-width:1;"/><line style="stroke:#181818;stroke-width:1;stroke-dasharray:2,2;" x1="474.7886" x2="709.4341" y1="1027.7109" y2="1027.7109"/><text fill="#000000" font-family="sans-serif" font-size="13" lengthAdjust="spacing" textLength="190.2964" x="486.7886" y="1022.645">gerarComprovante(idCedula)</text></g><g class="message" data-participant-1="UEv" data-participant-2="Eleitor"><polygon fill="#181818" points="56.5244,1052.8438,46.5244,1056.8438,56.5244,1060.8438,52.5244,1056.8438" style="stroke:#181818;stroke-width:1;"/><line style="stroke:#181818;stroke-width:1;" x1="50.5244" x2="468.7886" y1="1056.8438" y2="1056.8438"/><text fill="#000000" font-family="sans-serif" font-size="13" lengthAdjust="spacing" textLength="149.5254" x="62.5244" y="1051.7778">mostrarComprovante()</text></g><!--SRC=[TLHDRzGm4BtxLrYva4XT8Quz89Lb4KXGeLRbYgQsDxLmF97jpG7nR_Wf_3767t6ItUufiVtcpNipOmSTZE9F-tTynnyK6FqR7F-10GGW0n7GyODHchvi11Uqq2FOm9yEqzcwtwoR4jHmy3F1te3t6zGUhDGI0cvtbJmPs6oH86IiyF3T-vYVtt9j2G3kKNaF635jn-990lG4y6W84S1zaSe6VTGY-ageFgBMoWW-aNy9ZdPx_QpZlrIjFGtAuKSKzBK1ExO9sjLSAaPDol2tt08UoeenC67E4mygZd5ULCncZkW6SFU0do5c3o2ZLCwBfPdabW_eWmFtJLaFlHhQflB_-ulyfKOt7LDMCdP10ADJdjnGOMnGxWX2bPwtMaOO_NNC88wSsW1SW0JgbkjnaPDT6-s9fJRIKtp2TOkzUaXmVAPqNsFC6hWWTblYXNUcg-KIzUWxAJpJTb6gbS0bCAQ-c2bF_H4QxIgcZ4372JTHcTm71rPGR-h6_SbiMfL7E1PQwaoMfhDOlk6Pi2P8DSWX51oXqQ3JIrWwlE6L8FxCDVl3WnuJHuhShVEJEhmh6kIh1H9eZphEtMCq3jd6HLKgYanlPkhidZqeVnemfoVT-MRMwrPbfJ78s1LgBa6bTGd1jetlbPlppDVzocmNK6Rfs7LJPVO_QGjcUKAgsfLvjhGfInoLypIfsXNF8dsguzBBYefhtyQk-6kF4EKHMPBStCOtytswEybKcrwdqJvCyLbgcocR-3chbT3SSAa2c1VbOtYCMsgBlrwhwnw7qU54RwwgOzUngxTgXUx-0m00]--></g></svg>