<svg xmlns="http://www.w3.org/2000/svg" xmlns:xlink="http://www.w3.org/1999/xlink" contentStyleType="text/css" data-diagram-type="SEQUENCE" height="683px" preserveAspectRatio="none" style="width:787px;height:683px;background:#FFFFFF;" version="1.1" viewBox="0 0 787 683" width="787px" zoomAndPan="magnify"><title>UC2 - Realizar Cadastro</title><defs/><g><text fill="#000000" font-family="sans-serif" font-size="14" font-weight="bold" lengthAdjust="spacing" textLength="186.375" x="301.7087" y="27.9951">UC2 - Realizar Cadastro</text><rect fill="none" height="278" style="stroke:#000000;stroke-width:1.5;" width="770.7925" x="10" y="307.2578"/><g><title>Eleitor</title><rect fill="#000000" fill-opacity="0.00000" height="483.6641" width="8" x="41.5244" y="118.5938"/><line style="stroke:#181818;stroke-width:0.5;stroke-dasharray:5,5;" x1="45" x2="45" y1="118.5938" y2="602.2578"/></g><g><title>UEv</title><rect fill="#000000" fill-opacity="0.00000" height="483.6641" width="8" x="227.104" y="118.5938"/><line style="stroke:#181818;stroke-width:0.5;stroke-dasharray:5,5;" x1="230.415" x2="230.415" y1="118.5938" y2="602.2578"/></g><g><title>UEg</title><rect fill="#000000" fill-opacity="0.00000" height="483.6641" width="8" x="448.002" y="118.5938"/><line style="stroke:#181818;stroke-width:0.5;stroke-dasharray:5,5;" x1="451.0122" x2="451.0122" y1="118.5938" y2="602.2578"/></g><g><title>Eleitor</title><rect fill="#000000" fill-opacity="0.00000" height="483.6641" width="8" x="737.2681" y="118.5938"/><line style="stroke:#181818;stroke-width:0.5;stroke-dasharray:5,5;" x1="740.7437" x2="740.7437" y1="118.5938" y2="602.2578"/></g><g class="participant participant-head" data-participant="Eleitor"><text fill="#000000" font-family="sans-serif" font-size="14" lengthAdjust="spacing" textLength="45.0488" x="20" y="115.292">Eleitor</text><ellipse cx="45.5244" cy="50.7969" fill="#E2E2F0" rx="8" ry="8" style="stroke:#181818;stroke-width:0.5;"/><path d="M45.5244,58.7969 L45.5244,85.7969 M32.5244,66.7969 L58.5244,66.7969 M45.5244,85.7969 L32.5244,100.7969 M45.5244,85.7969 L58.5244,100.7969" fill="none" style="stroke:#181818;stroke-width:0.5;"/></g><g class="participant participant-tail" data-participant="Eleitor"><text fill="#000000" font-family="sans-serif" font-size="14" lengthAdjust="spacing" textLength="45.0488" x="20" y="614.2529">Eleitor</text><ellipse cx="45.5244" cy="626.0547" fill="#E2E2F0" rx="8" ry="8" style="stroke:#181818;stroke-width:0.5;"/><path d="M45.5244,634.0547 L45.5244,661.0547 M32.5244,642.0547 L58.5244,642.0547 M45.5244,661.0547 L32.5244,676.0547 M45.5244,661.0547 L58.5244,676.0547" fill="none" style="stroke:#181818;stroke-width:0.5;"/></g><g class="participant participant-head" data-participant="UEv"><rect fill="#E2E2F0" height="30.2969" rx="2.5" ry="2.5" style="stroke:#181818;stroke-width:0.5;" width="41.3779" x="210.415" y="87.2969"/><text fill="#000000" font-family="sans-serif" font-size="14" lengthAdjust="spacing" textLength="27.3779" x="217.415" y="107.292">UEv</text></g><g class="participant participant-tail" data-participant="UEv"><rect fill="#E2E2F0" height="30.2969" rx="2.5" ry="2.5" style="stroke:#181818;stroke-width:0.5;" width="41.3779" x="210.415" y="601.2578"/><text fill="#000000" font-family="sans-serif" font-size="14" lengthAdjust="spacing" textLength="27.3779" x="217.415" y="621.2529">UEv</text></g><g class="participant participant-head" data-participant="UEg"><rect fill="#E2E2F0" height="30.2969" rx="2.5" ry="2.5" style="stroke:#181818;stroke-width:0.5;" width="41.9795" x="431.0122" y="87.2969"/><text fill="#000000" font-family="sans-serif" font-size="14" lengthAdjust="spacing" textLength="27.9795" x="438.0122" y="107.292">UEg</text></g><g class="participant participant-tail" data-participant="UEg"><rect fill="#E2E2F0" height="30.2969" rx="2.5" ry="2.5" style="stroke:#181818;stroke-width:0.5;" width="41.9795" x="431.0122" y="601.2578"/><text fill="#000000" font-family="sans-serif" font-size="14" lengthAdjust="spacing" textLength="27.9795" x="438.0122" y="621.2529">UEg</text></g><g class="participant participant-head" data-participant="EleitorClass"><rect fill="#E2E2F0" height="30.2969" rx="2.5" ry="2.5" style="stroke:#181818;stroke-width:0.5;" width="59.0488" x="711.7437" y="87.2969"/><text fill="#000000" font-family="sans-serif" font-size="14" lengthAdjust="spacing" textLength="45.0488" x="718.7437" y="107.292">Eleitor</text></g><g class="participant participant-tail" data-participant="EleitorClass"><rect fill="#E2E2F0" height="30.2969" rx="2.5" ry="2.5" style="stroke:#181818;stroke-width:0.5;" width="59.0488" x="711.7437" y="601.2578"/><text fill="#000000" font-family="sans-serif" font-size="14" lengthAdjust="spacing" textLength="45.0488" x="718.7437" y="621.2529">Eleitor</text></g><g class="message" data-participant-1="Eleitor" data-participant-2="UEg"><polygon fill="#181818" points="440.002,145.7266,450.002,149.7266,440.002,153.7266,444.002,149.7266" style="stroke:#181818;stroke-width:1;"/><line style="stroke:#181818;stroke-width:1;" x1="45.5244" x2="446.002" y1="149.7266" y2="149.7266"/><text fill="#000000" font-family="sans-serif" font-size="13" lengthAdjust="spacing" textLength="330.2305" x="52.5244" y="144.6606">solicitarCadastro(dadosPessoais, documento, foto)</text></g><g class="message" data-participant-1="UEg" data-participant-2="UEv"><polygon fill="#181818" points="242.104,174.8594,232.104,178.8594,242.104,182.8594,238.104,178.8594" style="stroke:#181818;stroke-width:1;"/><line style="stroke:#181818;stroke-width:1;" x1="236.104" x2="451.002" y1="178.8594" y2="178.8594"/><text fill="#000000" font-family="sans-serif" font-size="13" lengthAdjust="spacing" textLength="196.8979" x="248.104" y="173.7935">criarRegistroProvisorio(dados)</text></g><g class="message" data-participant-1="UEv" data-participant-2="UEg"><polygon fill="#181818" points="440.002,203.9922,450.002,207.9922,440.002,211.9922,444.002,207.9922" style="stroke:#181818;stroke-width:1;"/><line style="stroke:#181818;stroke-width:1;stroke-dasharray:2,2;" x1="231.104" x2="446.002" y1="207.9922" y2="207.9922"/><text fill="#000000" font-family="sans-serif" font-size="13" lengthAdjust="spacing" textLength="164.7979" x="238.104" y="202.9263">registroCriado(pendente)</text></g><g class="message" data-participant-1="UEg" data-participant-2="UEg"><line style="stroke:#181818;stroke-width:1;" x1="452.002" x2="494.002" y1="237.125" y2="237.125"/><line style="stroke:#181818;stroke-width:1;" x1="494.002" x2="494.002" y1="237.125" y2="250.125"/><line style="stroke:#181818;stroke-width:1;" x1="453.002" x2="494.002" y1="250.125" y2="250.125"/><polygon fill="#181818" points="463.002,246.125,453.002,250.125,463.002,254.125,459.002,250.125" style="stroke:#181818;stroke-width:1;"/><text fill="#000000" font-family="sans-serif" font-size="13" lengthAdjust="spacing" textLength="217.9087" x="459.002" y="232.0591">notificarNovoCadastro(registroId)</text></g><g class="message" data-participant-1="UEg" data-participant-2="UEg"><line style="stroke:#181818;stroke-width:1;" x1="452.002" x2="494.002" y1="279.2578" y2="279.2578"/><line style="stroke:#181818;stroke-width:1;" x1="494.002" x2="494.002" y1="279.2578" y2="292.2578"/><line style="stroke:#181818;stroke-width:1;" x1="453.002" x2="494.002" y1="292.2578" y2="292.2578"/><polygon fill="#181818" points="463.002,288.2578,453.002,292.2578,463.002,296.2578,459.002,292.2578" style="stroke:#181818;stroke-width:1;"/><text fill="#000000" font-family="sans-serif" font-size="13" lengthAdjust="spacing" textLength="275.2661" x="459.002" y="274.1919">avaliarCadastro(registroId) [aceita|rejeita]</text></g><path d="M10,307.2578 L74.4429,307.2578 L74.4429,314.3906 L64.4429,324.3906 L10,324.3906 L10,307.2578" fill="#EEEEEE" style="stroke:#000000;stroke-width:1.5;"/><rect fill="none" height="278" style="stroke:#000000;stroke-width:1.5;" width="770.7925" x="10" y="307.2578"/><text fill="#000000" font-family="sans-serif" font-size="13" font-weight="bold" lengthAdjust="spacing" textLength="19.4429" x="25" y="320.3247">alt</text><text fill="#000000" font-family="sans-serif" font-size="11" font-weight="bold" lengthAdjust="spacing" textLength="76.0601" x="89.4429" y="319.4683">[UEg aceita]</text><g class="message" data-participant-1="UEg" data-participant-2="UEg"><line style="stroke:#181818;stroke-width:1;" x1="452.002" x2="494.002" y1="345.5234" y2="345.5234"/><line style="stroke:#181818;stroke-width:1;" x1="494.002" x2="494.002" y1="345.5234" y2="358.5234"/><line style="stroke:#181818;stroke-width:1;" x1="453.002" x2="494.002" y1="358.5234" y2="358.5234"/><polygon fill="#181818" points="463.002,354.5234,453.002,358.5234,463.002,362.5234,459.002,358.5234" style="stroke:#181818;stroke-width:1;"/><text fill="#000000" font-family="sans-serif" font-size="13" lengthAdjust="spacing" textLength="181.5557" x="459.002" y="340.4575">aprovarCadastro(registroId)</text></g><g class="message" data-participant-1="UEg" data-participant-2="EleitorClass"><polygon fill="#181818" points="729.2681,383.6563,739.2681,387.6563,729.2681,391.6563,733.2681,387.6563" style="stroke:#181818;stroke-width:1;"/><line style="stroke:#181818;stroke-width:1;" x1="452.002" x2="735.2681" y1="387.6563" y2="387.6563"/><text fill="#000000" font-family="sans-serif" font-size="13" lengthAdjust="spacing" textLength="128.3369" x="459.002" y="382.5903">registrar(registroId)</text></g><g class="message" data-participant-1="EleitorClass" data-participant-2="UEg"><polygon fill="#181818" points="463.002,412.7891,453.002,416.7891,463.002,420.7891,459.002,416.7891" style="stroke:#181818;stroke-width:1;"/><line style="stroke:#181818;stroke-width:1;stroke-dasharray:2,2;" x1="457.002" x2="740.2681" y1="416.7891" y2="416.7891"/><text fill="#000000" font-family="sans-serif" font-size="13" lengthAdjust="spacing" textLength="73.709" x="469.002" y="411.7231">confirmado</text></g><g class="message" data-participant-1="UEg" data-participant-2="UEv"><polygon fill="#181818" points="242.104,441.9219,232.104,445.9219,242.104,449.9219,238.104,445.9219" style="stroke:#181818;stroke-width:1;"/><line style="stroke:#181818;stroke-width:1;" x1="236.104" x2="451.002" y1="445.9219" y2="445.9219"/><text fill="#000000" font-family="sans-serif" font-size="13" lengthAdjust="spacing" textLength="135.0146" x="248.104" y="440.856">informarAprovacao()</text></g><g class="message" data-participant-1="UEv" data-participant-2="Eleitor"><polygon fill="#181818" points="56.5244,471.0547,46.5244,475.0547,56.5244,479.0547,52.5244,475.0547" style="stroke:#181818;stroke-width:1;"/><line style="stroke:#181818;stroke-width:1;" x1="50.5244" x2="230.104" y1="475.0547" y2="475.0547"/><text fill="#000000" font-family="sans-serif" font-size="13" lengthAdjust="spacing" textLength="130.457" x="62.5244" y="469.9888">mostrarAprovacao()</text></g><line style="stroke:#000000;stroke-width:1;stroke-dasharray:2,2;" x1="10" x2="780.7925" y1="484.0547" y2="484.0547"/><text fill="#000000" font-family="sans-serif" font-size="11" font-weight="bold" lengthAdjust="spacing" textLength="78.7725" x="15" y="494.2651">[UEg rejeita]</text><g class="message" data-participant-1="EleitorClass" data-participant-2="UEg"><polygon fill="#181818" points="463.002,514.9922,453.002,518.9922,463.002,522.9922,459.002,518.9922" style="stroke:#181818;stroke-width:1;"/><line style="stroke:#181818;stroke-width:1;" x1="457.002" x2="740.2681" y1="518.9922" y2="518.9922"/><text fill="#000000" font-family="sans-serif" font-size="13" lengthAdjust="spacing" textLength="231.2451" x="469.002" y="513.9263">rejeitarCadastro(registroId, motivo)</text></g><g class="message" data-participant-1="UEg" data-participant-2="UEv"><polygon fill="#181818" points="242.104,544.125,232.104,548.125,242.104,552.125,238.104,548.125" style="stroke:#181818;stroke-width:1;"/><line style="stroke:#181818;stroke-width:1;" x1="236.104" x2="451.002" y1="548.125" y2="548.125"/><text fill="#000000" font-family="sans-serif" font-size="13" lengthAdjust="spacing" textLength="166.1372" x="248.104" y="543.0591">informarRejeicao(motivo)</text></g><g class="message" data-participant-1="UEv" data-participant-2="Eleitor"><polygon fill="#181818" points="56.5244,573.2578,46.5244,577.2578,56.5244,581.2578,52.5244,577.2578" style="stroke:#181818;stroke-width:1;"/><line style="stroke:#181818;stroke-width:1;" x1="50.5244" x2="230.104" y1="577.2578" y2="577.2578"/><text fill="#000000" font-family="sans-serif" font-size="13" lengthAdjust="spacing" textLength="161.5796" x="62.5244" y="572.1919">mostrarRejeicao(motivo)</text></g><!--SRC=[TP4_QmCn3CLtVmgHAO5awTYXK8uCNKeuo5Gw2DiNL9pJ8RiUIZzyvSibv_pfP8H-xpr9JfI2Xttp11jeFGRwGO467SOaRD0c5jW6J_gQ0IMHfG7x1FjjlgaFL_LY4Yq0uzcW2HYZCLC5cvUYWcU875IMKCwvIuUEuyx7o4Xn3Oxjzz7tYTVGSUALARfHdbLkXL1QVw0YtGbdYYmqcHGsm-QI9HFNgCZnSl2zKsDVMHQgvqGTMPHtpdoPwgnzSpSuPZrSDNu5mWTQNHT_nN-LzzCO3EEvuDGm0DTUWsxms6j6wuFEIw7Sq5VOV0FBVKTorFthy79AwZlMXhoEGrZavIaqLw6A7NbCgoaVeX-zfZtlqkSF6FkF5bohSQBCg__6QeksvDNSuzdkKFteFm00]--></g></svg>