<svg xmlns="http://www.w3.org/2000/svg" xmlns:xlink="http://www.w3.org/1999/xlink" contentStyleType="text/css" data-diagram-type="SEQUENCE" height="687px" preserveAspectRatio="none" style="width:971px;height:687px;background:#FFFFFF;" version="1.1" viewBox="0 0 971 687" width="971px" zoomAndPan="magnify"><title>UC3 - Configurar Elei&#231;&#227;o</title><defs/><g><text fill="#000000" font-family="sans-serif" font-size="14" font-weight="bold" lengthAdjust="spacing" textLength="191.8301" x="388.7473" y="27.9951">UC3 - Configurar Elei&#231;&#227;o</text><rect fill="none" height="75.3984" style="stroke:#000000;stroke-width:1.5;" width="746.2827" x="10" y="252.125"/><g><title>Administrador</title><rect fill="#000000" fill-opacity="0.00000" height="488.125" width="8" x="68.54" y="118.5938"/><line style="stroke:#181818;stroke-width:0.5;stroke-dasharray:5,5;" x1="72" x2="72" y1="118.5938" y2="606.7188"/></g><g><title>UEg</title><rect fill="#000000" fill-opacity="0.00000" height="488.125" width="8" x="388.7788" y="118.5938"/><line style="stroke:#181818;stroke-width:0.5;stroke-dasharray:5,5;" x1="391.7891" x2="391.7891" y1="118.5938" y2="606.7188"/></g><g><title>Eleicao</title><rect fill="#000000" fill-opacity="0.00000" height="488.125" width="8" x="710.2427" y="118.5938"/><line style="stroke:#181818;stroke-width:0.5;stroke-dasharray:5,5;" x1="714.2026" x2="714.2026" y1="118.5938" y2="606.7188"/></g><g><title>ObjetoSincronizacao</title><rect fill="#000000" fill-opacity="0.00000" height="488.125" width="8" x="831.1147" y="118.5938"/><line style="stroke:#181818;stroke-width:0.5;stroke-dasharray:5,5;" x1="834.2827" x2="834.2827" y1="118.5938" y2="606.7188"/></g><g><title>UEv</title><rect fill="#000000" fill-opacity="0.00000" height="488.125" width="8" x="940.6357" y="118.5938"/><line style="stroke:#181818;stroke-width:0.5;stroke-dasharray:5,5;" x1="943.9468" x2="943.9468" y1="118.5938" y2="606.7188"/></g><g class="participant participant-head" data-participant="Administrador"><text fill="#000000" font-family="sans-serif" font-size="14" lengthAdjust="spacing" textLength="99.0801" x="20" y="115.292">Administrador</text><ellipse cx="72.54" cy="50.7969" fill="#E2E2F0" rx="8" ry="8" style="stroke:#181818;stroke-width:0.5;"/><path d="M72.54,58.7969 L72.54,85.7969 M59.54,66.7969 L85.54,66.7969 M72.54,85.7969 L59.54,100.7969 M72.54,85.7969 L85.54,100.7969" fill="none" style="stroke:#181818;stroke-width:0.5;"/></g><g class="participant participant-tail" data-participant="Administrador"><text fill="#000000" font-family="sans-serif" font-size="14" lengthAdjust="spacing" textLength="99.0801" x="20" y="618.7139">Administrador</text><ellipse cx="72.54" cy="630.5156" fill="#E2E2F0" rx="8" ry="8" style="stroke:#181818;stroke-width:0.5;"/><path d="M72.54,638.5156 L72.54,665.5156 M59.54,646.5156 L85.54,646.5156 M72.54,665.5156 L59.54,680.5156 M72.54,665.5156 L85.54,680.5156" fill="none" style="stroke:#181818;stroke-width:0.5;"/></g><g class="participant participant-head" data-participant="UEg"><rect fill="#E2E2F0" height="30.2969" rx="2.5" ry="2.5" style="stroke:#181818;stroke-width:0.5;" width="41.9795" x="371.7891" y="87.2969"/><text fill="#000000" font-family="sans-serif" font-size="14" lengthAdjust="spacing" textLength="27.9795" x="378.7891" y="107.292">UEg</text></g><g class="participant participant-tail" data-participant="UEg"><rect fill="#E2E2F0" height="30.2969" rx="2.5" ry="2.5" style="stroke:#181818;stroke-width:0.5;" width="41.9795" x="371.7891" y="605.7188"/><text fill="#000000" font-family="sans-serif" font-size="14" lengthAdjust="spacing" textLength="27.9795" x="378.7891" y="625.7139">UEg</text></g><g class="participant participant-head" data-participant="Eleicao"><rect fill="#E2E2F0" height="30.2969" rx="2.5" ry="2.5" style="stroke:#181818;stroke-width:0.5;" width="64.0801" x="682.2026" y="87.2969"/><text fill="#000000" font-family="sans-serif" font-size="14" lengthAdjust="spacing" textLength="50.0801" x="689.2026" y="107.292">Eleicao</text></g><g class="participant participant-tail" data-participant="Eleicao"><rect fill="#E2E2F0" height="30.2969" rx="2.5" ry="2.5" style="stroke:#181818;stroke-width:0.5;" width="64.0801" x="682.2026" y="605.7188"/><text fill="#000000" font-family="sans-serif" font-size="14" lengthAdjust="spacing" textLength="50.0801" x="689.2026" y="625.7139">Eleicao</text></g><g class="participant participant-head" data-participant="ObjetoSincronizacao"><rect fill="#E2E2F0" height="30.2969" rx="2.5" ry="2.5" style="stroke:#181818;stroke-width:0.5;" width="157.6641" x="756.2827" y="87.2969"/><text fill="#000000" font-family="sans-serif" font-size="14" lengthAdjust="spacing" textLength="143.6641" x="763.2827" y="107.292">ObjetoSincronizacao</text></g><g class="participant participant-tail" data-participant="ObjetoSincronizacao"><rect fill="#E2E2F0" height="30.2969" rx="2.5" ry="2.5" style="stroke:#181818;stroke-width:0.5;" width="157.6641" x="756.2827" y="605.7188"/><text fill="#000000" font-family="sans-serif" font-size="14" lengthAdjust="spacing" textLength="143.6641" x="763.2827" y="625.7139">ObjetoSincronizacao</text></g><g class="participant participant-head" data-participant="UEv"><rect fill="#E2E2F0" height="30.2969" rx="2.5" ry="2.5" style="stroke:#181818;stroke-width:0.5;" width="41.3779" x="923.9468" y="87.2969"/><text fill="#000000" font-family="sans-serif" font-size="14" lengthAdjust="spacing" textLength="27.3779" x="930.9468" y="107.292">UEv</text></g><g class="participant participant-tail" data-participant="UEv"><rect fill="#E2E2F0" height="30.2969" rx="2.5" ry="2.5" style="stroke:#181818;stroke-width:0.5;" width="41.3779" x="923.9468" y="605.7188"/><text fill="#000000" font-family="sans-serif" font-size="14" lengthAdjust="spacing" textLength="27.3779" x="930.9468" y="625.7139">UEv</text></g><g class="message" data-participant-1="Administrador" data-participant-2="UEg"><polygon fill="#181818" points="380.7788,145.7266,390.7788,149.7266,380.7788,153.7266,384.7788,149.7266" style="stroke:#181818;stroke-width:1;"/><line style="stroke:#181818;stroke-width:1;" x1="72.54" x2="386.7788" y1="149.7266" y2="149.7266"/><text fill="#000000" font-family="sans-serif" font-size="13" lengthAdjust="spacing" textLength="174.2178" x="79.54" y="144.6606">abrirModuloConfiguracao()</text></g><g class="message" data-participant-1="UEg" data-participant-2="Administrador"><polygon fill="#181818" points="83.54,174.8594,73.54,178.8594,83.54,182.8594,79.54,178.8594" style="stroke:#181818;stroke-width:1;"/><line style="stroke:#181818;stroke-width:1;" x1="77.54" x2="391.7788" y1="178.8594" y2="178.8594"/><text fill="#000000" font-family="sans-serif" font-size="13" lengthAdjust="spacing" textLength="131.4536" x="89.54" y="173.7935">mostrarFormulario()</text></g><g class="message" data-participant-1="Administrador" data-participant-2="UEg"><polygon fill="#181818" points="380.7788,203.9922,390.7788,207.9922,380.7788,211.9922,384.7788,207.9922" style="stroke:#181818;stroke-width:1;"/><line style="stroke:#181818;stroke-width:1;" x1="72.54" x2="386.7788" y1="207.9922" y2="207.9922"/><text fill="#000000" font-family="sans-serif" font-size="13" lengthAdjust="spacing" textLength="296.2388" x="79.54" y="202.9263">submeterConfiguracao(dadosEleicao, cargos)</text></g><g class="message" data-participant-1="UEg" data-participant-2="Eleicao"><polygon fill="#181818" points="702.2427,233.125,712.2427,237.125,702.2427,241.125,706.2427,237.125" style="stroke:#181818;stroke-width:1;"/><line style="stroke:#181818;stroke-width:1;" x1="392.7788" x2="708.2427" y1="237.125" y2="237.125"/><text fill="#000000" font-family="sans-serif" font-size="13" lengthAdjust="spacing" textLength="140.918" x="399.7788" y="232.0591">validarConfiguracao()</text></g><path d="M10,252.125 L74.4429,252.125 L74.4429,259.2578 L64.4429,269.2578 L10,269.2578 L10,252.125" fill="#EEEEEE" style="stroke:#000000;stroke-width:1.5;"/><rect fill="none" height="75.3984" style="stroke:#000000;stroke-width:1.5;" width="746.2827" x="10" y="252.125"/><text fill="#000000" font-family="sans-serif" font-size="13" font-weight="bold" lengthAdjust="spacing" textLength="19.4429" x="25" y="265.1919">alt</text><text fill="#000000" font-family="sans-serif" font-size="11" font-weight="bold" lengthAdjust="spacing" textLength="261.3896" x="89.4429" y="264.3354">[configura&#231;&#227;o inv&#225;lida (fluxo de exce&#231;&#227;o)]</text><g class="message" data-participant-1="Eleicao" data-participant-2="UEg"><polygon fill="#181818" points="403.7788,286.3906,393.7788,290.3906,403.7788,294.3906,399.7788,290.3906" style="stroke:#181818;stroke-width:1;"/><line style="stroke:#181818;stroke-width:1;stroke-dasharray:2,2;" x1="397.7788" x2="713.2427" y1="290.3906" y2="290.3906"/><text fill="#000000" font-family="sans-serif" font-size="13" lengthAdjust="spacing" textLength="106.9263" x="409.7788" y="285.3247">errosValidacao()</text></g><g class="message" data-participant-1="UEg" data-participant-2="Administrador"><polygon fill="#181818" points="83.54,315.5234,73.54,319.5234,83.54,323.5234,79.54,319.5234" style="stroke:#181818;stroke-width:1;"/><line style="stroke:#181818;stroke-width:1;" x1="77.54" x2="391.7788" y1="319.5234" y2="319.5234"/><text fill="#000000" font-family="sans-serif" font-size="13" lengthAdjust="spacing" textLength="191.6992" x="89.54" y="314.4575">mostrarErros(errosValidacao)</text></g><g class="message" data-participant-1="UEg" data-participant-2="Eleicao"><polygon fill="#181818" points="702.2427,351.6563,712.2427,355.6563,702.2427,359.6563,706.2427,355.6563" style="stroke:#181818;stroke-width:1;"/><line style="stroke:#181818;stroke-width:1;" x1="392.7788" x2="708.2427" y1="355.6563" y2="355.6563"/><text fill="#000000" font-family="sans-serif" font-size="13" lengthAdjust="spacing" textLength="297.4639" x="399.7788" y="350.5903">adicionarCargo(cargo) [loop para cada cargo]</text></g><g class="message" data-participant-1="Eleicao" data-participant-2="UEg"><polygon fill="#181818" points="403.7788,380.7891,393.7788,384.7891,403.7788,388.7891,399.7788,384.7891" style="stroke:#181818;stroke-width:1;"/><line style="stroke:#181818;stroke-width:1;stroke-dasharray:2,2;" x1="397.7788" x2="713.2427" y1="384.7891" y2="384.7891"/><text fill="#000000" font-family="sans-serif" font-size="13" lengthAdjust="spacing" textLength="118.625" x="409.7788" y="379.7231">cargosAtualizados</text></g><g class="message" data-participant-1="UEg" data-participant-2="Eleicao"><polygon fill="#181818" points="702.2427,409.9219,712.2427,413.9219,702.2427,417.9219,706.2427,413.9219" style="stroke:#181818;stroke-width:1;"/><line style="stroke:#181818;stroke-width:1;" x1="392.7788" x2="708.2427" y1="413.9219" y2="413.9219"/><text fill="#000000" font-family="sans-serif" font-size="13" lengthAdjust="spacing" textLength="49.499" x="399.7788" y="408.856">salvar()</text></g><g class="message" data-participant-1="Eleicao" data-participant-2="UEg"><polygon fill="#181818" points="403.7788,439.0547,393.7788,443.0547,403.7788,447.0547,399.7788,443.0547" style="stroke:#181818;stroke-width:1;"/><line style="stroke:#181818;stroke-width:1;stroke-dasharray:2,2;" x1="397.7788" x2="713.2427" y1="443.0547" y2="443.0547"/><text fill="#000000" font-family="sans-serif" font-size="13" lengthAdjust="spacing" textLength="58.3667" x="409.7788" y="437.9888">idEleicao</text></g><g class="message" data-participant-1="UEg" data-participant-2="ObjetoSincronizacao"><polygon fill="#181818" points="823.1147,468.1875,833.1147,472.1875,823.1147,476.1875,827.1147,472.1875" style="stroke:#181818;stroke-width:1;"/><line style="stroke:#181818;stroke-width:1;" x1="392.7788" x2="829.1147" y1="472.1875" y2="472.1875"/><text fill="#000000" font-family="sans-serif" font-size="13" lengthAdjust="spacing" textLength="342.3672" x="399.7788" y="467.1216">criarPacote(idEleicao, listaCandidatos, listaEleitores)</text></g><g class="message" data-participant-1="ObjetoSincronizacao" data-participant-2="UEg"><polygon fill="#181818" points="403.7788,497.3203,393.7788,501.3203,403.7788,505.3203,399.7788,501.3203" style="stroke:#181818;stroke-width:1;"/><line style="stroke:#181818;stroke-width:1;stroke-dasharray:2,2;" x1="397.7788" x2="834.1147" y1="501.3203" y2="501.3203"/><text fill="#000000" font-family="sans-serif" font-size="13" lengthAdjust="spacing" textLength="86.6201" x="409.7788" y="496.2544">pacoteCriado</text></g><g class="message" data-participant-1="UEg" data-participant-2="UEv"><polygon fill="#181818" points="932.6357,526.4531,942.6357,530.4531,932.6357,534.4531,936.6357,530.4531" style="stroke:#181818;stroke-width:1;"/><line style="stroke:#181818;stroke-width:1;" x1="392.7788" x2="938.6357" y1="530.4531" y2="530.4531"/><text fill="#000000" font-family="sans-serif" font-size="13" lengthAdjust="spacing" textLength="356.1733" x="399.7788" y="525.3872">distribuirDados(ObjetoSincronizacao) [para todas UEv]</text></g><g class="message" data-participant-1="UEv" data-participant-2="UEg"><polygon fill="#181818" points="403.7788,555.5859,393.7788,559.5859,403.7788,563.5859,399.7788,559.5859" style="stroke:#181818;stroke-width:1;"/><line style="stroke:#181818;stroke-width:1;stroke-dasharray:2,2;" x1="397.7788" x2="943.6357" y1="559.5859" y2="559.5859"/><text fill="#000000" font-family="sans-serif" font-size="13" lengthAdjust="spacing" textLength="22.6421" x="409.7788" y="554.52">ack</text></g><g class="message" data-participant-1="UEg" data-participant-2="Administrador"><polygon fill="#181818" points="83.54,584.7188,73.54,588.7188,83.54,592.7188,79.54,588.7188" style="stroke:#181818;stroke-width:1;"/><line style="stroke:#181818;stroke-width:1;" x1="77.54" x2="391.7788" y1="588.7188" y2="588.7188"/><text fill="#000000" font-family="sans-serif" font-size="13" lengthAdjust="spacing" textLength="180.4258" x="89.54" y="583.6528">confirmarCriacao(idEleicao)</text></g><!--SRC=[VLAnJiD03DtlApmc4ftOEY2XKZO44YeBwk3U7PNXSewSIuNwDuY13-cFuKlRL6a3MtBsUy_lsObIyB2ONSC4PXpVQDqA2io3fztFxfiDsiG2jwwYI4qIT2ocHabagSQOO35V3_upqY8FtXvNxpxnCqKh76cBv_N5V6FCG08cDvaPfe0h8NbWrmRkvrDyKPfSrxOXRWeLvs-vPwdQW4AvzG_kfbrLFdaP43ljQGukhi2YhBafZJdA7IgAtc0WXt8sbS6Gm1xVkWo1ucRtbPkXU0lj9uFpu3-jxwgbWPvqqe_cHRXvwHJsl03_-vrdG364bSP7Dp8vEasUeywUtHMTnn9U0tCDkXTKrmxtrfVcShPz9hUfLPrjJcj4ei6mGT6vB-7aZZToG8sSHrOHGdb2oyaNFUGAWbh76KQd5XCtXuTSrZlrkganjfDutH7EbDlr-df-Md4vKrgr97VPKp72enbryIHss6JOqcJiYHtjnrzdsPs4L9gvQkULzfxANm00]--></g></svg>