<svg xmlns="http://www.w3.org/2000/svg" xmlns:xlink="http://www.w3.org/1999/xlink" contentStyleType="text/css" data-diagram-type="SEQUENCE" height="1066px" preserveAspectRatio="none" style="width:925px;height:1066px;background:#FFFFFF;" version="1.1" viewBox="0 0 925 1066" width="925px" zoomAndPan="magnify"><title>UC4 - Gerenciar Candidatos</title><defs/><g><text fill="#000000" font-family="sans-serif" font-size="14" font-weight="bold" lengthAdjust="spacing" textLength="217.2393" x="353.0044" y="27.9951">UC4 - Gerenciar Candidatos</text><rect fill="none" height="219.7344" style="stroke:#000000;stroke-width:1.5;" width="777.9214" x="10" y="193.8594"/><rect fill="none" height="219.7344" style="stroke:#000000;stroke-width:1.5;" width="777.9214" x="10" y="427.5938"/><rect fill="none" height="219.7344" style="stroke:#000000;stroke-width:1.5;" width="777.9214" x="10" y="661.3281"/><g><title>Administrador</title><rect fill="#000000" fill-opacity="0.00000" height="866.8672" width="8" x="68.54" y="118.5938"/><line style="stroke:#181818;stroke-width:0.5;stroke-dasharray:5,5;" x1="72" x2="72" y1="118.5938" y2="985.4609"/></g><g><title>UEg</title><rect fill="#000000" fill-opacity="0.00000" height="866.8672" width="8" x="318.3579" y="118.5938"/><line style="stroke:#181818;stroke-width:0.5;stroke-dasharray:5,5;" x1="321.3682" x2="321.3682" y1="118.5938" y2="985.4609"/></g><g><title>Candidato</title><rect fill="#000000" fill-opacity="0.00000" height="866.8672" width="8" x="653.4438" y="118.5938"/><line style="stroke:#181818;stroke-width:0.5;stroke-dasharray:5,5;" x1="656.6816" x2="656.6816" y1="118.5938" y2="985.4609"/></g><g><title>ObjetoSincronizacao</title><rect fill="#000000" fill-opacity="0.00000" height="866.8672" width="8" x="785.0381" y="118.5938"/><line style="stroke:#181818;stroke-width:0.5;stroke-dasharray:5,5;" x1="788.2061" x2="788.2061" y1="118.5938" y2="985.4609"/></g><g><title>UEv</title><rect fill="#000000" fill-opacity="0.00000" height="866.8672" width="8" x="894.5591" y="118.5938"/><line style="stroke:#181818;stroke-width:0.5;stroke-dasharray:5,5;" x1="897.8701" x2="897.8701" y1="118.5938" y2="985.4609"/></g><g class="participant participant-head" data-participant="Administrador"><text fill="#000000" font-family="sans-serif" font-size="14" lengthAdjust="spacing" textLength="99.0801" x="20" y="115.292">Administrador</text><ellipse cx="72.54" cy="50.7969" fill="#E2E2F0" rx="8" ry="8" style="stroke:#181818;stroke-width:0.5;"/><path d="M72.54,58.7969 L72.54,85.7969 M59.54,66.7969 L85.54,66.7969 M72.54,85.7969 L59.54,100.7969 M72.54,85.7969 L85.54,100.7969" fill="none" style="stroke:#181818;stroke-width:0.5;"/></g><g class="participant participant-tail" data-participant="Administrador"><text fill="#000000" font-family="sans-serif" font-size="14" lengthAdjust="spacing" textLength="99.0801" x="20" y="997.4561">Administrador</text><ellipse cx="72.54" cy="1009.2578" fill="#E2E2F0" rx="8" ry="8" style="stroke:#181818;stroke-width:0.5;"/><path d="M72.54,1017.2578 L72.54,1044.2578 M59.54,1025.2578 L85.54,1025.2578 M72.54,1044.2578 L59.54,1059.2578 M72.54,1044.2578 L85.54,1059.2578" fill="none" style="stroke:#181818;stroke-width:0.5;"/></g><g class="participant participant-head" data-participant="UEg"><rect fill="#E2E2F0" height="30.2969" rx="2.5" ry="2.5" style="stroke:#181818;stroke-width:0.5;" width="41.9795" x="301.3682" y="87.2969"/><text fill="#000000" font-family="sans-serif" font-size="14" lengthAdjust="spacing" textLength="27.9795" x="308.3682" y="107.292">UEg</text></g><g class="participant participant-tail" data-participant="UEg"><rect fill="#E2E2F0" height="30.2969" rx="2.5" ry="2.5" style="stroke:#181818;stroke-width:0.5;" width="41.9795" x="301.3682" y="984.4609"/><text fill="#000000" font-family="sans-serif" font-size="14" lengthAdjust="spacing" textLength="27.9795" x="308.3682" y="1004.4561">UEg</text></g><g class="participant participant-head" data-participant="Candidato"><rect fill="#E2E2F0" height="30.2969" rx="2.5" ry="2.5" style="stroke:#181818;stroke-width:0.5;" width="85.5244" x="614.6816" y="87.2969"/><text fill="#000000" font-family="sans-serif" font-size="14" lengthAdjust="spacing" textLength="71.5244" x="621.6816" y="107.292">Candidato</text></g><g class="participant participant-tail" data-participant="Candidato"><rect fill="#E2E2F0" height="30.2969" rx="2.5" ry="2.5" style="stroke:#181818;stroke-width:0.5;" width="85.5244" x="614.6816" y="984.4609"/><text fill="#000000" font-family="sans-serif" font-size="14" lengthAdjust="spacing" textLength="71.5244" x="621.6816" y="1004.4561">Candidato</text></g><g class="participant participant-head" data-participant="ObjetoSincronizacao"><rect fill="#E2E2F0" height="30.2969" rx="2.5" ry="2.5" style="stroke:#181818;stroke-width:0.5;" width="157.6641" x="710.2061" y="87.2969"/><text fill="#000000" font-family="sans-serif" font-size="14" lengthAdjust="spacing" textLength="143.6641" x="717.2061" y="107.292">ObjetoSincronizacao</text></g><g class="participant participant-tail" data-participant="ObjetoSincronizacao"><rect fill="#E2E2F0" height="30.2969" rx="2.5" ry="2.5" style="stroke:#181818;stroke-width:0.5;" width="157.6641" x="710.2061" y="984.4609"/><text fill="#000000" font-family="sans-serif" font-size="14" lengthAdjust="spacing" textLength="143.6641" x="717.2061" y="1004.4561">ObjetoSincronizacao</text></g><g class="participant participant-head" data-participant="UEv"><rect fill="#E2E2F0" height="30.2969" rx="2.5" ry="2.5" style="stroke:#181818;stroke-width:0.5;" width="41.3779" x="877.8701" y="87.2969"/><text fill="#000000" font-family="sans-serif" font-size="14" lengthAdjust="spacing" textLength="27.3779" x="884.8701" y="107.292">UEv</text></g><g class="participant participant-tail" data-participant="UEv"><rect fill="#E2E2F0" height="30.2969" rx="2.5" ry="2.5" style="stroke:#181818;stroke-width:0.5;" width="41.3779" x="877.8701" y="984.4609"/><text fill="#000000" font-family="sans-serif" font-size="14" lengthAdjust="spacing" textLength="27.3779" x="884.8701" y="1004.4561">UEv</text></g><g class="message" data-participant-1="Administrador" data-participant-2="UEg"><polygon fill="#181818" points="310.3579,145.7266,320.3579,149.7266,310.3579,153.7266,314.3579,149.7266" style="stroke:#181818;stroke-width:1;"/><line style="stroke:#181818;stroke-width:1;" x1="72.54" x2="316.3579" y1="149.7266" y2="149.7266"/><text fill="#000000" font-family="sans-serif" font-size="13" lengthAdjust="spacing" textLength="159.7134" x="79.54" y="144.6606">abrirGestaoCandidatos()</text></g><g class="message" data-participant-1="UEg" data-participant-2="Administrador"><polygon fill="#181818" points="83.54,174.8594,73.54,178.8594,83.54,182.8594,79.54,178.8594" style="stroke:#181818;stroke-width:1;"/><line style="stroke:#181818;stroke-width:1;" x1="77.54" x2="321.3579" y1="178.8594" y2="178.8594"/><text fill="#000000" font-family="sans-serif" font-size="13" lengthAdjust="spacing" textLength="165.166" x="89.54" y="173.7935">mostrarListaCandidatos()</text></g><path d="M10,193.8594 L74.4429,193.8594 L74.4429,200.9922 L64.4429,210.9922 L10,210.9922 L10,193.8594" fill="#EEEEEE" style="stroke:#000000;stroke-width:1.5;"/><rect fill="none" height="219.7344" style="stroke:#000000;stroke-width:1.5;" width="777.9214" x="10" y="193.8594"/><text fill="#000000" font-family="sans-serif" font-size="13" font-weight="bold" lengthAdjust="spacing" textLength="19.4429" x="25" y="206.9263">alt</text><text fill="#000000" font-family="sans-serif" font-size="11" font-weight="bold" lengthAdjust="spacing" textLength="191.1143" x="89.4429" y="206.0698">[Administrador cria candidato]</text><g class="message" data-participant-1="Administrador" data-participant-2="UEg"><polygon fill="#181818" points="310.3579,228.125,320.3579,232.125,310.3579,236.125,314.3579,232.125" style="stroke:#181818;stroke-width:1;"/><line style="stroke:#181818;stroke-width:1;" x1="72.54" x2="316.3579" y1="232.125" y2="232.125"/><text fill="#000000" font-family="sans-serif" font-size="13" lengthAdjust="spacing" textLength="211.5864" x="79.54" y="227.0591">criarCandidato(dadosCandidato)</text></g><g class="message" data-participant-1="UEg" data-participant-2="Candidato"><polygon fill="#181818" points="645.4438,257.2578,655.4438,261.2578,645.4438,265.2578,649.4438,261.2578" style="stroke:#181818;stroke-width:1;"/><line style="stroke:#181818;stroke-width:1;" x1="322.3579" x2="651.4438" y1="261.2578" y2="261.2578"/><text fill="#000000" font-family="sans-serif" font-size="13" lengthAdjust="spacing" textLength="272.0859" x="329.3579" y="256.1919">criarCandidato(idCandidato, novosDados)</text></g><g class="message" data-participant-1="Candidato" data-participant-2="Candidato"><line style="stroke:#181818;stroke-width:1;" x1="657.4438" x2="699.4438" y1="290.3906" y2="290.3906"/><line style="stroke:#181818;stroke-width:1;" x1="699.4438" x2="699.4438" y1="290.3906" y2="303.3906"/><line style="stroke:#181818;stroke-width:1;" x1="658.4438" x2="699.4438" y1="303.3906" y2="303.3906"/><polygon fill="#181818" points="668.4438,299.3906,658.4438,303.3906,668.4438,307.3906,664.4438,303.3906" style="stroke:#181818;stroke-width:1;"/><text fill="#000000" font-family="sans-serif" font-size="13" lengthAdjust="spacing" textLength="111.4775" x="664.4438" y="285.3247">salvarAlteracao()</text></g><g class="message" data-participant-1="Candidato" data-participant-2="UEg"><polygon fill="#181818" points="333.3579,328.5234,323.3579,332.5234,333.3579,336.5234,329.3579,332.5234" style="stroke:#181818;stroke-width:1;"/><line style="stroke:#181818;stroke-width:1;stroke-dasharray:2,2;" x1="327.3579" x2="656.4438" y1="332.5234" y2="332.5234"/><text fill="#000000" font-family="sans-serif" font-size="13" lengthAdjust="spacing" textLength="203.9248" x="339.3579" y="327.4575">validaCriacao(dadosCandidato)</text></g><line style="stroke:#000000;stroke-width:1;stroke-dasharray:2,2;" x1="10" x2="787.9214" y1="341.5234" y2="341.5234"/><text fill="#000000" font-family="sans-serif" font-size="11" font-weight="bold" lengthAdjust="spacing" textLength="217.3628" x="15" y="351.7339">[Dados inv&#225;lidos ou j&#225; registrados]</text><g class="message" data-participant-1="Candidato" data-participant-2="UEg"><polygon fill="#181818" points="333.3579,372.4609,323.3579,376.4609,333.3579,380.4609,329.3579,376.4609" style="stroke:#181818;stroke-width:1;"/><line style="stroke:#181818;stroke-width:1;" x1="327.3579" x2="656.4438" y1="376.4609" y2="376.4609"/><text fill="#000000" font-family="sans-serif" font-size="13" lengthAdjust="spacing" textLength="148.5415" x="339.3579" y="371.395">operacaoInvalida(erro)</text></g><g class="message" data-participant-1="UEg" data-participant-2="Administrador"><polygon fill="#181818" points="83.54,401.5938,73.54,405.5938,83.54,409.5938,79.54,405.5938" style="stroke:#181818;stroke-width:1;"/><line style="stroke:#181818;stroke-width:1;" x1="77.54" x2="321.3579" y1="405.5938" y2="405.5938"/><text fill="#000000" font-family="sans-serif" font-size="13" lengthAdjust="spacing" textLength="172.3008" x="89.54" y="400.5278">mostraErroOperacao(erro)</text></g><path d="M10,427.5938 L74.4429,427.5938 L74.4429,434.7266 L64.4429,444.7266 L10,444.7266 L10,427.5938" fill="#EEEEEE" style="stroke:#000000;stroke-width:1.5;"/><rect fill="none" height="219.7344" style="stroke:#000000;stroke-width:1.5;" width="777.9214" x="10" y="427.5938"/><text fill="#000000" font-family="sans-serif" font-size="13" font-weight="bold" lengthAdjust="spacing" textLength="19.4429" x="25" y="440.6606">alt</text><text fill="#000000" font-family="sans-serif" font-size="11" font-weight="bold" lengthAdjust="spacing" textLength="199.7617" x="89.4429" y="439.8042">[Administrador edita candidato]</text><g class="message" data-participant-1="Administrador" data-participant-2="UEg"><polygon fill="#181818" points="310.3579,461.8594,320.3579,465.8594,310.3579,469.8594,314.3579,465.8594" style="stroke:#181818;stroke-width:1;"/><line style="stroke:#181818;stroke-width:1;" x1="72.54" x2="316.3579" y1="465.8594" y2="465.8594"/><text fill="#000000" font-family="sans-serif" font-size="13" lengthAdjust="spacing" textLength="220.4414" x="79.54" y="460.7935">editarCandidato(dadosCandidato)</text></g><g class="message" data-participant-1="UEg" data-participant-2="Candidato"><polygon fill="#181818" points="645.4438,490.9922,655.4438,494.9922,645.4438,498.9922,649.4438,494.9922" style="stroke:#181818;stroke-width:1;"/><line style="stroke:#181818;stroke-width:1;" x1="322.3579" x2="651.4438" y1="494.9922" y2="494.9922"/><text fill="#000000" font-family="sans-serif" font-size="13" lengthAdjust="spacing" textLength="280.9409" x="329.3579" y="489.9263">editarCandidato(idCandidato, novosDados)</text></g><g class="message" data-participant-1="Candidato" data-participant-2="Candidato"><line style="stroke:#181818;stroke-width:1;" x1="657.4438" x2="699.4438" y1="524.125" y2="524.125"/><line style="stroke:#181818;stroke-width:1;" x1="699.4438" x2="699.4438" y1="524.125" y2="537.125"/><line style="stroke:#181818;stroke-width:1;" x1="658.4438" x2="699.4438" y1="537.125" y2="537.125"/><polygon fill="#181818" points="668.4438,533.125,658.4438,537.125,668.4438,541.125,664.4438,537.125" style="stroke:#181818;stroke-width:1;"/><text fill="#000000" font-family="sans-serif" font-size="13" lengthAdjust="spacing" textLength="111.4775" x="664.4438" y="519.0591">salvarAlteracao()</text></g><g class="message" data-participant-1="Candidato" data-participant-2="UEg"><polygon fill="#181818" points="333.3579,562.2578,323.3579,566.2578,333.3579,570.2578,329.3579,566.2578" style="stroke:#181818;stroke-width:1;"/><line style="stroke:#181818;stroke-width:1;" x1="327.3579" x2="656.4438" y1="566.2578" y2="566.2578"/><text fill="#000000" font-family="sans-serif" font-size="13" lengthAdjust="spacing" textLength="311.0859" x="339.3579" y="561.1919">novosDadosCandidatoEditado(dadosCandidato)</text></g><line style="stroke:#000000;stroke-width:1;stroke-dasharray:2,2;" x1="10" x2="787.9214" y1="575.2578" y2="575.2578"/><text fill="#000000" font-family="sans-serif" font-size="11" font-weight="bold" lengthAdjust="spacing" textLength="217.3628" x="15" y="585.4683">[Dados inv&#225;lidos ou j&#225; registrados]</text><g class="message" data-participant-1="Candidato" data-participant-2="UEg"><polygon fill="#181818" points="333.3579,606.1953,323.3579,610.1953,333.3579,614.1953,329.3579,610.1953" style="stroke:#181818;stroke-width:1;"/><line style="stroke:#181818;stroke-width:1;" x1="327.3579" x2="656.4438" y1="610.1953" y2="610.1953"/><text fill="#000000" font-family="sans-serif" font-size="13" lengthAdjust="spacing" textLength="148.5415" x="339.3579" y="605.1294">operacaoInvalida(erro)</text></g><g class="message" data-participant-1="UEg" data-participant-2="Administrador"><polygon fill="#181818" points="83.54,635.3281,73.54,639.3281,83.54,643.3281,79.54,639.3281" style="stroke:#181818;stroke-width:1;"/><line style="stroke:#181818;stroke-width:1;" x1="77.54" x2="321.3579" y1="639.3281" y2="639.3281"/><text fill="#000000" font-family="sans-serif" font-size="13" lengthAdjust="spacing" textLength="172.3008" x="89.54" y="634.2622">mostraErroOperacao(erro)</text></g><path d="M10,661.3281 L74.4429,661.3281 L74.4429,668.4609 L64.4429,678.4609 L10,678.4609 L10,661.3281" fill="#EEEEEE" style="stroke:#000000;stroke-width:1.5;"/><rect fill="none" height="219.7344" style="stroke:#000000;stroke-width:1.5;" width="777.9214" x="10" y="661.3281"/><text fill="#000000" font-family="sans-serif" font-size="13" font-weight="bold" lengthAdjust="spacing" textLength="19.4429" x="25" y="674.395">alt</text><text fill="#000000" font-family="sans-serif" font-size="11" font-weight="bold" lengthAdjust="spacing" textLength="204.4238" x="89.4429" y="673.5386">[Administrador exclui candidato]</text><g class="message" data-participant-1="Administrador" data-participant-2="UEg"><polygon fill="#181818" points="310.3579,695.5938,320.3579,699.5938,310.3579,703.5938,314.3579,699.5938" style="stroke:#181818;stroke-width:1;"/><line style="stroke:#181818;stroke-width:1;" x1="72.54" x2="316.3579" y1="699.5938" y2="699.5938"/><text fill="#000000" font-family="sans-serif" font-size="13" lengthAdjust="spacing" textLength="225.8179" x="79.54" y="694.5278">excluirCandidato(dadosCandidato)</text></g><g class="message" data-participant-1="UEg" data-participant-2="Candidato"><polygon fill="#181818" points="645.4438,724.7266,655.4438,728.7266,645.4438,732.7266,649.4438,728.7266" style="stroke:#181818;stroke-width:1;"/><line style="stroke:#181818;stroke-width:1;" x1="322.3579" x2="651.4438" y1="728.7266" y2="728.7266"/><text fill="#000000" font-family="sans-serif" font-size="13" lengthAdjust="spacing" textLength="198.4849" x="329.3579" y="723.6606">excluirCandidato(idCandidato)</text></g><g class="message" data-participant-1="Candidato" data-participant-2="Candidato"><line style="stroke:#181818;stroke-width:1;" x1="657.4438" x2="699.4438" y1="757.8594" y2="757.8594"/><line style="stroke:#181818;stroke-width:1;" x1="699.4438" x2="699.4438" y1="757.8594" y2="770.8594"/><line style="stroke:#181818;stroke-width:1;" x1="658.4438" x2="699.4438" y1="770.8594" y2="770.8594"/><polygon fill="#181818" points="668.4438,766.8594,658.4438,770.8594,668.4438,774.8594,664.4438,770.8594" style="stroke:#181818;stroke-width:1;"/><text fill="#000000" font-family="sans-serif" font-size="13" lengthAdjust="spacing" textLength="111.4775" x="664.4438" y="752.7935">salvarAlteracao()</text></g><g class="message" data-participant-1="Candidato" data-participant-2="UEg"><polygon fill="#181818" points="333.3579,795.9922,323.3579,799.9922,333.3579,803.9922,329.3579,799.9922" style="stroke:#181818;stroke-width:1;"/><line style="stroke:#181818;stroke-width:1;" x1="327.3579" x2="656.4438" y1="799.9922" y2="799.9922"/><text fill="#000000" font-family="sans-serif" font-size="13" lengthAdjust="spacing" textLength="175.7412" x="339.3579" y="794.9263">validaExcluirCandidadato()</text></g><line style="stroke:#000000;stroke-width:1;stroke-dasharray:2,2;" x1="10" x2="787.9214" y1="808.9922" y2="808.9922"/><text fill="#000000" font-family="sans-serif" font-size="11" font-weight="bold" lengthAdjust="spacing" textLength="217.3628" x="15" y="819.2026">[Dados inv&#225;lidos ou j&#225; registrados]</text><g class="message" data-participant-1="Candidato" data-participant-2="UEg"><polygon fill="#181818" points="333.3579,839.9297,323.3579,843.9297,333.3579,847.9297,329.3579,843.9297" style="stroke:#181818;stroke-width:1;"/><line style="stroke:#181818;stroke-width:1;" x1="327.3579" x2="656.4438" y1="843.9297" y2="843.9297"/><text fill="#000000" font-family="sans-serif" font-size="13" lengthAdjust="spacing" textLength="148.5415" x="339.3579" y="838.8638">operacaoInvalida(erro)</text></g><g class="message" data-participant-1="UEg" data-participant-2="Administrador"><polygon fill="#181818" points="83.54,869.0625,73.54,873.0625,83.54,877.0625,79.54,873.0625" style="stroke:#181818;stroke-width:1;"/><line style="stroke:#181818;stroke-width:1;" x1="77.54" x2="321.3579" y1="873.0625" y2="873.0625"/><text fill="#000000" font-family="sans-serif" font-size="13" lengthAdjust="spacing" textLength="172.3008" x="89.54" y="867.9966">mostraErroOperacao(erro)</text></g><g class="message" data-participant-1="UEg" data-participant-2="ObjetoSincronizacao"><polygon fill="#181818" points="777.0381,905.1953,787.0381,909.1953,777.0381,913.1953,781.0381,909.1953" style="stroke:#181818;stroke-width:1;"/><line style="stroke:#181818;stroke-width:1;" x1="322.3579" x2="783.0381" y1="909.1953" y2="909.1953"/><text fill="#000000" font-family="sans-serif" font-size="13" lengthAdjust="spacing" textLength="270.207" x="329.3579" y="904.1294">atualizarListaCandidatos(idEleicao, delta)</text></g><g class="message" data-participant-1="ObjetoSincronizacao" data-participant-2="UEg"><polygon fill="#181818" points="333.3579,934.3281,323.3579,938.3281,333.3579,942.3281,329.3579,938.3281" style="stroke:#181818;stroke-width:1;"/><line style="stroke:#181818;stroke-width:1;stroke-dasharray:2,2;" x1="327.3579" x2="788.0381" y1="938.3281" y2="938.3281"/><text fill="#000000" font-family="sans-serif" font-size="13" lengthAdjust="spacing" textLength="112.8296" x="339.3579" y="933.2622">pacoteAtualizado</text></g><g class="message" data-participant-1="UEg" data-participant-2="UEv"><polygon fill="#181818" points="886.5591,963.4609,896.5591,967.4609,886.5591,971.4609,890.5591,967.4609" style="stroke:#181818;stroke-width:1;"/><line style="stroke:#181818;stroke-width:1;" x1="322.3579" x2="892.5591" y1="967.4609" y2="967.4609"/><text fill="#000000" font-family="sans-serif" font-size="13" lengthAdjust="spacing" textLength="242.6392" x="329.3579" y="962.395">distribuirDados(ObjetoSincronizacao)</text></g><!--SRC=[pLJDYi8m4BxtAUROWjxsv651t28B2nuM7s1CWep4f4nYMNmRdyKNswIjqTOkAEp2tjBa- -jyC9wyLh1UlC0KbegL4OGC2pII97hhCXJUCipbdWmvpoWjPnMo9q4L6W_hSjlxJjJUxMgpKzv-aX5i3HrHe1ser5dMCu7fQzI66U26YPVAURJNN7cHnTS0whDciBVnp1_X2dlu3BKVe0KJWaY90Nw8476Sn78PNbtwB0AlovBkxZaaqta2njRMlKMLIBwo1X8ETOqyrrvnd5W-0ATuDUfmjGY64JLCfxHJq9W1cVfy2jXmj0VOdK_0QjlzhXicQRLjrPg_czObLyotlpm-_ZA0LXspOoWZnofGaln37JJ0PqiOalwWXKk-grfwBAEx78lwpplv4lf03vNI89zkPSYwgUKtgcYdKlPS6f__DlhB3XjPZt7n-KFmEDxlCfAbLXH04v1AUoooCO7hVgXGMA_cdPoq5zkmTSEhZ75f4qRLJ2KVqIg-0G00]--></g></svg>