<svg xmlns="http://www.w3.org/2000/svg" xmlns:xlink="http://www.w3.org/1999/xlink" contentStyleType="text/css" data-diagram-type="SEQUENCE" height="1227px" preserveAspectRatio="none" style="width:961px;height:1227px;background:#FFFFFF;" version="1.1" viewBox="0 0 961 1227" width="961px" zoomAndPan="magnify"><title>UC5 - Gerenciar Eleitores</title><defs/><g><text fill="#000000" font-family="sans-serif" font-size="14" font-weight="bold" lengthAdjust="spacing" textLength="198.3174" x="382.5227" y="27.9951">UC5 - Gerenciar Eleitores</text><rect fill="none" height="263.6719" style="stroke:#000000;stroke-width:1.5;" width="944.3628" x="10" y="193.8594"/><rect fill="none" height="263.6719" style="stroke:#000000;stroke-width:1.5;" width="680.3071" x="10" y="471.5313"/><rect fill="none" height="263.6719" style="stroke:#000000;stroke-width:1.5;" width="702.2129" x="10" y="749.2031"/><g><title>Administrador</title><rect fill="#000000" fill-opacity="0.00000" height="1027.8125" width="8" x="68.54" y="118.5938"/><line style="stroke:#181818;stroke-width:0.5;stroke-dasharray:5,5;" x1="72" x2="72" y1="118.5938" y2="1146.4063"/></g><g><title>UEg</title><rect fill="#000000" fill-opacity="0.00000" height="1027.8125" width="8" x="302.3936" y="118.5938"/><line style="stroke:#181818;stroke-width:0.5;stroke-dasharray:5,5;" x1="305.4038" x2="305.4038" y1="118.5938" y2="1146.4063"/></g><g><title>Eleitor</title><rect fill="#000000" fill-opacity="0.00000" height="1027.8125" width="8" x="571.7622" y="118.5938"/><line style="stroke:#181818;stroke-width:0.5;stroke-dasharray:5,5;" x1="575.2378" x2="575.2378" y1="118.5938" y2="1146.4063"/></g><g><title>ObjetoSincronizacao</title><rect fill="#000000" fill-opacity="0.00000" height="1027.8125" width="8" x="758.4058" y="118.5938"/><line style="stroke:#181818;stroke-width:0.5;stroke-dasharray:5,5;" x1="761.5737" x2="761.5737" y1="118.5938" y2="1146.4063"/></g><g><title>UEv</title><rect fill="#000000" fill-opacity="0.00000" height="1027.8125" width="8" x="867.9268" y="118.5938"/><line style="stroke:#181818;stroke-width:0.5;stroke-dasharray:5,5;" x1="871.2378" x2="871.2378" y1="118.5938" y2="1146.4063"/></g><g><title>Ueg</title><rect fill="#000000" fill-opacity="0.00000" height="1027.8125" width="8" x="919.4893" y="118.5938"/><line style="stroke:#181818;stroke-width:0.5;stroke-dasharray:5,5;" x1="922.6157" x2="922.6157" y1="118.5938" y2="1146.4063"/></g><g class="participant participant-head" data-participant="Administrador"><text fill="#000000" font-family="sans-serif" font-size="14" lengthAdjust="spacing" textLength="99.0801" x="20" y="115.292">Administrador</text><ellipse cx="72.54" cy="50.7969" fill="#E2E2F0" rx="8" ry="8" style="stroke:#181818;stroke-width:0.5;"/><path d="M72.54,58.7969 L72.54,85.7969 M59.54,66.7969 L85.54,66.7969 M72.54,85.7969 L59.54,100.7969 M72.54,85.7969 L85.54,100.7969" fill="none" style="stroke:#181818;stroke-width:0.5;"/></g><g class="participant participant-tail" data-participant="Administrador"><text fill="#000000" font-family="sans-serif" font-size="14" lengthAdjust="spacing" textLength="99.0801" x="20" y="1158.4014">Administrador</text><ellipse cx="72.54" cy="1170.2031" fill="#E2E2F0" rx="8" ry="8" style="stroke:#181818;stroke-width:0.5;"/><path d="M72.54,1178.2031 L72.54,1205.2031 M59.54,1186.2031 L85.54,1186.2031 M72.54,1205.2031 L59.54,1220.2031 M72.54,1205.2031 L85.54,1220.2031" fill="none" style="stroke:#181818;stroke-width:0.5;"/></g><g class="participant participant-head" data-participant="UEg"><rect fill="#E2E2F0" height="30.2969" rx="2.5" ry="2.5" style="stroke:#181818;stroke-width:0.5;" width="41.9795" x="285.4038" y="87.2969"/><text fill="#000000" font-family="sans-serif" font-size="14" lengthAdjust="spacing" textLength="27.9795" x="292.4038" y="107.292">UEg</text></g><g class="participant participant-tail" data-participant="UEg"><rect fill="#E2E2F0" height="30.2969" rx="2.5" ry="2.5" style="stroke:#181818;stroke-width:0.5;" width="41.9795" x="285.4038" y="1145.4063"/><text fill="#000000" font-family="sans-serif" font-size="14" lengthAdjust="spacing" textLength="27.9795" x="292.4038" y="1165.4014">UEg</text></g><g class="participant participant-head" data-participant="Eleitor"><rect fill="#E2E2F0" height="30.2969" rx="2.5" ry="2.5" style="stroke:#181818;stroke-width:0.5;" width="59.0488" x="546.2378" y="87.2969"/><text fill="#000000" font-family="sans-serif" font-size="14" lengthAdjust="spacing" textLength="45.0488" x="553.2378" y="107.292">Eleitor</text></g><g class="participant participant-tail" data-participant="Eleitor"><rect fill="#E2E2F0" height="30.2969" rx="2.5" ry="2.5" style="stroke:#181818;stroke-width:0.5;" width="59.0488" x="546.2378" y="1145.4063"/><text fill="#000000" font-family="sans-serif" font-size="14" lengthAdjust="spacing" textLength="45.0488" x="553.2378" y="1165.4014">Eleitor</text></g><g class="participant participant-head" data-participant="ObjetoSincronizacao"><rect fill="#E2E2F0" height="30.2969" rx="2.5" ry="2.5" style="stroke:#181818;stroke-width:0.5;" width="157.6641" x="683.5737" y="87.2969"/><text fill="#000000" font-family="sans-serif" font-size="14" lengthAdjust="spacing" textLength="143.6641" x="690.5737" y="107.292">ObjetoSincronizacao</text></g><g class="participant participant-tail" data-participant="ObjetoSincronizacao"><rect fill="#E2E2F0" height="30.2969" rx="2.5" ry="2.5" style="stroke:#181818;stroke-width:0.5;" width="157.6641" x="683.5737" y="1145.4063"/><text fill="#000000" font-family="sans-serif" font-size="14" lengthAdjust="spacing" textLength="143.6641" x="690.5737" y="1165.4014">ObjetoSincronizacao</text></g><g class="participant participant-head" data-participant="UEv"><rect fill="#E2E2F0" height="30.2969" rx="2.5" ry="2.5" style="stroke:#181818;stroke-width:0.5;" width="41.3779" x="851.2378" y="87.2969"/><text fill="#000000" font-family="sans-serif" font-size="14" lengthAdjust="spacing" textLength="27.3779" x="858.2378" y="107.292">UEv</text></g><g class="participant participant-tail" data-participant="UEv"><rect fill="#E2E2F0" height="30.2969" rx="2.5" ry="2.5" style="stroke:#181818;stroke-width:0.5;" width="41.3779" x="851.2378" y="1145.4063"/><text fill="#000000" font-family="sans-serif" font-size="14" lengthAdjust="spacing" textLength="27.3779" x="858.2378" y="1165.4014">UEv</text></g><g class="participant participant-head" data-participant="Ueg"><rect fill="#E2E2F0" height="30.2969" rx="2.5" ry="2.5" style="stroke:#181818;stroke-width:0.5;" width="41.7471" x="902.6157" y="87.2969"/><text fill="#000000" font-family="sans-serif" font-size="14" lengthAdjust="spacing" textLength="27.7471" x="909.6157" y="107.292">Ueg</text></g><g class="participant participant-tail" data-participant="Ueg"><rect fill="#E2E2F0" height="30.2969" rx="2.5" ry="2.5" style="stroke:#181818;stroke-width:0.5;" width="41.7471" x="902.6157" y="1145.4063"/><text fill="#000000" font-family="sans-serif" font-size="14" lengthAdjust="spacing" textLength="27.7471" x="909.6157" y="1165.4014">Ueg</text></g><g class="message" data-participant-1="Administrador" data-participant-2="UEg"><polygon fill="#181818" points="294.3936,145.7266,304.3936,149.7266,294.3936,153.7266,298.3936,149.7266" style="stroke:#181818;stroke-width:1;"/><line style="stroke:#181818;stroke-width:1;" x1="72.54" x2="300.3936" y1="149.7266" y2="149.7266"/><text fill="#000000" font-family="sans-serif" font-size="13" lengthAdjust="spacing" textLength="143.127" x="79.54" y="144.6606">abrirGestaoEleitores()</text></g><g class="message" data-participant-1="UEg" data-participant-2="Administrador"><polygon fill="#181818" points="83.54,174.8594,73.54,178.8594,83.54,182.8594,79.54,178.8594" style="stroke:#181818;stroke-width:1;"/><line style="stroke:#181818;stroke-width:1;" x1="77.54" x2="305.3936" y1="178.8594" y2="178.8594"/><text fill="#000000" font-family="sans-serif" font-size="13" lengthAdjust="spacing" textLength="177.9058" x="89.54" y="173.7935">mostrarDashboardGestao()</text></g><path d="M10,193.8594 L74.4429,193.8594 L74.4429,200.9922 L64.4429,210.9922 L10,210.9922 L10,193.8594" fill="#EEEEEE" style="stroke:#000000;stroke-width:1.5;"/><rect fill="none" height="263.6719" style="stroke:#000000;stroke-width:1.5;" width="944.3628" x="10" y="193.8594"/><text fill="#000000" font-family="sans-serif" font-size="13" font-weight="bold" lengthAdjust="spacing" textLength="19.4429" x="25" y="206.9263">alt</text><text fill="#000000" font-family="sans-serif" font-size="11" font-weight="bold" lengthAdjust="spacing" textLength="134.2881" x="89.4429" y="206.0698">[cadastrar individual]</text><g class="message" data-participant-1="Administrador" data-participant-2="UEg"><polygon fill="#181818" points="294.3936,228.125,304.3936,232.125,294.3936,236.125,298.3936,232.125" style="stroke:#181818;stroke-width:1;"/><line style="stroke:#181818;stroke-width:1;" x1="72.54" x2="300.3936" y1="232.125" y2="232.125"/><text fill="#000000" font-family="sans-serif" font-size="13" lengthAdjust="spacing" textLength="153.0293" x="79.54" y="227.0591">cadastrarEleitor(dados)</text></g><g class="message" data-participant-1="UEg" data-participant-2="Eleitor"><polygon fill="#181818" points="563.7622,257.2578,573.7622,261.2578,563.7622,265.2578,567.7622,261.2578" style="stroke:#181818;stroke-width:1;"/><line style="stroke:#181818;stroke-width:1;" x1="306.3936" x2="569.7622" y1="261.2578" y2="261.2578"/><text fill="#000000" font-family="sans-serif" font-size="13" lengthAdjust="spacing" textLength="78.7554" x="313.3936" y="256.1919">criar(dados)</text></g><g class="message" data-participant-1="Eleitor" data-participant-2="Eleitor"><line style="stroke:#181818;stroke-width:1;" x1="575.7622" x2="617.7622" y1="290.3906" y2="290.3906"/><line style="stroke:#181818;stroke-width:1;" x1="617.7622" x2="617.7622" y1="290.3906" y2="303.3906"/><line style="stroke:#181818;stroke-width:1;" x1="576.7622" x2="617.7622" y1="303.3906" y2="303.3906"/><polygon fill="#181818" points="586.7622,299.3906,576.7622,303.3906,586.7622,307.3906,582.7622,303.3906" style="stroke:#181818;stroke-width:1;"/><text fill="#000000" font-family="sans-serif" font-size="13" lengthAdjust="spacing" textLength="172.6436" x="582.7622" y="285.3247">validarEligibilidade(dados)</text></g><line style="stroke:#000000;stroke-width:1;stroke-dasharray:2,2;" x1="10" x2="954.3628" y1="312.3906" y2="312.3906"/><text fill="#000000" font-family="sans-serif" font-size="11" font-weight="bold" lengthAdjust="spacing" textLength="127.7783" x="15" y="322.6011">[eligibilidade v&#225;lida]</text><g class="message" data-participant-1="Eleitor" data-participant-2="UEg"><polygon fill="#181818" points="317.3936,343.3281,307.3936,347.3281,317.3936,351.3281,313.3936,347.3281" style="stroke:#181818;stroke-width:1;"/><line style="stroke:#181818;stroke-width:1;stroke-dasharray:2,2;" x1="311.3936" x2="574.7622" y1="347.3281" y2="347.3281"/><text fill="#000000" font-family="sans-serif" font-size="13" lengthAdjust="spacing" textLength="200.7954" x="323.3936" y="342.2622">eleitorCriadoSucesso(idEleitor)</text></g><g class="message" data-participant-1="UEg" data-participant-2="Administrador"><polygon fill="#181818" points="83.54,372.4609,73.54,376.4609,83.54,380.4609,79.54,376.4609" style="stroke:#181818;stroke-width:1;"/><line style="stroke:#181818;stroke-width:1;" x1="77.54" x2="305.3936" y1="376.4609" y2="376.4609"/><text fill="#000000" font-family="sans-serif" font-size="13" lengthAdjust="spacing" textLength="145.3232" x="89.54" y="371.395">mostrarEleitorCriado()</text></g><line style="stroke:#000000;stroke-width:1;stroke-dasharray:2,2;" x1="10" x2="954.3628" y1="385.4609" y2="385.4609"/><text fill="#000000" font-family="sans-serif" font-size="11" font-weight="bold" lengthAdjust="spacing" textLength="139.3799" x="15" y="395.6714">[eligibilidade inv&#225;lida]</text><g class="message" data-participant-1="Eleitor" data-participant-2="Ueg"><polygon fill="#181818" points="911.4893,416.3984,921.4893,420.3984,911.4893,424.3984,915.4893,420.3984" style="stroke:#181818;stroke-width:1;"/><line style="stroke:#181818;stroke-width:1;" x1="575.7622" x2="917.4893" y1="420.3984" y2="420.3984"/><text fill="#000000" font-family="sans-serif" font-size="13" lengthAdjust="spacing" textLength="136.6016" x="582.7622" y="415.3325">erroCriarEleitor(erro)</text></g><g class="message" data-participant-1="UEg" data-participant-2="Administrador"><polygon fill="#181818" points="83.54,445.5313,73.54,449.5313,83.54,453.5313,79.54,449.5313" style="stroke:#181818;stroke-width:1;"/><line style="stroke:#181818;stroke-width:1;" x1="77.54" x2="305.3936" y1="449.5313" y2="449.5313"/><text fill="#000000" font-family="sans-serif" font-size="13" lengthAdjust="spacing" textLength="114.7847" x="89.54" y="444.4653">mostrarErro(erro)</text></g><path d="M10,471.5313 L74.4429,471.5313 L74.4429,478.6641 L64.4429,488.6641 L10,488.6641 L10,471.5313" fill="#EEEEEE" style="stroke:#000000;stroke-width:1.5;"/><rect fill="none" height="263.6719" style="stroke:#000000;stroke-width:1.5;" width="680.3071" x="10" y="471.5313"/><text fill="#000000" font-family="sans-serif" font-size="13" font-weight="bold" lengthAdjust="spacing" textLength="19.4429" x="25" y="484.5981">alt</text><text fill="#000000" font-family="sans-serif" font-size="11" font-weight="bold" lengthAdjust="spacing" textLength="152.1738" x="89.4429" y="483.7417">[Editar dados de Eleitor]</text><g class="message" data-participant-1="Administrador" data-participant-2="UEg"><polygon fill="#181818" points="294.3936,505.7969,304.3936,509.7969,294.3936,513.7969,298.3936,509.7969" style="stroke:#181818;stroke-width:1;"/><line style="stroke:#181818;stroke-width:1;" x1="72.54" x2="300.3936" y1="509.7969" y2="509.7969"/><text fill="#000000" font-family="sans-serif" font-size="13" lengthAdjust="spacing" textLength="191.4009" x="79.54" y="504.731">editarEleitor(idEleitor, dados)</text></g><g class="message" data-participant-1="UEg" data-participant-2="Eleitor"><polygon fill="#181818" points="563.7622,534.9297,573.7622,538.9297,563.7622,542.9297,567.7622,538.9297" style="stroke:#181818;stroke-width:1;"/><line style="stroke:#181818;stroke-width:1;" x1="306.3936" x2="569.7622" y1="538.9297" y2="538.9297"/><text fill="#000000" font-family="sans-serif" font-size="13" lengthAdjust="spacing" textLength="245.3687" x="313.3936" y="533.8638">atualizaDadosEleitor(idEleitor, dados)</text></g><g class="message" data-participant-1="Eleitor" data-participant-2="Eleitor"><line style="stroke:#181818;stroke-width:1;" x1="575.7622" x2="617.7622" y1="568.0625" y2="568.0625"/><line style="stroke:#181818;stroke-width:1;" x1="617.7622" x2="617.7622" y1="568.0625" y2="581.0625"/><line style="stroke:#181818;stroke-width:1;" x1="576.7622" x2="617.7622" y1="581.0625" y2="581.0625"/><polygon fill="#181818" points="586.7622,577.0625,576.7622,581.0625,586.7622,585.0625,582.7622,581.0625" style="stroke:#181818;stroke-width:1;"/><text fill="#000000" font-family="sans-serif" font-size="13" lengthAdjust="spacing" textLength="95.5449" x="582.7622" y="562.9966">validarDados()</text></g><line style="stroke:#000000;stroke-width:1;stroke-dasharray:2,2;" x1="10" x2="690.3071" y1="590.0625" y2="590.0625"/><text fill="#000000" font-family="sans-serif" font-size="11" font-weight="bold" lengthAdjust="spacing" textLength="106.874" x="15" y="600.2729">[dados inv&#225;lidos]</text><g class="message" data-participant-1="Eleitor" data-participant-2="UEg"><polygon fill="#181818" points="317.3936,621,307.3936,625,317.3936,629,313.3936,625" style="stroke:#181818;stroke-width:1;"/><line style="stroke:#181818;stroke-width:1;" x1="311.3936" x2="574.7622" y1="625" y2="625"/><text fill="#000000" font-family="sans-serif" font-size="13" lengthAdjust="spacing" textLength="156.5903" x="323.3936" y="619.9341">erroAtualizaDados(erro)</text></g><g class="message" data-participant-1="UEg" data-participant-2="Administrador"><polygon fill="#181818" points="83.54,650.1328,73.54,654.1328,83.54,658.1328,79.54,654.1328" style="stroke:#181818;stroke-width:1;"/><line style="stroke:#181818;stroke-width:1;" x1="77.54" x2="305.3936" y1="654.1328" y2="654.1328"/><text fill="#000000" font-family="sans-serif" font-size="13" lengthAdjust="spacing" textLength="114.7847" x="89.54" y="649.0669">mostrarErro(erro)</text></g><line style="stroke:#000000;stroke-width:1;stroke-dasharray:2,2;" x1="10" x2="690.3071" y1="663.1328" y2="663.1328"/><text fill="#000000" font-family="sans-serif" font-size="11" font-weight="bold" lengthAdjust="spacing" textLength="95.2725" x="15" y="673.3433">[dados v&#225;lidos]</text><g class="message" data-participant-1="Eleitor" data-participant-2="UEg"><polygon fill="#181818" points="317.3936,694.0703,307.3936,698.0703,317.3936,702.0703,313.3936,698.0703" style="stroke:#181818;stroke-width:1;"/><line style="stroke:#181818;stroke-width:1;" x1="311.3936" x2="574.7622" y1="698.0703" y2="698.0703"/><text fill="#000000" font-family="sans-serif" font-size="13" lengthAdjust="spacing" textLength="216.8613" x="323.3936" y="693.0044">dadosAtualizadosSucesso(dados)</text></g><g class="message" data-participant-1="UEg" data-participant-2="Administrador"><polygon fill="#181818" points="83.54,723.2031,73.54,727.2031,83.54,731.2031,79.54,727.2031" style="stroke:#181818;stroke-width:1;"/><line style="stroke:#181818;stroke-width:1;" x1="77.54" x2="305.3936" y1="727.2031" y2="727.2031"/><text fill="#000000" font-family="sans-serif" font-size="13" lengthAdjust="spacing" textLength="209.8535" x="89.54" y="722.1372">mostrarDadosAtualizado(dados)</text></g><path d="M10,749.2031 L74.4429,749.2031 L74.4429,756.3359 L64.4429,766.3359 L10,766.3359 L10,749.2031" fill="#EEEEEE" style="stroke:#000000;stroke-width:1.5;"/><rect fill="none" height="263.6719" style="stroke:#000000;stroke-width:1.5;" width="702.2129" x="10" y="749.2031"/><text fill="#000000" font-family="sans-serif" font-size="13" font-weight="bold" lengthAdjust="spacing" textLength="19.4429" x="25" y="762.27">alt</text><text fill="#000000" font-family="sans-serif" font-size="11" font-weight="bold" lengthAdjust="spacing" textLength="156.8359" x="89.4429" y="761.4136">[Excluir dados de Eleitor]</text><g class="message" data-participant-1="Administrador" data-participant-2="UEg"><polygon fill="#181818" points="294.3936,783.4688,304.3936,787.4688,294.3936,791.4688,298.3936,787.4688" style="stroke:#181818;stroke-width:1;"/><line style="stroke:#181818;stroke-width:1;" x1="72.54" x2="300.3936" y1="787.4688" y2="787.4688"/><text fill="#000000" font-family="sans-serif" font-size="13" lengthAdjust="spacing" textLength="208.127" x="79.54" y="782.4028">removerEleitor(idEleitor, dados)</text></g><g class="message" data-participant-1="UEg" data-participant-2="Eleitor"><polygon fill="#181818" points="563.7622,812.6016,573.7622,816.6016,563.7622,820.6016,567.7622,816.6016" style="stroke:#181818;stroke-width:1;"/><line style="stroke:#181818;stroke-width:1;" x1="306.3936" x2="569.7622" y1="816.6016" y2="816.6016"/><text fill="#000000" font-family="sans-serif" font-size="13" lengthAdjust="spacing" textLength="243.7373" x="313.3936" y="811.5356">removeDadosEleitor(idEleitor, dados)</text></g><g class="message" data-participant-1="Eleitor" data-participant-2="Eleitor"><line style="stroke:#181818;stroke-width:1;" x1="575.7622" x2="617.7622" y1="845.7344" y2="845.7344"/><line style="stroke:#181818;stroke-width:1;" x1="617.7622" x2="617.7622" y1="845.7344" y2="858.7344"/><line style="stroke:#181818;stroke-width:1;" x1="576.7622" x2="617.7622" y1="858.7344" y2="858.7344"/><polygon fill="#181818" points="586.7622,854.7344,576.7622,858.7344,586.7622,862.7344,582.7622,858.7344" style="stroke:#181818;stroke-width:1;"/><text fill="#000000" font-family="sans-serif" font-size="13" lengthAdjust="spacing" textLength="117.4507" x="582.7622" y="840.6685">validarOperacao()</text></g><line style="stroke:#000000;stroke-width:1;stroke-dasharray:2,2;" x1="10" x2="712.2129" y1="867.7344" y2="867.7344"/><text fill="#000000" font-family="sans-serif" font-size="11" font-weight="bold" lengthAdjust="spacing" textLength="120.1567" x="15" y="877.9448">[opera&#231;&#227;o inv&#225;lida]</text><g class="message" data-participant-1="Eleitor" data-participant-2="UEg"><polygon fill="#181818" points="317.3936,898.6719,307.3936,902.6719,317.3936,906.6719,313.3936,902.6719" style="stroke:#181818;stroke-width:1;"/><line style="stroke:#181818;stroke-width:1;" x1="311.3936" x2="574.7622" y1="902.6719" y2="902.6719"/><text fill="#000000" font-family="sans-serif" font-size="13" lengthAdjust="spacing" textLength="148.2432" x="323.3936" y="897.606">erroExcluirDados(erro)</text></g><g class="message" data-participant-1="UEg" data-participant-2="Administrador"><polygon fill="#181818" points="83.54,927.8047,73.54,931.8047,83.54,935.8047,79.54,931.8047" style="stroke:#181818;stroke-width:1;"/><line style="stroke:#181818;stroke-width:1;" x1="77.54" x2="305.3936" y1="931.8047" y2="931.8047"/><text fill="#000000" font-family="sans-serif" font-size="13" lengthAdjust="spacing" textLength="114.7847" x="89.54" y="926.7388">mostrarErro(erro)</text></g><line style="stroke:#000000;stroke-width:1;stroke-dasharray:2,2;" x1="10" x2="712.2129" y1="940.8047" y2="940.8047"/><text fill="#000000" font-family="sans-serif" font-size="11" font-weight="bold" lengthAdjust="spacing" textLength="108.5552" x="15" y="951.0151">[opera&#231;&#227;o v&#225;lida]</text><g class="message" data-participant-1="Eleitor" data-participant-2="UEg"><polygon fill="#181818" points="317.3936,971.7422,307.3936,975.7422,317.3936,979.7422,313.3936,975.7422" style="stroke:#181818;stroke-width:1;"/><line style="stroke:#181818;stroke-width:1;" x1="311.3936" x2="574.7622" y1="975.7422" y2="975.7422"/><text fill="#000000" font-family="sans-serif" font-size="13" lengthAdjust="spacing" textLength="203.1694" x="323.3936" y="970.6763">dadosExcluidosSucesso(dados)</text></g><g class="message" data-participant-1="UEg" data-participant-2="Administrador"><polygon fill="#181818" points="83.54,1000.875,73.54,1004.875,83.54,1008.875,79.54,1004.875" style="stroke:#181818;stroke-width:1;"/><line style="stroke:#181818;stroke-width:1;" x1="77.54" x2="305.3936" y1="1004.875" y2="1004.875"/><text fill="#000000" font-family="sans-serif" font-size="13" lengthAdjust="spacing" textLength="179.5815" x="89.54" y="999.8091">mostrarRemovidoSucesso()</text></g><g class="message" data-participant-1="UEg" data-participant-2="ObjetoSincronizacao"><polygon fill="#181818" points="750.4058,1037.0078,760.4058,1041.0078,750.4058,1045.0078,754.4058,1041.0078" style="stroke:#181818;stroke-width:1;"/><line style="stroke:#181818;stroke-width:1;" x1="306.3936" x2="756.4058" y1="1041.0078" y2="1041.0078"/><text fill="#000000" font-family="sans-serif" font-size="13" lengthAdjust="spacing" textLength="154.064" x="313.3936" y="1035.9419">atualizarListaEleitores()</text></g><g class="message" data-participant-1="ObjetoSincronizacao" data-participant-2="UEg"><polygon fill="#181818" points="317.3936,1066.1406,307.3936,1070.1406,317.3936,1074.1406,313.3936,1070.1406" style="stroke:#181818;stroke-width:1;"/><line style="stroke:#181818;stroke-width:1;stroke-dasharray:2,2;" x1="311.3936" x2="761.4058" y1="1070.1406" y2="1070.1406"/><text fill="#000000" font-family="sans-serif" font-size="13" lengthAdjust="spacing" textLength="112.8296" x="323.3936" y="1065.0747">pacoteAtualizado</text></g><g class="message" data-participant-1="UEg" data-participant-2="UEv"><polygon fill="#181818" points="859.9268,1095.2734,869.9268,1099.2734,859.9268,1103.2734,863.9268,1099.2734" style="stroke:#181818;stroke-width:1;"/><line style="stroke:#181818;stroke-width:1;" x1="306.3936" x2="865.9268" y1="1099.2734" y2="1099.2734"/><text fill="#000000" font-family="sans-serif" font-size="13" lengthAdjust="spacing" textLength="387.4419" x="313.3936" y="1094.2075">distribuirDados(ObjetoSincronizacao) [para UEv designada]</text></g><g class="message" data-participant-1="UEg" data-participant-2="Administrador"><polygon fill="#181818" points="83.54,1124.4063,73.54,1128.4063,83.54,1132.4063,79.54,1128.4063" style="stroke:#181818;stroke-width:1;"/><line style="stroke:#181818;stroke-width:1;" x1="77.54" x2="305.3936" y1="1128.4063" y2="1128.4063"/><text fill="#000000" font-family="sans-serif" font-size="13" lengthAdjust="spacing" textLength="135.8525" x="89.54" y="1123.3403">confirmarOperacao()</text></g><!--SRC=[fLJ1Rjim3BtxAtHCWFQuImu3YjRePK215JqDFT0Ibt5mf81IZA9_K-om3ycFbR8jMmwYObalYKpoyT7loGmKMbHFjr_KjRf7Hgi9MDKjKd2ClW8j_-h6xCYI3mp6SRK73gHf3pQeftgxU1wHYzX3ynk3UoIhsLbw1Gtkf4TNLGiATVqrTbOR1GqJtwCFuAQXLkig9gLc2TgedOjdlWF_gt70PW1AFRH1QJ3GfnLPGnsP0xILKWNYgNgaNHd9-xK0Hkun7ajPD9lpAR6ewQ0b4vlHbXgAPuCp15kFyfFbL7TyYwUytpGR3f5RuJNkyQ3HUxSYCnPcCnRqgNFygZ00sJCZo0JOJy3i8dnI9mR-WLYgfj8AhQbwPsf3GMpfvL12dIvHsHti4ObyUlKhLNO9WlWjj-ykLdo4_CY_7ZmhDaoSb7B-HAewINMJS_-FLXbRaMip52GkEQQhSIfAyRDPm1Dijkb5jmUwo2V6dUlmCgC6pATiUjWZnpKpE-LYvFZt-CSLB_RarlYUdpCh8opHZOODT9VRzJtgHFC269qQGMUMRlOHy3Vf1_b6FLS_RvmzQ1TmlXk9HLQtP4qSZff9ipEzrkg7h7pe0GOzRQtir-VI7jVE_YJUvKQ-0m00]--></g></svg>