<svg xmlns="http://www.w3.org/2000/svg" xmlns:xlink="http://www.w3.org/1999/xlink" contentStyleType="text/css" data-diagram-type="SEQUENCE" height="855px" preserveAspectRatio="none" style="width:964px;height:855px;background:#FFFFFF;" version="1.1" viewBox="0 0 964 855" width="964px" zoomAndPan="magnify"><title>UC6 - Apurar Resultados</title><defs/><g><text fill="#000000" font-family="sans-serif" font-size="14" font-weight="bold" lengthAdjust="spacing" textLength="193.3818" x="384.6758" y="27.9951">UC6 - Apurar Resultados</text><rect fill="none" height="388.6797" style="stroke:#000000;stroke-width:1.5;" width="871.6582" x="10" y="193.8594"/><rect fill="none" height="31.9375" style="stroke:#000000;stroke-width:1.5;" width="160.8091" x="30" y="311.3906"/><g><title>Administrador</title><rect fill="#000000" fill-opacity="0.00000" height="655.7422" width="8" x="68.54" y="118.5938"/><line style="stroke:#181818;stroke-width:0.5;stroke-dasharray:5,5;" x1="72" x2="72" y1="118.5938" y2="774.3359"/></g><g><title>UEg</title><rect fill="#000000" fill-opacity="0.00000" height="655.7422" width="8" x="344.7197" y="118.5938"/><line style="stroke:#181818;stroke-width:0.5;stroke-dasharray:5,5;" x1="347.73" x2="347.73" y1="118.5938" y2="774.3359"/></g><g><title>UEv</title><rect fill="#000000" fill-opacity="0.00000" height="655.7422" width="8" x="753.0513" y="118.5938"/><line style="stroke:#181818;stroke-width:0.5;stroke-dasharray:5,5;" x1="756.3623" x2="756.3623" y1="118.5938" y2="774.3359"/></g><g><title>Resultado</title><rect fill="#000000" fill-opacity="0.00000" height="655.7422" width="8" x="825.6992" y="118.5938"/><line style="stroke:#181818;stroke-width:0.5;stroke-dasharray:5,5;" x1="828.7402" x2="828.7402" y1="118.5938" y2="774.3359"/></g><g><title>Relatorio</title><rect fill="#000000" fill-opacity="0.00000" height="655.7422" width="8" x="916.1958" y="118.5938"/><line style="stroke:#181818;stroke-width:0.5;stroke-dasharray:5,5;" x1="919.6582" x2="919.6582" y1="118.5938" y2="774.3359"/></g><g class="participant participant-head" data-participant="Administrador"><text fill="#000000" font-family="sans-serif" font-size="14" lengthAdjust="spacing" textLength="99.0801" x="20" y="115.292">Administrador</text><ellipse cx="72.54" cy="50.7969" fill="#E2E2F0" rx="8" ry="8" style="stroke:#181818;stroke-width:0.5;"/><path d="M72.54,58.7969 L72.54,85.7969 M59.54,66.7969 L85.54,66.7969 M72.54,85.7969 L59.54,100.7969 M72.54,85.7969 L85.54,100.7969" fill="none" style="stroke:#181818;stroke-width:0.5;"/></g><g class="participant participant-tail" data-participant="Administrador"><text fill="#000000" font-family="sans-serif" font-size="14" lengthAdjust="spacing" textLength="99.0801" x="20" y="786.3311">Administrador</text><ellipse cx="72.54" cy="798.1328" fill="#E2E2F0" rx="8" ry="8" style="stroke:#181818;stroke-width:0.5;"/><path d="M72.54,806.1328 L72.54,833.1328 M59.54,814.1328 L85.54,814.1328 M72.54,833.1328 L59.54,848.1328 M72.54,833.1328 L85.54,848.1328" fill="none" style="stroke:#181818;stroke-width:0.5;"/></g><g class="participant participant-head" data-participant="UEg"><rect fill="#E2E2F0" height="30.2969" rx="2.5" ry="2.5" style="stroke:#181818;stroke-width:0.5;" width="41.9795" x="327.73" y="87.2969"/><text fill="#000000" font-family="sans-serif" font-size="14" lengthAdjust="spacing" textLength="27.9795" x="334.73" y="107.292">UEg</text></g><g class="participant participant-tail" data-participant="UEg"><rect fill="#E2E2F0" height="30.2969" rx="2.5" ry="2.5" style="stroke:#181818;stroke-width:0.5;" width="41.9795" x="327.73" y="773.3359"/><text fill="#000000" font-family="sans-serif" font-size="14" lengthAdjust="spacing" textLength="27.9795" x="334.73" y="793.3311">UEg</text></g><g class="participant participant-head" data-participant="UEv"><rect fill="#E2E2F0" height="30.2969" rx="2.5" ry="2.5" style="stroke:#181818;stroke-width:0.5;" width="41.3779" x="736.3623" y="87.2969"/><text fill="#000000" font-family="sans-serif" font-size="14" lengthAdjust="spacing" textLength="27.3779" x="743.3623" y="107.292">UEv</text></g><g class="participant participant-tail" data-participant="UEv"><rect fill="#E2E2F0" height="30.2969" rx="2.5" ry="2.5" style="stroke:#181818;stroke-width:0.5;" width="41.3779" x="736.3623" y="773.3359"/><text fill="#000000" font-family="sans-serif" font-size="14" lengthAdjust="spacing" textLength="27.3779" x="743.3623" y="793.3311">UEv</text></g><g class="participant participant-head" data-participant="Resultado"><rect fill="#E2E2F0" height="30.2969" rx="2.5" ry="2.5" style="stroke:#181818;stroke-width:0.5;" width="83.918" x="787.7402" y="87.2969"/><text fill="#000000" font-family="sans-serif" font-size="14" lengthAdjust="spacing" textLength="69.918" x="794.7402" y="107.292">Resultado</text></g><g class="participant participant-tail" data-participant="Resultado"><rect fill="#E2E2F0" height="30.2969" rx="2.5" ry="2.5" style="stroke:#181818;stroke-width:0.5;" width="83.918" x="787.7402" y="773.3359"/><text fill="#000000" font-family="sans-serif" font-size="14" lengthAdjust="spacing" textLength="69.918" x="794.7402" y="793.3311">Resultado</text></g><g class="participant participant-head" data-participant="Relatorio"><rect fill="#E2E2F0" height="30.2969" rx="2.5" ry="2.5" style="stroke:#181818;stroke-width:0.5;" width="77.0752" x="881.6582" y="87.2969"/><text fill="#000000" font-family="sans-serif" font-size="14" lengthAdjust="spacing" textLength="63.0752" x="888.6582" y="107.292">Relatorio</text></g><g class="participant participant-tail" data-participant="Relatorio"><rect fill="#E2E2F0" height="30.2969" rx="2.5" ry="2.5" style="stroke:#181818;stroke-width:0.5;" width="77.0752" x="881.6582" y="773.3359"/><text fill="#000000" font-family="sans-serif" font-size="14" lengthAdjust="spacing" textLength="63.0752" x="888.6582" y="793.3311">Relatorio</text></g><g class="message" data-participant-1="Administrador" data-participant-2="UEg"><polygon fill="#181818" points="336.7197,145.7266,346.7197,149.7266,336.7197,153.7266,340.7197,149.7266" style="stroke:#181818;stroke-width:1;"/><line style="stroke:#181818;stroke-width:1;" x1="72.54" x2="342.7197" y1="149.7266" y2="149.7266"/><text fill="#000000" font-family="sans-serif" font-size="13" lengthAdjust="spacing" textLength="169.8062" x="79.54" y="144.6606">iniciarApuracao(idEleicao)</text></g><g class="message" data-participant-1="UEg" data-participant-2="UEv"><polygon fill="#181818" points="745.0513,174.8594,755.0513,178.8594,745.0513,182.8594,749.0513,178.8594" style="stroke:#181818;stroke-width:1;"/><line style="stroke:#181818;stroke-width:1;" x1="348.7197" x2="751.0513" y1="178.8594" y2="178.8594"/><text fill="#000000" font-family="sans-serif" font-size="13" lengthAdjust="spacing" textLength="384.3315" x="355.7197" y="173.7935">verificarTransmissaoResultados(idEleicao) [para cada UEv]</text></g><path d="M10,193.8594 L74.4429,193.8594 L74.4429,200.9922 L64.4429,210.9922 L10,210.9922 L10,193.8594" fill="#EEEEEE" style="stroke:#000000;stroke-width:1.5;"/><rect fill="none" height="388.6797" style="stroke:#000000;stroke-width:1.5;" width="871.6582" x="10" y="193.8594"/><text fill="#000000" font-family="sans-serif" font-size="13" font-weight="bold" lengthAdjust="spacing" textLength="19.4429" x="25" y="206.9263">alt</text><text fill="#000000" font-family="sans-serif" font-size="11" font-weight="bold" lengthAdjust="spacing" textLength="96.5508" x="89.4429" y="206.0698">[UEv pendente]</text><g class="message" data-participant-1="UEv" data-participant-2="UEg"><polygon fill="#181818" points="359.7197,228.125,349.7197,232.125,359.7197,236.125,355.7197,232.125" style="stroke:#181818;stroke-width:1;"/><line style="stroke:#181818;stroke-width:1;stroke-dasharray:2,2;" x1="353.7197" x2="756.0513" y1="232.125" y2="232.125"/><text fill="#000000" font-family="sans-serif" font-size="13" lengthAdjust="spacing" textLength="93.647" x="365.7197" y="227.0591">naoTransmitiu</text></g><g class="message" data-participant-1="UEg" data-participant-2="Administrador"><polygon fill="#181818" points="83.54,257.2578,73.54,261.2578,83.54,265.2578,79.54,261.2578" style="stroke:#181818;stroke-width:1;"/><line style="stroke:#181818;stroke-width:1;" x1="77.54" x2="347.7197" y1="261.2578" y2="261.2578"/><text fill="#000000" font-family="sans-serif" font-size="13" lengthAdjust="spacing" textLength="136.4048" x="89.54" y="256.1919">listarUEvPendentes()</text></g><g class="message" data-participant-1="Administrador" data-participant-2="UEg"><polygon fill="#181818" points="336.7197,289.3906,346.7197,293.3906,336.7197,297.3906,340.7197,293.3906" style="stroke:#181818;stroke-width:1;"/><line style="stroke:#181818;stroke-width:1;" x1="72.54" x2="342.7197" y1="293.3906" y2="293.3906"/><text fill="#000000" font-family="sans-serif" font-size="13" lengthAdjust="spacing" textLength="209.2505" x="79.54" y="288.3247">decidirProsseguir(sim|aguardar)</text></g><path d="M353,274.2578 L353,299.2578 L640,299.2578 L640,284.2578 L630,274.2578 L353,274.2578" fill="#FEFFDD" style="stroke:#181818;stroke-width:0.5;"/><path d="M630,274.2578 L630,284.2578 L640,284.2578 L630,274.2578" fill="#FEFFDD" style="stroke:#181818;stroke-width:0.5;"/><text fill="#000000" font-family="sans-serif" font-size="13" lengthAdjust="spacing" textLength="266.0811" x="359" y="291.3247">Continua apura&#231;&#227;o com dados recebidos</text><path d="M30,311.3906 L94.4429,311.3906 L94.4429,318.5234 L84.4429,328.5234 L30,328.5234 L30,311.3906" fill="#EEEEEE" style="stroke:#000000;stroke-width:1.5;"/><rect fill="none" height="31.9375" style="stroke:#000000;stroke-width:1.5;" width="160.8091" x="30" y="311.3906"/><text fill="#000000" font-family="sans-serif" font-size="13" font-weight="bold" lengthAdjust="spacing" textLength="19.4429" x="45" y="324.4575">alt</text><text fill="#000000" font-family="sans-serif" font-size="11" font-weight="bold" lengthAdjust="spacing" textLength="76.3662" x="109.4429" y="323.6011">[prosseguir]</text><line style="stroke:#000000;stroke-width:1;stroke-dasharray:2,2;" x1="30" x2="190.8091" y1="329.5234" y2="329.5234"/><text fill="#000000" font-family="sans-serif" font-size="11" font-weight="bold" lengthAdjust="spacing" textLength="66.752" x="35" y="339.7339">[aguardar]</text><line style="stroke:#000000;stroke-width:1;stroke-dasharray:2,2;" x1="10" x2="881.6582" y1="351.3281" y2="351.3281"/><text fill="#000000" font-family="sans-serif" font-size="11" font-weight="bold" lengthAdjust="spacing" textLength="102.0776" x="15" y="361.5386">[UEv transmitiu]</text><g class="message" data-participant-1="UEv" data-participant-2="UEg"><polygon fill="#181818" points="359.7197,382.2656,349.7197,386.2656,359.7197,390.2656,355.7197,386.2656" style="stroke:#181818;stroke-width:1;"/><line style="stroke:#181818;stroke-width:1;" x1="353.7197" x2="756.0513" y1="386.2656" y2="386.2656"/><text fill="#000000" font-family="sans-serif" font-size="13" lengthAdjust="spacing" textLength="225.4751" x="365.7197" y="381.1997">transmitirResultado(resultadoUEv)</text></g><g class="message" data-participant-1="UEg" data-participant-2="UEg"><line style="stroke:#181818;stroke-width:1;" x1="348.7197" x2="390.7197" y1="415.3984" y2="415.3984"/><line style="stroke:#181818;stroke-width:1;" x1="390.7197" x2="390.7197" y1="415.3984" y2="428.3984"/><line style="stroke:#181818;stroke-width:1;" x1="349.7197" x2="390.7197" y1="428.3984" y2="428.3984"/><polygon fill="#181818" points="359.7197,424.3984,349.7197,428.3984,359.7197,432.3984,355.7197,428.3984" style="stroke:#181818;stroke-width:1;"/><text fill="#000000" font-family="sans-serif" font-size="13" lengthAdjust="spacing" textLength="257.4609" x="355.7197" y="410.3325">valiudarDadosRecebidos(resultadoUEv)</text></g><line style="stroke:#000000;stroke-width:1;stroke-dasharray:2,2;" x1="10" x2="881.6582" y1="437.3984" y2="437.3984"/><text fill="#000000" font-family="sans-serif" font-size="11" font-weight="bold" lengthAdjust="spacing" textLength="155.3643" x="15" y="447.6089">[Dados inv&#225;lidos na UEg]</text><g class="message" data-participant-1="UEg" data-participant-2="Administrador"><polygon fill="#181818" points="83.54,468.3359,73.54,472.3359,83.54,476.3359,79.54,472.3359" style="stroke:#181818;stroke-width:1;"/><line style="stroke:#181818;stroke-width:1;" x1="77.54" x2="347.7197" y1="472.3359" y2="472.3359"/><text fill="#000000" font-family="sans-serif" font-size="13" lengthAdjust="spacing" textLength="180.2607" x="89.54" y="467.27">mostrarErroDadosInvalido()</text></g><line style="stroke:#000000;stroke-width:1;stroke-dasharray:2,2;" x1="10" x2="881.6582" y1="481.3359" y2="481.3359"/><text fill="#000000" font-family="sans-serif" font-size="11" font-weight="bold" lengthAdjust="spacing" textLength="170.3335" x="15" y="491.5464">[Dados validados pela UEg]</text><g class="message" data-participant-1="UEg" data-participant-2="Administrador"><polygon fill="#181818" points="83.54,512.2734,73.54,516.2734,83.54,520.2734,79.54,516.2734" style="stroke:#181818;stroke-width:1;"/><line style="stroke:#181818;stroke-width:1;" x1="77.54" x2="347.7197" y1="516.2734" y2="516.2734"/><text fill="#000000" font-family="sans-serif" font-size="13" lengthAdjust="spacing" textLength="252.1797" x="89.54" y="511.2075">mostrarDadosValidados(resultadoUEv)</text></g><g class="message" data-participant-1="UEg" data-participant-2="Resultado"><polygon fill="#181818" points="817.6992,541.4063,827.6992,545.4063,817.6992,549.4063,821.6992,545.4063" style="stroke:#181818;stroke-width:1;"/><line style="stroke:#181818;stroke-width:1;" x1="348.7197" x2="823.6992" y1="545.4063" y2="545.4063"/><text fill="#000000" font-family="sans-serif" font-size="13" lengthAdjust="spacing" textLength="140.0801" x="355.7197" y="540.3403">calcularDe(votosUEv)</text></g><g class="message" data-participant-1="Resultado" data-participant-2="UEg"><polygon fill="#181818" points="359.7197,570.5391,349.7197,574.5391,359.7197,578.5391,355.7197,574.5391" style="stroke:#181818;stroke-width:1;"/><line style="stroke:#181818;stroke-width:1;stroke-dasharray:2,2;" x1="353.7197" x2="828.6992" y1="574.5391" y2="574.5391"/><text fill="#000000" font-family="sans-serif" font-size="13" lengthAdjust="spacing" textLength="104.7236" x="365.7197" y="569.4731">resultadoParcial</text></g><g class="message" data-participant-1="UEg" data-participant-2="Resultado"><polygon fill="#181818" points="817.6992,606.6719,827.6992,610.6719,817.6992,614.6719,821.6992,610.6719" style="stroke:#181818;stroke-width:1;"/><line style="stroke:#181818;stroke-width:1;" x1="348.7197" x2="823.6992" y1="610.6719" y2="610.6719"/><text fill="#000000" font-family="sans-serif" font-size="13" lengthAdjust="spacing" textLength="179.918" x="355.7197" y="605.606">mesclar(resultadosParciais)</text></g><g class="message" data-participant-1="Resultado" data-participant-2="UEg"><polygon fill="#181818" points="359.7197,635.8047,349.7197,639.8047,359.7197,643.8047,355.7197,639.8047" style="stroke:#181818;stroke-width:1;"/><line style="stroke:#181818;stroke-width:1;stroke-dasharray:2,2;" x1="353.7197" x2="828.6992" y1="639.8047" y2="639.8047"/><text fill="#000000" font-family="sans-serif" font-size="13" lengthAdjust="spacing" textLength="77.7144" x="365.7197" y="634.7388">consolidado</text></g><g class="message" data-participant-1="UEg" data-participant-2="Relatorio"><polygon fill="#181818" points="908.1958,664.9375,918.1958,668.9375,908.1958,672.9375,912.1958,668.9375" style="stroke:#181818;stroke-width:1;"/><line style="stroke:#181818;stroke-width:1;" x1="348.7197" x2="914.1958" y1="668.9375" y2="668.9375"/><text fill="#000000" font-family="sans-serif" font-size="13" lengthAdjust="spacing" textLength="306.2427" x="355.7197" y="663.8716">gerarRelatorio(relatorioApuracao, consolidado)</text></g><g class="message" data-participant-1="Relatorio" data-participant-2="UEg"><polygon fill="#181818" points="359.7197,694.0703,349.7197,698.0703,359.7197,702.0703,355.7197,698.0703" style="stroke:#181818;stroke-width:1;"/><line style="stroke:#181818;stroke-width:1;stroke-dasharray:2,2;" x1="353.7197" x2="919.1958" y1="698.0703" y2="698.0703"/><text fill="#000000" font-family="sans-serif" font-size="13" lengthAdjust="spacing" textLength="137.4712" x="365.7197" y="693.0044">urlRelatorio / arquivo</text></g><g class="message" data-participant-1="Administrador" data-participant-2="UEg"><polygon fill="#181818" points="336.7197,723.2031,346.7197,727.2031,336.7197,731.2031,340.7197,727.2031" style="stroke:#181818;stroke-width:1;"/><line style="stroke:#181818;stroke-width:1;" x1="72.54" x2="342.7197" y1="727.2031" y2="727.2031"/><text fill="#000000" font-family="sans-serif" font-size="13" lengthAdjust="spacing" textLength="120.9419" x="79.54" y="722.1372">validaResultados()</text></g><g class="message" data-participant-1="UEg" data-participant-2="UEv"><polygon fill="#181818" points="745.0513,752.3359,755.0513,756.3359,745.0513,760.3359,749.0513,756.3359" style="stroke:#181818;stroke-width:1;"/><line style="stroke:#181818;stroke-width:1;" x1="348.7197" x2="751.0513" y1="756.3359" y2="756.3359"/><text fill="#000000" font-family="sans-serif" font-size="13" lengthAdjust="spacing" textLength="306.2998" x="355.7197" y="751.27">disponibilizarResultados(relatorio, vencedores)</text></g><!--SRC=[VLCzRnin3DtrApZU0J6wTV1G84WzT3E29akHWP7KAm6TTAMa6uB-cI93VeZ_M2ZvFcmtxaPHxpq-KcAYv2myt7s63TmEcP7XtiRi4feG5UeK66vDJvvYOicn6f0JQHhG9tZOTHVdyUoyI5ra7Oek1QNEf67pfIZ25YId2RaQqXWQCZjdIQ9M5K35ZO8RBTDFoVDtHXzxYX73Ql-41Z_40896WuNwfD1Ljp1ORwnFLa4zRXOB7iCacYZNsrhttF0MdCJ8GjrFGh5f1NsbBsCr6U8zXnXjbucRIFqVx3AoGIx4ucjOhYK1u4EomDJzIbku2pwHpmXOHdDuExm6qA47K_e5jje-Ktau0EkYXLcvdBrHDLVQJEUTZQl3vOQNEJOyHu9irr4S2ICwobBYQt5mFnluXrDBLumyxdZuwmfAXbo_KEdoodpxK6BUCOVA_kPBGJ5r8LgpDHhaTqsg_zUinCUPTwtBPGn2rEXqTiAqpHXIY1DoXQpVPr7R8yjNTghCNtsWsTkeHN8j7uyCYgtwI5W77yFHyoetxPDSTrOwMnAYEaNpAjsS2fGACtMjaDcjwK-0_3lJ6Awjwd7m9qjtiQA6uX0yFPEZ5-GJt6BjHjROQokgDhRl]--></g></svg>