<svg xmlns="http://www.w3.org/2000/svg" xmlns:xlink="http://www.w3.org/1999/xlink" contentStyleType="text/css" data-diagram-type="SEQUENCE" height="660px" preserveAspectRatio="none" style="width:589px;height:660px;background:#FFFFFF;" version="1.1" viewBox="0 0 589 660" width="589px" zoomAndPan="magnify"><title>UC7 - Exportar Relatorios</title><defs/><g><text fill="#000000" font-family="sans-serif" font-size="14" font-weight="bold" lengthAdjust="spacing" textLength="200.4844" x="195.7874" y="27.9951">UC7 - Exportar Relatorios</text><rect fill="none" height="104.5313" style="stroke:#000000;stroke-width:1.5;" width="573.0591" x="10" y="252.125"/><rect fill="none" height="133.6641" style="stroke:#000000;stroke-width:1.5;" width="573.0591" x="10" y="428.9219"/><g><title>Administrador</title><rect fill="#000000" fill-opacity="0.00000" height="460.9922" width="8" x="68.54" y="118.5938"/><line style="stroke:#181818;stroke-width:0.5;stroke-dasharray:5,5;" x1="72" x2="72" y1="118.5938" y2="579.5859"/></g><g><title>UEg</title><rect fill="#000000" fill-opacity="0.00000" height="460.9922" width="8" x="342.3394" y="118.5938"/><line style="stroke:#181818;stroke-width:0.5;stroke-dasharray:5,5;" x1="345.3496" x2="345.3496" y1="118.5938" y2="579.5859"/></g><g><title>Relatorio</title><rect fill="#000000" fill-opacity="0.00000" height="460.9922" width="8" x="530.5215" y="118.5938"/><line style="stroke:#181818;stroke-width:0.5;stroke-dasharray:5,5;" x1="533.9839" x2="533.9839" y1="118.5938" y2="579.5859"/></g><g class="participant participant-head" data-participant="Administrador"><text fill="#000000" font-family="sans-serif" font-size="14" lengthAdjust="spacing" textLength="99.0801" x="20" y="115.292">Administrador</text><ellipse cx="72.54" cy="50.7969" fill="#E2E2F0" rx="8" ry="8" style="stroke:#181818;stroke-width:0.5;"/><path d="M72.54,58.7969 L72.54,85.7969 M59.54,66.7969 L85.54,66.7969 M72.54,85.7969 L59.54,100.7969 M72.54,85.7969 L85.54,100.7969" fill="none" style="stroke:#181818;stroke-width:0.5;"/></g><g class="participant participant-tail" data-participant="Administrador"><text fill="#000000" font-family="sans-serif" font-size="14" lengthAdjust="spacing" textLength="99.0801" x="20" y="591.5811">Administrador</text><ellipse cx="72.54" cy="603.3828" fill="#E2E2F0" rx="8" ry="8" style="stroke:#181818;stroke-width:0.5;"/><path d="M72.54,611.3828 L72.54,638.3828 M59.54,619.3828 L85.54,619.3828 M72.54,638.3828 L59.54,653.3828 M72.54,638.3828 L85.54,653.3828" fill="none" style="stroke:#181818;stroke-width:0.5;"/></g><g class="participant participant-head" data-participant="UEg"><rect fill="#E2E2F0" height="30.2969" rx="2.5" ry="2.5" style="stroke:#181818;stroke-width:0.5;" width="41.9795" x="325.3496" y="87.2969"/><text fill="#000000" font-family="sans-serif" font-size="14" lengthAdjust="spacing" textLength="27.9795" x="332.3496" y="107.292">UEg</text></g><g class="participant participant-tail" data-participant="UEg"><rect fill="#E2E2F0" height="30.2969" rx="2.5" ry="2.5" style="stroke:#181818;stroke-width:0.5;" width="41.9795" x="325.3496" y="578.5859"/><text fill="#000000" font-family="sans-serif" font-size="14" lengthAdjust="spacing" textLength="27.9795" x="332.3496" y="598.5811">UEg</text></g><g class="participant participant-head" data-participant="Relatorio"><rect fill="#E2E2F0" height="30.2969" rx="2.5" ry="2.5" style="stroke:#181818;stroke-width:0.5;" width="77.0752" x="495.9839" y="87.2969"/><text fill="#000000" font-family="sans-serif" font-size="14" lengthAdjust="spacing" textLength="63.0752" x="502.9839" y="107.292">Relatorio</text></g><g class="participant participant-tail" data-participant="Relatorio"><rect fill="#E2E2F0" height="30.2969" rx="2.5" ry="2.5" style="stroke:#181818;stroke-width:0.5;" width="77.0752" x="495.9839" y="578.5859"/><text fill="#000000" font-family="sans-serif" font-size="14" lengthAdjust="spacing" textLength="63.0752" x="502.9839" y="598.5811">Relatorio</text></g><g class="message" data-participant-1="Administrador" data-participant-2="UEg"><polygon fill="#181818" points="334.3394,145.7266,344.3394,149.7266,334.3394,153.7266,338.3394,149.7266" style="stroke:#181818;stroke-width:1;"/><line style="stroke:#181818;stroke-width:1;" x1="72.54" x2="340.3394" y1="149.7266" y2="149.7266"/><text fill="#000000" font-family="sans-serif" font-size="13" lengthAdjust="spacing" textLength="153.2324" x="79.54" y="144.6606">abrirModuloRelatorios()</text></g><g class="message" data-participant-1="UEg" data-participant-2="Administrador"><polygon fill="#181818" points="83.54,174.8594,73.54,178.8594,83.54,182.8594,79.54,178.8594" style="stroke:#181818;stroke-width:1;"/><line style="stroke:#181818;stroke-width:1;" x1="77.54" x2="345.3394" y1="178.8594" y2="178.8594"/><text fill="#000000" font-family="sans-serif" font-size="13" lengthAdjust="spacing" textLength="154.3877" x="89.54" y="173.7935">mostrarTiposRelatorio()</text></g><g class="message" data-participant-1="Administrador" data-participant-2="UEg"><polygon fill="#181818" points="334.3394,203.9922,344.3394,207.9922,334.3394,211.9922,338.3394,207.9922" style="stroke:#181818;stroke-width:1;"/><line style="stroke:#181818;stroke-width:1;" x1="72.54" x2="340.3394" y1="207.9922" y2="207.9922"/><text fill="#000000" font-family="sans-serif" font-size="13" lengthAdjust="spacing" textLength="249.7993" x="79.54" y="202.9263">solicitarRelatorio(tipo, filtros, formato)</text></g><g class="message" data-participant-1="UEg" data-participant-2="Relatorio"><polygon fill="#181818" points="522.5215,233.125,532.5215,237.125,522.5215,241.125,526.5215,237.125" style="stroke:#181818;stroke-width:1;"/><line style="stroke:#181818;stroke-width:1;" x1="346.3394" x2="528.5215" y1="237.125" y2="237.125"/><text fill="#000000" font-family="sans-serif" font-size="13" lengthAdjust="spacing" textLength="94.0151" x="353.3394" y="232.0591">gerar(params)</text></g><path d="M10,252.125 L74.4429,252.125 L74.4429,259.2578 L64.4429,269.2578 L10,269.2578 L10,252.125" fill="#EEEEEE" style="stroke:#000000;stroke-width:1.5;"/><rect fill="none" height="104.5313" style="stroke:#000000;stroke-width:1.5;" width="573.0591" x="10" y="252.125"/><text fill="#000000" font-family="sans-serif" font-size="13" font-weight="bold" lengthAdjust="spacing" textLength="19.4429" x="25" y="265.1919">alt</text><text fill="#000000" font-family="sans-serif" font-size="11" font-weight="bold" lengthAdjust="spacing" textLength="185.3081" x="89.4429" y="264.3354">[Erro na gera&#231;&#227;o do relat&#243;rio]</text><g class="message" data-participant-1="Relatorio" data-participant-2="UEg"><polygon fill="#181818" points="357.3394,286.3906,347.3394,290.3906,357.3394,294.3906,353.3394,290.3906" style="stroke:#181818;stroke-width:1;"/><line style="stroke:#181818;stroke-width:1;" x1="351.3394" x2="533.5215" y1="290.3906" y2="290.3906"/><text fill="#000000" font-family="sans-serif" font-size="13" lengthAdjust="spacing" textLength="135.5669" x="363.3394" y="285.3247">erroNaGeracao(erro)</text></g><g class="message" data-participant-1="UEg" data-participant-2="Administrador"><polygon fill="#181818" points="83.54,315.5234,73.54,319.5234,83.54,323.5234,79.54,319.5234" style="stroke:#181818;stroke-width:1;"/><line style="stroke:#181818;stroke-width:1;" x1="77.54" x2="345.3394" y1="319.5234" y2="319.5234"/><text fill="#000000" font-family="sans-serif" font-size="13" lengthAdjust="spacing" textLength="114.7847" x="89.54" y="314.4575">mostrarErro(erro)</text></g><g class="message" data-participant-1="UEg" data-participant-2="Administrador"><polygon fill="#181818" points="83.54,344.6563,73.54,348.6563,83.54,352.6563,79.54,348.6563" style="stroke:#181818;stroke-width:1;"/><line style="stroke:#181818;stroke-width:1;" x1="77.54" x2="345.3394" y1="348.6563" y2="348.6563"/><text fill="#000000" font-family="sans-serif" font-size="13" lengthAdjust="spacing" textLength="182.5396" x="89.54" y="343.5903">sugerirParamsAlternativos()</text></g><g class="message" data-participant-1="Relatorio" data-participant-2="UEg"><polygon fill="#181818" points="357.3394,380.7891,347.3394,384.7891,357.3394,388.7891,353.3394,384.7891" style="stroke:#181818;stroke-width:1;"/><line style="stroke:#181818;stroke-width:1;stroke-dasharray:2,2;" x1="351.3394" x2="533.5215" y1="384.7891" y2="384.7891"/><text fill="#000000" font-family="sans-serif" font-size="13" lengthAdjust="spacing" textLength="164.1821" x="363.3394" y="379.7231">arquivoGerado(url|bytes)</text></g><g class="message" data-participant-1="UEg" data-participant-2="Administrador"><polygon fill="#181818" points="83.54,409.9219,73.54,413.9219,83.54,417.9219,79.54,413.9219" style="stroke:#181818;stroke-width:1;"/><line style="stroke:#181818;stroke-width:1;" x1="77.54" x2="345.3394" y1="413.9219" y2="413.9219"/><text fill="#000000" font-family="sans-serif" font-size="13" lengthAdjust="spacing" textLength="146.561" x="89.54" y="408.856">fornecerDownload(url)</text></g><path d="M10,428.9219 L74.4429,428.9219 L74.4429,436.0547 L64.4429,446.0547 L10,446.0547 L10,428.9219" fill="#EEEEEE" style="stroke:#000000;stroke-width:1.5;"/><rect fill="none" height="133.6641" style="stroke:#000000;stroke-width:1.5;" width="573.0591" x="10" y="428.9219"/><text fill="#000000" font-family="sans-serif" font-size="13" font-weight="bold" lengthAdjust="spacing" textLength="19.4429" x="25" y="441.9888">alt</text><text fill="#000000" font-family="sans-serif" font-size="11" font-weight="bold" lengthAdjust="spacing" textLength="255.2451" x="89.4429" y="441.1323">[Administrador faz download do arquivo]</text><g class="message" data-participant-1="Administrador" data-participant-2="UEg"><polygon fill="#181818" points="334.3394,463.1875,344.3394,467.1875,334.3394,471.1875,338.3394,467.1875" style="stroke:#181818;stroke-width:1;"/><line style="stroke:#181818;stroke-width:1;" x1="72.54" x2="340.3394" y1="467.1875" y2="467.1875"/><text fill="#000000" font-family="sans-serif" font-size="13" lengthAdjust="spacing" textLength="68.1738" x="79.54" y="462.1216">baixar(url)</text></g><g class="message" data-participant-1="UEg" data-participant-2="Relatorio"><polygon fill="#181818" points="522.5215,492.3203,532.5215,496.3203,522.5215,500.3203,526.5215,496.3203" style="stroke:#181818;stroke-width:1;"/><line style="stroke:#181818;stroke-width:1;" x1="346.3394" x2="528.5215" y1="496.3203" y2="496.3203"/><text fill="#000000" font-family="sans-serif" font-size="13" lengthAdjust="spacing" textLength="118.1616" x="353.3394" y="491.2544">baixarArquivo(url)</text></g><g class="message" data-participant-1="Relatorio" data-participant-2="UEg"><polygon fill="#181818" points="357.3394,521.4531,347.3394,525.4531,357.3394,529.4531,353.3394,525.4531" style="stroke:#181818;stroke-width:1;"/><line style="stroke:#181818;stroke-width:1;stroke-dasharray:2,2;" x1="351.3394" x2="533.5215" y1="525.4531" y2="525.4531"/><text fill="#000000" font-family="sans-serif" font-size="13" lengthAdjust="spacing" textLength="49.061" x="363.3394" y="520.3872">arquivo</text></g><g class="message" data-participant-1="UEg" data-participant-2="Administrador"><polygon fill="#181818" points="83.54,550.5859,73.54,554.5859,83.54,558.5859,79.54,554.5859" style="stroke:#181818;stroke-width:1;"/><line style="stroke:#181818;stroke-width:1;" x1="77.54" x2="345.3394" y1="554.5859" y2="554.5859"/><text fill="#000000" font-family="sans-serif" font-size="13" lengthAdjust="spacing" textLength="150.0459" x="89.54" y="549.52">enviarArquivo(arquivo)</text></g><!--SRC=[XP51JiCm44NtFiKi4uckaRf0gg1Y1KA87c0QkzL8ZYUCdL8Gjs710JX2ByOugH8Y4V3Arhm_y-SxKV8EDjUNi83riM59AF3eF2OMucYmqWkiR4s1OXAqBAP1ILHHWo71PhsVl0UfCHCHBAuo2ql0hP3SiMqzZtEAqkIgGbFL4chETtcYXkF0ApxJFR9NAxh4o2QLNi2EV1AEUc6fjJ8C741LxvsEAdGVh6Dfq2TOYp04x2gdpzC7WsMGB3bzvIr1pzXXiE5KTe-tAggGY_mgE_Jl9VEm_-7OgXcIXyxboYSd0HCTkX2D2zRyy3EcBi-jCjcHvQ8L_xvzJIxEnguf1LSvkU6Nu1bjblI9JCaTlcaYFPEZES-P-vujqb4JpitWjm_ewwk-IJ_pZstcpBjmeB7B6IvpDjy0]--></g></svg>